<svg width="339" height="300" viewBox="0 0 339 300" fill="none" xmlns="http://www.w3.org/2000/svg">
<path d="M167.238 299.969C243.986 299.969 306.204 295.813 306.204 290.685C306.204 285.558 243.986 281.401 167.238 281.401C90.4887 281.401 28.2715 285.558 28.2715 290.685C28.2715 295.813 90.4887 299.969 167.238 299.969Z" fill="#ACCAF6"/>
<path opacity="0.5" d="M167.238 299.969C243.986 299.969 306.204 295.813 306.204 290.685C306.204 285.558 243.986 281.401 167.238 281.401C90.4887 281.401 28.2715 285.558 28.2715 290.685C28.2715 295.813 90.4887 299.969 167.238 299.969Z" fill="white"/>
<path d="M135.173 43.2349H121.871V46.1373V63.1831V66.0855H150.082V46.1373H136.118L135.173 43.2349Z" fill="#ACCAF6"/>
<path d="M135.173 86.7283H121.871V89.6307V106.676V109.579H150.082V89.6307H136.118L135.173 86.7283Z" fill="#ACCAF6"/>
<path d="M135.173 130.213H121.871V133.115V150.161V153.064H150.082V133.115H136.118L135.173 130.213Z" fill="#ACCAF6"/>
<path d="M135.173 173.706H121.871V176.609V193.654V196.557H150.082V176.609H136.118L135.173 173.706Z" fill="#ACCAF6"/>
<path d="M135.173 217.191H121.871V220.094V237.139V240.042H150.082V220.094H136.118L135.173 217.191Z" fill="#ACCAF6"/>
<path d="M220.41 43.2349H207.117V46.1373V63.1831V66.0855H235.319V46.1373H221.355L220.41 43.2349Z" fill="#ACCAF6"/>
<path d="M275.718 46.1373L274.773 43.2349H261.48V46.1373V63.1831V66.0855H289.682V46.1373H275.718Z" fill="#ACCAF6"/>
<path d="M220.41 86.7283H207.117V89.6307V106.676V109.579H235.319V89.6307H221.355L220.41 86.7283Z" fill="#ACCAF6"/>
<path d="M274.773 130.213H261.48V133.115V150.161V153.064H289.682V133.115H275.718L274.773 130.213Z" fill="#ACCAF6"/>
<path d="M274.773 86.7283H261.48V89.6307V106.676V109.579H289.682V89.6307H275.718L274.773 86.7283Z" fill="#ACCAF6"/>
<path d="M220.41 130.213H207.117V133.115V150.161V153.064H235.319V133.115H221.355L220.41 130.213Z" fill="#ACCAF6"/>
<path d="M220.41 173.706H207.117V176.609V193.654V196.557H235.319V176.609H221.355L220.41 173.706Z" fill="#ACCAF6"/>
<path d="M274.773 173.706H261.48V176.609V193.654V196.557H289.682V176.609H275.718L274.773 173.706Z" fill="#ACCAF6"/>
<path d="M220.41 217.191H207.117V220.094V237.139V240.042H235.319V220.094H221.355L220.41 217.191Z" fill="#ACCAF6"/>
<path d="M274.773 217.191H261.48V220.094V237.139V240.042H289.682V220.094H275.718L274.773 217.191Z" fill="#ACCAF6"/>
<g opacity="0.5">
<path d="M135.175 43.236H121.873V46.1384V63.1842V66.0866H150.084V46.1384H136.12L135.175 43.236Z" fill="white"/>
<path d="M135.175 86.7294H121.873V89.6318V106.678V109.58H150.084V89.6318H136.12L135.175 86.7294Z" fill="white"/>
<path d="M135.175 130.214H121.873V133.117V150.162V153.065H150.084V133.117H136.12L135.175 130.214Z" fill="white"/>
<path d="M135.175 173.708H121.873V176.61V193.656V196.558H150.084V176.61H136.12L135.175 173.708Z" fill="white"/>
<path d="M135.175 217.192H121.873V220.095V237.14V240.043H150.084V220.095H136.12L135.175 217.192Z" fill="white"/>
<path d="M220.412 43.236H207.119V46.1384V63.1842V66.0866H235.321V46.1384H221.357L220.412 43.236Z" fill="white"/>
<path d="M275.72 46.1384L274.775 43.236H261.482V46.1384V63.1842V66.0866H289.684V46.1384H275.72Z" fill="white"/>
<path d="M220.412 86.7294H207.119V89.6318V106.678V109.58H235.321V89.6318H221.357L220.412 86.7294Z" fill="white"/>
<path d="M274.775 130.214H261.482V133.117V150.162V153.065H289.684V133.117H275.72L274.775 130.214Z" fill="white"/>
<path d="M274.775 86.7294H261.482V89.6318V106.678V109.58H289.684V89.6318H275.72L274.775 86.7294Z" fill="white"/>
<path d="M220.412 130.214H207.119V133.117V150.162V153.065H235.321V133.117H221.357L220.412 130.214Z" fill="white"/>
<path d="M220.412 173.708H207.119V176.61V193.656V196.558H235.321V176.61H221.357L220.412 173.708Z" fill="white"/>
<path d="M274.775 173.708H261.482V176.61V193.656V196.558H289.684V176.61H275.72L274.775 173.708Z" fill="white"/>
<path d="M220.412 217.192H207.119V220.095V237.14V240.043H235.321V220.095H221.357L220.412 217.192Z" fill="white"/>
<path d="M274.775 217.192H261.482V220.095V237.14V240.043H289.684V220.095H275.72L274.775 217.192Z" fill="white"/>
</g>
<path d="M60.5093 108.241C60.5093 108.241 59.6585 114.074 62.4758 118.064C65.2931 122.054 85.8464 138.769 87.6805 139.733C89.5146 140.697 97.3993 138.636 95.0169 132.264C92.6344 125.892 75.3239 112.41 71.8543 108.761C68.3846 105.112 65.1513 105.641 65.1513 105.641" fill="#ACCAF6"/>
<path d="M60.5093 108.241C60.5093 108.241 59.6585 114.074 62.4758 118.064C65.2931 122.054 85.8464 138.769 87.6805 139.733C89.5146 140.697 97.3993 138.636 95.0169 132.264C92.6344 125.892 75.3239 112.41 71.8543 108.761C68.3846 105.112 65.1513 105.641 65.1513 105.641" stroke="#263238" stroke-width="0.677313" stroke-miterlimit="10"/>
<path d="M91.9458 129.514C91.9458 129.514 95.8881 129.788 103.206 129.514C110.523 129.24 128.826 130.355 131.644 130.355H134.48L134.206 136.831C134.206 136.831 120.403 137.956 110.835 139.365C101.268 140.774 93.3828 142.466 85.498 138.523" fill="#ACCAF6"/>
<path d="M91.9458 129.514C91.9458 129.514 95.8881 129.788 103.206 129.514C110.523 129.24 128.826 130.355 131.644 130.355H134.48L134.206 136.831C134.206 136.831 120.403 137.956 110.835 139.365C101.268 140.774 93.3828 142.466 85.498 138.523" stroke="#263238" stroke-width="0.677313" stroke-linecap="round" stroke-linejoin="round"/>
<path d="M134.451 130.351L134.942 129.207C135.72 127.39 137.041 125.858 138.724 124.82C140.207 124.386 141.622 123.75 142.931 122.929L143.167 122.788C143.167 122.788 144.926 123.298 143.895 124.678C143.636 125.08 143.277 125.406 142.852 125.625C142.427 125.844 141.952 125.948 141.475 125.926L140.066 128.176L149.757 128.961C149.757 128.961 151.156 129.519 150.031 130.36C148.906 131.202 143.413 130.994 143.413 130.994L150.4 132.223C150.4 132.223 151.194 133.017 150.854 133.688C150.513 134.359 143.186 133.461 143.186 133.461L149.388 135.154C149.641 135.345 149.822 135.616 149.903 135.923C149.983 136.23 149.958 136.555 149.833 136.846C149.615 137.413 148.263 137.186 147.696 136.959C147.129 136.732 143.073 136.061 143.073 136.061L147.583 138.538C147.538 138.806 147.429 139.059 147.264 139.275C147.099 139.491 146.884 139.663 146.637 139.777C145.972 139.962 145.269 139.962 144.604 139.777L138.743 137.413C138.743 137.413 138.431 138.198 134.082 136.903L134.451 130.351Z" fill="white" stroke="#263238" stroke-width="0.677313" stroke-linecap="round" stroke-linejoin="round"/>
<path d="M140.086 128.101C140.086 128.101 140.644 132.261 138.498 133.055L140.086 128.101Z" fill="white"/>
<path d="M140.086 128.101C140.086 128.101 140.644 132.261 138.498 133.055" stroke="#263238" stroke-width="0.677313" stroke-linecap="round" stroke-linejoin="round"/>
<path d="M269.944 110.794C269.944 110.794 269.585 116.674 266.012 120.012C262.438 123.349 238.916 135.507 236.921 136.084C234.926 136.66 227.628 133.03 231.249 127.282C234.87 121.534 254.582 111.872 258.722 108.988C262.863 106.105 265.917 107.296 265.917 107.296" fill="#ACCAF6"/>
<path d="M269.944 110.794C269.944 110.794 269.585 116.674 266.012 120.012C262.438 123.349 238.916 135.507 236.921 136.084C234.926 136.66 227.628 133.03 231.249 127.282C234.87 121.534 254.582 111.872 258.722 108.988C262.863 106.105 265.917 107.296 265.917 107.296" stroke="#263238" stroke-width="0.677313" stroke-miterlimit="10"/>
<path d="M234.798 125.21C234.798 125.21 230.884 124.68 223.774 122.912C216.665 121.144 198.522 118.516 195.761 117.939L193.01 117.363L191.961 123.763C191.961 123.763 205.197 127.677 214.32 131.015C223.443 134.352 230.78 137.632 239.298 135.354" fill="#ACCAF6"/>
<path d="M234.798 125.21C234.798 125.21 230.884 124.68 223.774 122.912C216.665 121.144 198.522 118.516 195.761 117.939L193.01 117.363L191.961 123.763C191.961 123.763 205.197 127.677 214.32 131.015C223.443 134.352 230.78 137.632 239.298 135.354" stroke="#263238" stroke-width="0.677313" stroke-linecap="round" stroke-linejoin="round"/>
<path d="M193.009 117.348L192.763 116.128C192.363 114.187 191.373 112.417 189.927 111.061C188.563 110.32 187.307 109.398 186.192 108.319L186.003 108.13C186.003 108.13 184.169 108.272 184.916 109.794C185.085 110.24 185.369 110.633 185.74 110.933C186.11 111.234 186.553 111.431 187.024 111.505L187.97 114.001L178.326 112.791C178.326 112.791 176.833 113.056 177.769 114.105C178.705 115.155 184.093 116.062 184.093 116.062L177.003 115.854C177.003 115.854 176.057 116.459 176.256 117.197C176.454 117.934 183.819 118.539 183.819 118.539L177.409 118.927C177.123 119.062 176.889 119.288 176.745 119.571C176.601 119.853 176.556 120.175 176.615 120.487C176.729 121.092 178.099 121.139 178.695 121.035C179.291 120.931 183.422 121.101 183.422 121.101L178.497 122.604C178.484 122.871 178.534 123.137 178.644 123.38C178.754 123.624 178.921 123.837 179.13 124.004C179.742 124.32 180.428 124.464 181.115 124.42L187.336 123.295C187.336 123.295 187.487 124.126 192.006 123.748L193.009 117.348Z" fill="white" stroke="#263238" stroke-width="0.677313" stroke-linecap="round" stroke-linejoin="round"/>
<path d="M187.953 114C187.953 114 186.563 117.961 188.492 119.171L187.953 114Z" fill="white"/>
<path d="M187.953 114C187.953 114 186.563 117.961 188.492 119.171" stroke="#263238" stroke-width="0.677313" stroke-linecap="round" stroke-linejoin="round"/>
<path d="M194.606 154.865H140.906V82.948H178.619L194.606 97.5924V154.865Z" fill="white" stroke="#263238" stroke-width="0.677313" stroke-linecap="round" stroke-linejoin="round"/>
<path d="M178.621 82.948V97.5924H194.608L178.621 82.948Z" fill="#263238" stroke="#263238" stroke-width="0.677313" stroke-linecap="round" stroke-linejoin="round"/>
<path d="M200.129 155.543C205.634 149.718 205.374 140.533 199.549 135.028C193.723 129.523 184.539 129.783 179.034 135.608C173.529 141.433 173.789 150.618 179.614 156.123C185.439 161.628 194.624 161.368 200.129 155.543Z" fill="#263238"/>
<path d="M197.397 143.897H191.252V137.762H187.905V143.897H181.77V147.254H187.905V153.389H191.252V147.254H197.397V143.897Z" fill="white"/>
<path d="M220.906 236.372H117.582L105.67 156.74H220.906V236.372Z" fill="#263238" stroke="#263238" stroke-width="0.677313" stroke-linecap="round" stroke-linejoin="round"/>
<path d="M167.067 156.74L165.517 152.277C165.101 151.082 164.323 150.045 163.291 149.312C162.26 148.578 161.025 148.184 159.759 148.184H117.953V236.372H221.287L233.189 156.74H167.067Z" fill="#ACCAF6" stroke="#263238" stroke-width="0.677313" stroke-linecap="round" stroke-linejoin="round"/>
<path d="M54.1474 274.752C54.1474 274.752 56.4448 279.904 58.7327 281.625C61.0206 283.346 65.3505 283.062 65.8989 285.927C66.4472 288.791 64.1782 289.075 62.174 289.075C60.1697 289.075 53.8638 289.075 52.7199 288.791C49.1069 287.523 45.7204 285.685 42.689 283.346C39.2572 280.509 38.3969 280.765 40.9778 275.319C43.5588 269.874 54.1474 274.752 54.1474 274.752Z" fill="#ACCAF6" stroke="#263238" stroke-width="0.677313" stroke-miterlimit="10"/>
<path d="M65.976 286.476C63.1965 286.967 57.7509 287.638 52.9577 286.476C48.1644 285.313 42.5014 281.002 39.6368 278.638C39.0412 280.869 40.1662 281.276 42.6905 283.365C45.725 285.688 49.1114 287.51 52.7213 288.763C53.8653 289.047 60.1711 289.047 62.1754 289.047C64.1797 289.047 66.1556 288.82 65.976 286.476Z" fill="white" stroke="#263238" stroke-width="0.677313" stroke-miterlimit="10"/>
<path d="M62.741 181.178C62.741 181.178 58.808 214.173 55.6598 222.483C52.5116 230.793 47.7656 236.05 46.6217 242.337C45.4777 248.624 40.9492 275.313 40.9492 275.313C40.9492 275.313 43.7855 278.149 45.8181 277.894C47.8507 277.638 53.8352 278.47 55.5558 275.313C57.2765 272.155 57.7019 267.05 57.9855 266.19C58.2692 265.329 70.2759 242.1 73.1783 232.93C76.0807 223.759 85.2701 185.886 84.9865 181.301" fill="#263238"/>
<path d="M62.741 181.178C62.741 181.178 58.808 214.173 55.6598 222.483C52.5116 230.793 47.7656 236.05 46.6217 242.337C45.4777 248.624 40.9492 275.313 40.9492 275.313C40.9492 275.313 43.7855 278.149 45.8181 277.894C47.8507 277.638 53.8352 278.47 55.5558 275.313C57.2765 272.155 57.7019 267.05 57.9855 266.19C58.2692 265.329 70.2759 242.1 73.1783 232.93C76.0807 223.759 85.2701 185.886 84.9865 181.301" stroke="#263238" stroke-width="0.677313" stroke-miterlimit="10"/>
<path d="M60.6404 158.546C60.6404 158.546 57.1329 168.86 58.447 178.078C59.7611 187.296 70.085 191.909 77.3552 190.586C84.6254 189.262 86.573 184.223 86.573 175.459C86.5492 170.036 86.1735 164.62 85.448 159.245C77.3394 161.837 68.59 161.59 60.6404 158.546Z" fill="#263238" stroke="#263238" stroke-width="0.677313" stroke-miterlimit="10"/>
<path d="M63.0596 91.3848C63.0596 91.3848 56.4417 103.675 56.0352 113.545C55.6287 123.415 60.6393 158.547 60.6393 158.547C60.6393 158.547 62.6152 162.499 72.0599 162.934C81.5046 163.368 85.4469 160.097 85.4469 160.097C85.4469 160.097 88.737 137.71 88.737 125.854C88.737 113.999 79.5192 96.4427 79.5192 96.4427L63.0596 91.3848Z" fill="#ACCAF6" stroke="#263238" stroke-width="0.677313" stroke-miterlimit="10"/>
<path d="M57.9766 118.715C57.9766 118.715 58.5533 125.663 66.958 126.533" stroke="#263238" stroke-width="0.677313" stroke-linecap="round" stroke-linejoin="round"/>
<path d="M60.2949 127.982C63.3581 129.788 66.9781 130.407 70.4675 129.721" stroke="#263238" stroke-width="0.677313" stroke-linecap="round" stroke-linejoin="round"/>
<path d="M63.4785 158.967C63.4785 158.967 71.8738 151.734 76.2227 145.069" stroke="#263238" stroke-width="0.677313" stroke-linecap="round" stroke-linejoin="round"/>
<path d="M75.3531 152.009C75.3531 152.009 68.1113 159.572 65.502 160.413" stroke="#263238" stroke-width="0.677313" stroke-linecap="round" stroke-linejoin="round"/>
<path d="M67.8838 75.1019C67.8838 75.1019 67.6663 81.2471 67.014 85.4163C66.3617 89.5856 66.1348 91.3441 66.1348 91.3441L78.2077 95.9482C78.2077 95.9482 77.1015 87.6097 78.6426 84.0928C79.511 82.2151 80.1033 80.2217 80.401 78.1745C80.401 78.1745 76.4492 68.5124 72.2799 67.8506C68.1107 67.1888 67.8838 75.1019 67.8838 75.1019Z" fill="white" stroke="#263238" stroke-width="0.677313" stroke-miterlimit="10"/>
<path d="M84.3547 57.3581C84.3547 57.3581 86.548 55.3822 83.6929 48.8494C80.8377 42.3166 67.0158 42.7043 60.4263 48.6226C53.8368 54.5408 51.6434 65.0916 57.3537 71.8891C63.064 78.6866 69.8615 79.5753 74.2576 76.9376C78.6538 74.2999 79.0793 69.2609 79.0793 67.285C79.0793 65.3091 77.5477 60.478 79.741 59.1639C81.1709 58.3159 82.7291 57.706 84.3547 57.3581Z" fill="#263238" stroke="#263238" stroke-width="0.677313" stroke-miterlimit="10"/>
<path d="M61.7363 91.8156L81.278 99.7193L80.1813 93.3567L62.833 86.1053L61.7363 91.8156Z" fill="white" stroke="#263238" stroke-width="0.677313" stroke-miterlimit="10"/>
<path d="M86.8131 282.494C86.8131 282.494 92.5423 285.935 95.6905 287.363C98.8387 288.791 99.1318 288.507 99.1318 290.511C99.1318 292.515 99.4154 292.809 94.2535 292.809C89.0915 292.809 74.2013 293.092 72.7737 291.948C71.3462 290.804 84.8088 281.634 86.8131 282.494Z" fill="#ACCAF6" stroke="#263238" stroke-width="0.677313" stroke-miterlimit="10"/>
<path d="M94.2491 292.802C99.0802 292.802 99.1369 292.547 99.1275 290.912C84.4452 291.356 77.2884 290.798 73.8093 290.155C72.8639 291.035 72.4385 291.715 72.7694 291.98C74.2442 293.086 89.0966 292.802 94.2491 292.802Z" fill="white" stroke="#263238" stroke-width="0.677313" stroke-miterlimit="10"/>
<path d="M83.6991 55.8149C83.6991 55.8149 73.3846 60.646 73.3846 62.4328C73.3846 64.2197 77.7713 64.8436 76.4572 67.0464C75.8325 68.1385 75.0907 69.1593 74.2449 70.0906C74.2449 70.0906 75.994 73.1632 74.4624 73.5981C72.9308 74.033 72.269 74.033 70.6807 71.8397C69.0924 69.6463 67.6082 68.5496 67.1733 72.284C66.7384 76.0184 68.4874 76.6707 69.8015 76.8882C70.8221 77.0095 71.8535 77.0095 72.8741 76.8882C72.8741 76.8882 75.0769 82.1541 76.6085 82.8159C78.14 83.4777 85.6088 84.3569 87.1404 82.5984C88.6719 80.84 87.5847 72.9363 87.5847 72.9363C87.5847 72.9363 89.778 72.5015 89.778 70.5255C89.778 68.5496 86.2706 65.6945 86.2706 65.6945C86.2706 65.6945 87.1404 64.3804 86.488 61.3078C85.9935 59.2866 85.039 57.4069 83.6991 55.8149Z" fill="white" stroke="#263238" stroke-width="0.677313" stroke-miterlimit="10"/>
<path d="M83.996 66.6634C83.996 67.3535 83.7218 67.9208 83.372 67.9208C83.0222 67.9208 82.748 67.3535 82.748 66.6634C82.748 65.9732 83.0222 65.4154 83.372 65.4154C83.7218 65.4154 83.996 65.9732 83.996 66.6634Z" fill="#263238"/>
<path d="M81.2148 64.4268C81.2148 64.4268 81.5363 62.536 84.382 62.9047" stroke="#263238" stroke-width="0.677313" stroke-linecap="round" stroke-linejoin="round"/>
<path d="M84.9276 75.7924C83.865 75.7001 82.8823 75.1901 82.1953 74.3743" stroke="#263238" stroke-width="0.677313" stroke-linecap="round" stroke-linejoin="round"/>
<path d="M61.0137 181.738C61.0137 181.738 63.0179 201.507 65.5895 210.101C68.161 218.694 68.1704 222.391 67.3101 229.869C66.4498 237.347 63.5852 244.192 65.5895 251.065C67.5937 257.938 71.6117 287.35 71.6117 288.494C71.6117 289.638 71.3187 291.33 72.7557 291.935C74.1927 292.541 86.502 284.202 86.7951 282.481C87.0881 280.761 84.7908 275.608 84.7908 271.023C84.7908 266.438 86.2183 239.607 86.2183 226.721C86.2183 213.835 87.6554 189.188 83.0701 177.73" fill="#263238"/>
<path d="M61.0137 181.738C61.0137 181.738 63.0179 201.507 65.5895 210.101C68.161 218.694 68.1704 222.391 67.3101 229.869C66.4498 237.347 63.5852 244.192 65.5895 251.065C67.5937 257.938 71.6117 287.35 71.6117 288.494C71.6117 289.638 71.3187 291.33 72.7557 291.935C74.1927 292.541 86.502 284.202 86.7951 282.481C87.0881 280.761 84.7908 275.608 84.7908 271.023C84.7908 266.438 86.2183 239.607 86.2183 226.721C86.2183 213.835 87.6554 189.188 83.0701 177.73" stroke="#263238" stroke-width="0.677313" stroke-miterlimit="10"/>
<path d="M62.6562 194.227C62.6562 194.227 64.0082 203.842 65.6059 210.11C67.2037 216.378 68.8392 219.318 66.8917 227.127C64.9441 234.936 64.2824 237.527 65.2561 241.46" stroke="white" stroke-width="0.677313" stroke-linecap="round" stroke-linejoin="round"/>
<path d="M237.861 276.893C237.861 276.893 226.138 280.807 223.349 281.62C220.56 282.433 218.045 283.019 220.56 285.808C223.075 288.597 235.356 288.88 238.977 288.88C242.598 288.88 245.122 290.828 245.954 288.597C246.786 286.366 246.795 280.22 246.795 280.22L237.861 276.893Z" fill="#ACCAF6" stroke="#263238" stroke-width="0.677313" stroke-miterlimit="10"/>
<path d="M246.312 287.266C243.192 287.172 237.303 286.879 230.335 285.981C226.675 285.629 223.08 284.777 219.652 283.447C219.396 284.005 219.652 284.752 220.597 285.829C223.112 288.618 235.393 288.902 239.014 288.902C242.635 288.902 245.159 290.849 245.991 288.618C246.139 288.178 246.247 287.726 246.312 287.266Z" fill="white" stroke="#263238" stroke-width="0.677313" stroke-miterlimit="10"/>
<path d="M273.306 279.682C273.306 279.682 264.372 286.385 261.867 287.775C259.361 289.164 258.794 291.405 261.025 291.405C263.256 291.405 281.399 291.963 283.914 290.289C286.428 288.616 282.798 280.523 282.798 280.523C282.798 280.523 276.095 279.682 273.306 279.682Z" fill="#ACCAF6" stroke="#263238" stroke-width="0.677313" stroke-miterlimit="10"/>
<path d="M283.912 290.286C284.621 289.813 284.858 288.821 284.782 287.648C276.671 289.076 268.426 289.583 260.201 289.161C259.313 290.305 259.492 291.401 261.062 291.401C263.255 291.401 281.397 291.959 283.912 290.286Z" fill="white" stroke="#263238" stroke-width="0.677313" stroke-miterlimit="10"/>
<path d="M251.816 150.139C251.816 150.139 239.525 192.834 238.977 202.883C238.429 212.933 237.861 266.292 237.861 268.797V276.89L246.795 280.237C246.795 280.237 250.984 248.651 251.816 241.116C252.648 233.581 253.215 225.204 254.33 221.262C255.446 217.32 257.677 201.408 258.519 198.099C259.36 194.791 261.308 180.798 260.75 164.887C260.192 148.976 253.773 146.225 251.816 150.139Z" fill="#263238" stroke="#263238" stroke-width="0.677313" stroke-miterlimit="10"/>
<path d="M250.424 147.071C250.424 147.071 250.698 159.626 250.982 171.907C251.265 184.188 250.424 202.889 253.213 216.285C256.002 229.681 266.883 258.762 267.999 263.499C269.115 268.235 273.029 280.809 273.029 280.809C273.029 280.809 279.164 281.367 282.795 280.526C282.795 280.526 279.164 253.402 278.607 242.794C278.049 232.187 271.346 217.117 269.956 213.487C268.566 209.856 272.783 180.842 272.783 180.842C272.783 180.842 279.476 168.551 277.803 160.742C276.85 156.127 274.627 151.87 271.384 148.452C271.384 148.452 254.603 150.74 250.424 147.071Z" fill="#263238" stroke="#263238" stroke-width="0.677313" stroke-miterlimit="10"/>
<path d="M251.324 164.57C251.324 164.57 251.002 196.827 252.269 205.95C253.536 215.074 254.869 218.666 254.869 218.666" stroke="white" stroke-width="0.677313" stroke-linecap="round" stroke-linejoin="round"/>
<path d="M270.786 94.0082C270.786 94.0082 267.439 91.5029 260.188 96.8444C252.937 102.186 244.56 116.651 245.118 122.238C245.676 127.826 250.422 144.285 250.422 147.074C250.422 149.863 251.254 148.748 254.601 149.863C257.947 150.979 267.439 150.705 269.671 149.589C271.902 148.473 270.786 141.213 271.344 135.077C271.902 128.941 275.532 116.934 275.258 108.284C274.984 99.6334 271.902 95.1521 270.786 94.0082Z" fill="#ACCAF6" stroke="#263238" stroke-width="0.677313" stroke-miterlimit="10"/>
<path d="M257.115 62.2219C257.115 62.2219 253.768 66.4101 253.768 69.199C253.768 71.988 253.144 74.8715 251.471 76.2424C249.797 77.6132 249.854 78.9651 251.253 79.2488L252.652 79.5229C252.652 79.5229 253.437 85.6114 254.543 87.852C255.649 90.0926 259.62 88.1734 260.452 87.852C261.284 87.5306 260.178 95.9447 260.178 96.7861C260.178 97.6276 268.545 96.5025 269.632 96.5025C270.719 96.5025 270.19 86.4528 271.305 83.3897C272.421 80.3265 276.033 76.4125 271.589 69.7096C267.146 63.0066 259.63 57.4759 257.115 62.2219Z" fill="white" stroke="#263238" stroke-width="0.677313" stroke-miterlimit="10"/>
<path d="M255.898 74.6647C255.898 75.3549 256.173 75.9127 256.522 75.9127C256.872 75.9127 257.146 75.3549 257.146 74.6647C257.146 73.9746 256.872 73.4073 256.522 73.4073C256.173 73.4073 255.898 73.9746 255.898 74.6647Z" fill="#263238"/>
<path d="M254.197 81.7252C254.197 81.7252 255.143 82.8124 257.279 81.3564" stroke="#263238" stroke-width="0.677313" stroke-linecap="round" stroke-linejoin="round"/>
<path d="M254.924 71.1737C254.924 71.1737 256.55 69.1789 258.545 71.722" stroke="#263238" stroke-width="0.677313" stroke-linecap="round" stroke-linejoin="round"/>
<path d="M265.04 93.5178C265.04 93.5178 257.799 96.1177 256.636 97.8572C255.473 99.5968 254.613 102.49 256.352 102.49C258.092 102.49 265.608 97.4318 267.64 96.9874C269.673 96.5431 267.64 90.9084 265.04 93.5178Z" fill="white" stroke="#263238" stroke-width="0.677313" stroke-miterlimit="10"/>
<path d="M257.117 62.2302C257.809 65.9636 259.334 69.4927 261.58 72.5541C265.21 77.2811 268.841 76.1845 267.999 80.1174C267.158 84.0503 261.022 89.5715 263.537 95.7545C266.052 101.937 271.63 103.006 272.745 105.521C273.861 108.035 276.376 108.867 273.587 118.917C270.798 128.967 266.609 137.05 270.23 146.542C273.851 156.034 283.353 158.539 290.604 155.193C297.855 151.846 293.393 141.238 295.076 134.819C296.759 128.4 311.261 123.379 306.232 105.511C301.202 87.6429 289.488 82.9063 286.378 76.7612C283.268 70.616 283.873 60.3016 277.453 56.1134C271.034 51.9252 263.773 55.5556 261.268 56.1134C258.762 56.6712 257.354 52.483 252.334 54.44C247.314 56.397 244.317 65.7849 253.279 67.7514C254.22 65.6971 255.52 63.8274 257.117 62.2302Z" fill="#263238" stroke="#263238" stroke-width="0.677313" stroke-miterlimit="10"/>
<path d="M266.344 75.5978C268.094 77.4127 270.19 78.8592 272.508 79.8521C282.907 84.409 290.102 90.9323 290.102 102.003C290.102 113.074 279.702 120.58 279.343 130.035C278.984 139.489 284.231 146.645 289.743 143.715C295.254 140.784 292.683 134.922 290.688 134.922" stroke="white" stroke-width="0.677313" stroke-linecap="round" stroke-linejoin="round"/>
<path d="M261.439 65.1844C261.653 67.1362 262.204 69.0361 263.066 70.8002" stroke="white" stroke-width="0.677313" stroke-linecap="round" stroke-linejoin="round"/>
<path d="M295.378 96.0568C297.478 100.687 298.567 105.712 298.573 110.796C298.242 122.197 284.562 127.416 282.927 134.261C281.461 140.415 285.867 145.984 289.772 143.715" stroke="white" stroke-width="0.677313" stroke-linecap="round" stroke-linejoin="round"/>
<path d="M291.41 88.6382C292.33 90.016 293.164 91.4494 293.906 92.9303" stroke="white" stroke-width="0.677313" stroke-linecap="round" stroke-linejoin="round"/>
<path d="M276.09 110.801C277.412 106.427 277.296 101.745 275.759 97.4419C273.15 90.5971 270.219 87.3354 270.219 83.7523" stroke="white" stroke-width="0.677313" stroke-linecap="round" stroke-linejoin="round"/>
<path d="M257.121 62.2264C256.631 61.3736 255.932 60.6592 255.09 60.1499C254.249 59.6406 253.292 59.3532 252.309 59.3146C249.047 59.3146 249.369 63.55 252.952 64.2024" stroke="white" stroke-width="0.677313" stroke-linecap="round" stroke-linejoin="round"/>
<path d="M65.6052 103.263C65.6052 103.263 61.5966 108.992 62.457 114.721C63.3173 120.45 76.2127 149.096 77.6403 151.1C79.0678 153.105 88.522 155.118 89.3823 147.092C90.2426 139.065 79.0773 115.581 77.3566 109.852C75.636 104.123 71.9111 102.979 71.9111 102.979" fill="#ACCAF6"/>
<path d="M65.6052 103.263C65.6052 103.263 61.5966 108.992 62.457 114.721C63.3173 120.45 76.2127 149.096 77.6403 151.1C79.0678 153.105 88.522 155.118 89.3823 147.092C90.2426 139.065 79.0773 115.581 77.3566 109.852C75.636 104.123 71.9111 102.979 71.9111 102.979" stroke="#263238" stroke-width="0.677313" stroke-miterlimit="10"/>
<path d="M87.2565 141.099C87.2565 141.099 95.6517 142.167 101.532 145.722C107.413 149.277 126.113 155.932 126.113 155.932L124.77 161.482C124.77 161.482 104.189 159.109 95.4626 157.502C86.7365 155.895 81.0735 155.129 77.8496 150.496" fill="#ACCAF6"/>
<path d="M87.2565 141.099C87.2565 141.099 95.6517 142.167 101.532 145.722C107.413 149.277 126.113 155.932 126.113 155.932L124.77 161.482C124.77 161.482 104.189 159.109 95.4626 157.502C86.7365 155.895 81.0735 155.129 77.8496 150.496" stroke="#263238" stroke-width="0.677313" stroke-miterlimit="10"/>
<path d="M143.123 162.956L135.484 160.564L135.569 159.76C135.569 159.76 142.083 161.018 142.792 161.103C143.501 161.188 143.737 160.838 143.737 160.394C143.69 160.057 143.534 159.745 143.293 159.505L132.61 155.667L138.745 154.513C139.634 153.804 138.651 153.095 138.651 153.095L131.447 153.265L126.133 155.922L124.791 161.472C124.791 161.472 134.652 169.98 135.096 170.254C135.54 170.529 135.805 170.963 136.514 170.519C137.223 170.075 136.958 169.574 136.958 169.574L133.81 166.34L139.237 167.938C139.851 168.118 139.946 168.297 140.39 168.118C140.835 167.938 140.92 166.785 140.92 166.785L134.604 163.854L134.879 163.23C134.879 163.23 141.884 164.913 142.319 164.913C142.754 164.913 143.028 164.913 143.387 164.119C143.5 163.928 143.535 163.701 143.486 163.485C143.436 163.269 143.307 163.079 143.123 162.956Z" fill="white" stroke="#263238" stroke-width="0.677313" stroke-linecap="round" stroke-linejoin="round"/>
<path d="M272.602 105.739C272.602 105.739 268.726 100.359 263.261 103.848C257.797 107.336 237.981 125.696 237.981 125.696C237.981 125.696 233.972 130.423 239.872 133.883C245.771 137.344 269.973 115.826 272.592 114.03" fill="#ACCAF6"/>
<path d="M272.602 105.739C272.602 105.739 268.726 100.359 263.261 103.848C257.797 107.336 237.981 125.696 237.981 125.696C237.981 125.696 233.972 130.423 239.872 133.883C245.771 137.344 269.973 115.826 272.592 114.03" stroke="#263238" stroke-width="0.677313" stroke-miterlimit="10"/>
<path d="M241.984 125.777C241.984 125.777 239.043 123.934 232.359 122.761C225.675 121.589 202.711 108.798 202.711 108.798L198.93 113.525C198.93 113.525 215.087 125.408 223.51 130.495C231.934 135.581 235.697 136.924 238.401 136.649C241.105 136.375 247.41 130.466 247.41 130.466" fill="#ACCAF6"/>
<path d="M241.984 125.777C241.984 125.777 239.043 123.934 232.359 122.761C225.675 121.589 202.711 108.798 202.711 108.798L198.93 113.525C198.93 113.525 215.087 125.408 223.51 130.495C231.934 135.581 235.697 136.924 238.401 136.649C241.105 136.375 247.41 130.466 247.41 130.466" stroke="#263238" stroke-width="0.677313" stroke-miterlimit="10"/>
<path d="M186.856 98.5608L192.963 103.43L193.559 102.929C193.559 102.929 189.002 98.3528 188.548 97.8234C188.095 97.294 188.227 96.878 188.548 96.6416C188.843 96.503 189.174 96.46 189.494 96.5187L198.4 103.07L195.998 97.483C196.093 96.3769 197.199 96.7834 197.199 96.7834L200.981 102.702L202.153 108.525L199.222 113.791C199.222 113.791 185.731 109.206 185.277 108.998C184.823 108.79 184.332 108.809 184.285 107.987C184.237 107.164 184.833 107.098 184.833 107.098L189.163 107.939L184.965 104.413C184.483 104.006 184.294 104.035 184.19 103.572C184.086 103.108 184.984 102.418 184.984 102.418L190.789 105.926L191.148 105.368C191.148 105.368 185.958 100.641 185.712 100.253C185.466 99.8655 185.325 99.6764 185.778 98.9579C185.872 98.7659 186.037 98.6175 186.238 98.5435C186.438 98.4696 186.66 98.4758 186.856 98.5608Z" fill="white" stroke="#263238" stroke-width="0.677313" stroke-linecap="round" stroke-linejoin="round"/>
</svg>
