<svg width="212" height="212" viewBox="0 0 212 212" fill="none" xmlns="http://www.w3.org/2000/svg">
<rect width="212" height="212"/>
<path d="M63.8306 29.1267H19.6036C17.7741 29.1267 16.2911 30.6098 16.2911 32.4392L16.291 76.6663C16.291 78.4957 17.7741 79.9788 19.6035 79.9788H63.8306C65.66 79.9788 67.1431 78.4957 67.1431 76.6663V32.4392C67.1431 30.6098 65.66 29.1267 63.8306 29.1267Z" fill="#E4EBF7"/>
<path d="M192.617 95.7778H178.797C176.968 95.7778 175.485 97.2609 175.485 99.0903L175.485 112.91C175.485 114.739 176.968 116.222 178.797 116.222H192.617C194.446 116.222 195.929 114.739 195.929 112.91V99.0903C195.929 97.2609 194.446 95.7778 192.617 95.7778Z" fill="#E4EBF7"/>
<path d="M192.785 131.84H189.188C187.358 131.84 185.875 133.323 185.875 135.153L185.875 138.75C185.875 140.579 187.358 142.062 189.188 142.062H192.785C194.614 142.062 196.097 140.579 196.097 138.75V135.153C196.097 133.323 194.614 131.84 192.785 131.84Z" fill="#B8CDF1"/>
<path d="M53.2456 87.5354H49.6484C47.819 87.5354 46.3359 89.0185 46.3359 90.8479L46.3359 94.4451C46.3359 96.2745 47.819 97.7576 49.6484 97.7576H53.2456C55.0751 97.7576 56.5581 96.2745 56.5581 94.4451V90.8479C56.5581 89.0185 55.0751 87.5354 53.2456 87.5354Z" fill="#FAAD14"/>
<path fill-rule="evenodd" clip-rule="evenodd" d="M171.127 71.2568H54.9897V60.8505C54.9897 58.5932 56.82 56.7629 59.0773 56.7629H167.039C169.297 56.7629 171.127 58.5932 171.127 60.8505V71.2568Z" fill="#253368"/>
<path fill-rule="evenodd" clip-rule="evenodd" d="M167.039 171.453H59.0773C56.82 171.453 54.9897 169.623 54.9897 167.366V70.038H171.127V167.366C171.127 169.623 169.297 171.453 167.039 171.453Z" fill="#E4EBF7"/>
<path fill-rule="evenodd" clip-rule="evenodd" d="M64.4279 63.508C64.4279 64.9247 63.2793 66.0733 61.8625 66.0733C60.4458 66.0733 59.2974 64.9247 59.2974 63.508C59.2974 62.0914 60.4458 60.9427 61.8625 60.9427C63.2793 60.9427 64.4279 62.0914 64.4279 63.508Z" fill="#FF7946"/>
<path fill-rule="evenodd" clip-rule="evenodd" d="M74.0079 63.508C74.0079 64.9247 72.8594 66.0733 71.4426 66.0733C70.0259 66.0733 68.8774 64.9247 68.8774 63.508C68.8774 62.0914 70.0259 60.9427 71.4426 60.9427C72.8594 60.9427 74.0079 62.0914 74.0079 63.508Z" fill="#FAAD14"/>
<path fill-rule="evenodd" clip-rule="evenodd" d="M83.5884 63.508C83.5884 64.9247 82.44 66.0733 81.0231 66.0733C79.6064 66.0733 78.458 64.9247 78.458 63.508C78.458 62.0914 79.6064 60.9427 81.0231 60.9427C82.44 60.9427 83.5884 62.0914 83.5884 63.508Z" fill="#7CB305"/>
<path fill-rule="evenodd" clip-rule="evenodd" d="M67.5421 157.659C66.8375 157.659 66.2666 157.088 66.2666 156.384V82.5002C66.2666 81.7964 66.8375 81.2257 67.5421 81.2257H159.843C160.548 81.2257 161.119 81.7964 161.119 82.5002V156.384C161.119 157.088 160.548 157.659 159.843 157.659H67.5421Z" fill="white"/>
<path fill-rule="evenodd" clip-rule="evenodd" d="M163.5 186.234C149.287 186.234 137.766 174.713 137.766 160.5C137.766 146.287 149.287 134.766 163.5 134.766C177.713 134.766 189.234 146.287 189.234 160.5C189.234 174.713 177.713 186.234 163.5 186.234Z" fill="#FF7946"/>
<path fill-rule="evenodd" clip-rule="evenodd" d="M171.948 152.701L171.299 152.052C170.76 151.513 169.887 151.513 169.349 152.052L155.051 166.349C154.513 166.887 154.513 167.76 155.051 168.299L155.701 168.949C156.24 169.487 157.112 169.487 157.651 168.949L171.948 154.651C172.487 154.113 172.487 153.24 171.948 152.701Z" fill="white"/>
<path fill-rule="evenodd" clip-rule="evenodd" d="M155.051 152.701L155.701 152.052C156.24 151.513 157.112 151.513 157.651 152.052L171.948 166.349C172.487 166.887 172.487 167.76 171.948 168.299L171.299 168.949C170.76 169.487 169.887 169.487 169.349 168.949L155.051 154.651C154.513 154.113 154.513 153.24 155.051 152.701Z" fill="white"/>
<path fill-rule="evenodd" clip-rule="evenodd" d="M145.185 119.986C145.185 137.218 131.215 151.187 113.983 151.187C96.7507 151.187 82.7812 137.218 82.7812 119.986C82.7812 102.753 96.7507 88.7839 113.983 88.7839C131.215 88.7839 145.185 102.753 145.185 119.986Z" fill="#C2D4FF"/>
<path fill-rule="evenodd" clip-rule="evenodd" d="M112.708 115.508C112.708 119.129 109.772 122.064 106.151 122.064C102.53 122.064 99.5947 119.129 99.5947 115.508C99.5947 111.886 102.53 108.951 106.151 108.951C109.772 108.951 112.708 111.886 112.708 115.508Z" fill="white"/>
<path fill-rule="evenodd" clip-rule="evenodd" d="M128.371 115.508C128.371 119.129 125.436 122.064 121.814 122.064C118.193 122.064 115.258 119.129 115.258 115.508C115.258 111.886 118.193 108.951 121.814 108.951C125.436 108.951 128.371 111.886 128.371 115.508Z" fill="white"/>
<path fill-rule="evenodd" clip-rule="evenodd" d="M109.065 115.325C109.065 116.834 107.842 118.057 106.334 118.057C104.825 118.057 103.602 116.834 103.602 115.325C103.602 113.817 104.825 112.594 106.334 112.594C107.842 112.594 109.065 113.817 109.065 115.325Z" fill="#253368"/>
<path fill-rule="evenodd" clip-rule="evenodd" d="M124.364 115.325C124.364 116.834 123.141 118.057 121.632 118.057C120.124 118.057 118.9 116.834 118.9 115.325C118.9 113.817 120.124 112.594 121.632 112.594C123.141 112.594 124.364 113.817 124.364 115.325Z" fill="#253368"/>
<path fill-rule="evenodd" clip-rule="evenodd" d="M124.118 134.085C123.717 134.085 123.33 133.862 123.139 133.478C121.597 130.378 118.003 128.375 113.983 128.375C109.963 128.375 106.369 130.378 104.827 133.478C104.558 134.019 103.902 134.239 103.362 133.97C102.821 133.701 102.601 133.045 102.87 132.505C104.778 128.669 109.14 126.19 113.983 126.19C118.826 126.19 123.188 128.669 125.096 132.505C125.365 133.045 125.145 133.701 124.604 133.97C124.448 134.048 124.282 134.085 124.118 134.085Z" fill="#253368"/>
</svg>
