<svg width="47" height="37" viewBox="0 0 47 37" fill="none" xmlns="http://www.w3.org/2000/svg">
<g id="Group">
<path id="Vector" d="M46.5 13.6653L36.354 2.24866C35.867 1.47048 35.156 1 34.407 1H12.593C11.844 1 11.133 1.47048 10.646 2.24767L0.5 13.6663V22.8367H46.5V13.6653Z" stroke="#D9D9D9"/>
<path id="Vector_2" d="M33.113 16.8128C33.113 15.2197 34.107 13.9046 35.34 13.9036H46.5V31.9059C46.5 34.0132 45.18 35.7402 43.55 35.7402H3.45C1.82 35.7402 0.5 34.0122 0.5 31.9059V13.9036H11.66C12.893 13.9036 13.887 15.2167 13.887 16.8098V16.8317C13.887 18.4248 14.892 19.7111 16.124 19.7111H30.876C32.108 19.7111 33.113 18.4128 33.113 16.8198V16.8128Z" fill="#FAFAFA" stroke="#D9D9D9"/>
</g>
</svg>
