<svg width="15" height="16" viewBox="0 0 15 16" fill="none" xmlns="http://www.w3.org/2000/svg">
<g id="Enter">
<path id="Vector" d="M13.4109 2.39404H12.4302C12.3582 2.39404 12.2994 2.45289 12.2994 2.52481V10.9917H4.35552V9.79852C4.35552 9.68901 4.22802 9.62689 4.14303 9.69555L1.82361 11.5262C1.80798 11.5385 1.79534 11.5541 1.78665 11.5719C1.77796 11.5898 1.77344 11.6094 1.77344 11.6292C1.77344 11.6491 1.77796 11.6686 1.78665 11.6865C1.79534 11.7043 1.80798 11.72 1.82361 11.7322L4.14303 13.5629C4.22966 13.6315 4.35552 13.5694 4.35552 13.4599V12.234H12.4955C13.0725 12.234 13.5416 11.7649 13.5416 11.1879V2.52481C13.5416 2.45289 13.4828 2.39404 13.4109 2.39404Z" fill="#8C8C8C"/>
</g>
</svg>
