<svg width="34" height="25" viewBox="0 0 34 25" fill="none" xmlns="http://www.w3.org/2000/svg">
<g id="Group 1041">
<g id="Rectangle 151">
<mask id="path-1-outside-1_176578_7903" maskUnits="userSpaceOnUse" x="0.535156" y="0" width="33" height="25" fill="black">
<rect fill="white" x="0.535156" width="33" height="25"/>
<path d="M0.535156 3.66137C0.535156 1.63925 2.17441 0 4.19653 0H29.8262C31.8483 0 33.4875 1.63925 33.4875 3.66138V19.2222C33.4875 21.2443 31.8483 22.8836 29.8262 22.8836H4.19653C2.17441 22.8836 0.535156 21.2443 0.535156 19.2222V3.66137Z"/>
</mask>
<path d="M0.535156 3.66137C0.535156 1.63925 2.17441 0 4.19653 0H29.8262C31.8483 0 33.4875 1.63925 33.4875 3.66138V19.2222C33.4875 21.2443 31.8483 22.8836 29.8262 22.8836H4.19653C2.17441 22.8836 0.535156 21.2443 0.535156 19.2222V3.66137Z" fill="#F0F0F0"/>
<path d="M0.535156 0H33.4875H0.535156ZM33.4875 19.2222C33.4875 22.3489 30.9529 24.8836 27.8262 24.8836H6.19653C3.06984 24.8836 0.535156 22.3489 0.535156 19.2222V19.2222C0.535156 20.1398 2.17441 20.8836 4.19653 20.8836H29.8262C31.8483 20.8836 33.4875 20.1398 33.4875 19.2222V19.2222ZM0.535156 22.8836V0V22.8836ZM33.4875 0V22.8836V0Z" fill="#D9D9D9" mask="url(#path-1-outside-1_176578_7903)"/>
</g>
<g id="esc">
<path d="M10.3736 14.3325C9.93929 14.3325 9.54121 14.2601 9.17932 14.1154C8.82106 13.9706 8.51345 13.7698 8.25651 13.5128C7.99957 13.2595 7.80054 12.9609 7.6594 12.6172C7.52188 12.2697 7.45312 11.8952 7.45312 11.4935V11.2709C7.45312 10.8113 7.5255 10.3952 7.67026 10.0224C7.81501 9.64968 8.01405 9.33122 8.26737 9.06705C8.52069 8.80287 8.81382 8.60021 9.14675 8.45908C9.48331 8.31432 9.84158 8.24194 10.2216 8.24194C10.645 8.24194 11.0195 8.31432 11.3452 8.45908C11.6709 8.60021 11.9441 8.79744 12.1649 9.05076C12.3856 9.3077 12.5521 9.61349 12.6643 9.96814C12.7765 10.3228 12.8326 10.71 12.8326 11.1298V11.6889H8.76135V11.7161C8.80115 11.973 8.86267 12.1883 8.94591 12.362C9.02914 12.5357 9.14314 12.6913 9.28789 12.8289C9.43265 12.9736 9.60273 13.0858 9.79815 13.1654C9.99719 13.245 10.2143 13.2848 10.4495 13.2848C10.7716 13.2848 11.072 13.2233 11.3506 13.1003C11.6293 12.9736 11.8591 12.7945 12.04 12.5629L12.7349 13.236C12.5394 13.5183 12.2391 13.7716 11.8338 13.9959C11.4321 14.2203 10.9453 14.3325 10.3736 14.3325ZM10.2161 9.29503C10.0316 9.29503 9.85967 9.32941 9.70044 9.39817C9.54483 9.46331 9.4055 9.5574 9.28246 9.68044C9.15942 9.8071 9.05628 9.9591 8.97305 10.1364C8.88982 10.3137 8.82829 10.5146 8.78849 10.739H11.5515V10.6521C11.5515 10.482 11.5207 10.3137 11.4592 10.1473C11.3977 9.97719 11.3108 9.82882 11.1987 9.70216C11.0901 9.57911 10.9526 9.48141 10.7861 9.40903C10.6233 9.33303 10.4333 9.29503 10.2161 9.29503Z" fill="#8C8C8C"/>
<path d="M18.1469 12.6334C18.1469 12.5321 18.1234 12.4416 18.0763 12.362C18.0329 12.2824 17.9587 12.2064 17.8538 12.134C17.7416 12.0689 17.595 12.0074 17.4141 11.9495C17.2331 11.8916 17.0069 11.8373 16.7355 11.7866C16.3953 11.7179 16.0841 11.6328 15.8019 11.5315C15.5232 11.4302 15.2825 11.3071 15.0799 11.1624C14.8809 11.0249 14.7252 10.862 14.6131 10.6738C14.5009 10.4856 14.4448 10.2667 14.4448 10.017C14.4448 9.77815 14.5009 9.55197 14.6131 9.33846C14.7289 9.12133 14.8935 8.93134 15.107 8.76849C15.3169 8.60564 15.5702 8.47717 15.867 8.38308C16.1674 8.28899 16.5003 8.24194 16.8658 8.24194C17.2566 8.24194 17.6077 8.2908 17.9189 8.38851C18.2301 8.4826 18.4943 8.61288 18.7114 8.77935C18.9249 8.94581 19.0896 9.14304 19.2054 9.37103C19.3212 9.59902 19.3791 9.8451 19.3791 10.1093H18.0817C18.0817 10.0007 18.0582 9.89758 18.0112 9.79987C17.9677 9.69854 17.9026 9.60807 17.8158 9.52845C17.7144 9.43436 17.5841 9.36017 17.4249 9.30589C17.2657 9.24799 17.0793 9.21904 16.8658 9.21904C16.6704 9.21904 16.4985 9.24075 16.3501 9.28418C16.2054 9.32398 16.0859 9.38008 15.9918 9.45245C15.8978 9.51759 15.8272 9.5954 15.7801 9.68587C15.7331 9.77272 15.7096 9.86501 15.7096 9.96271C15.7096 10.064 15.7295 10.1563 15.7693 10.2396C15.8091 10.3192 15.8797 10.3897 15.981 10.4513C16.0751 10.5164 16.2054 10.5761 16.3718 10.6304C16.5419 10.6847 16.7554 10.7335 17.0124 10.777C17.3706 10.8421 17.6981 10.9217 17.9949 11.0158C18.2916 11.1099 18.545 11.2257 18.7548 11.3632C18.9647 11.508 19.1276 11.6781 19.2434 11.8735C19.3592 12.0689 19.4171 12.3005 19.4171 12.5683C19.4171 12.8289 19.3556 13.0677 19.2325 13.2848C19.1131 13.502 18.943 13.6883 18.7223 13.844C18.4979 13.9996 18.2301 14.1208 17.9189 14.2076C17.6077 14.2945 17.2621 14.3379 16.8821 14.3379C16.4587 14.3379 16.0823 14.2818 15.753 14.1696C15.4273 14.0575 15.1541 13.9091 14.9333 13.7245C14.709 13.5436 14.5389 13.3355 14.4231 13.1003C14.3073 12.865 14.2494 12.6262 14.2494 12.3837H15.5087C15.5196 12.5647 15.5666 12.7185 15.6499 12.8451C15.7367 12.9682 15.8453 13.0677 15.9756 13.1437C16.1022 13.2233 16.247 13.2812 16.4098 13.3174C16.5727 13.35 16.7373 13.3663 16.9038 13.3663C17.1282 13.3663 17.3236 13.3427 17.4901 13.2957C17.6601 13.2486 17.7958 13.1853 17.8972 13.1057C17.9804 13.0406 18.0419 12.97 18.0817 12.894C18.1252 12.8144 18.1469 12.7275 18.1469 12.6334Z" fill="#8C8C8C"/>
<path d="M23.5426 13.2903C23.7055 13.2903 23.8611 13.2667 24.0094 13.2197C24.1614 13.169 24.2953 13.0985 24.4111 13.008C24.5233 12.9175 24.612 12.8108 24.6771 12.6877C24.7459 12.5647 24.7803 12.429 24.7803 12.2806H26.0016C26.0052 12.5665 25.9401 12.8361 25.8062 13.0894C25.6759 13.3391 25.4986 13.5544 25.2742 13.7354C25.0462 13.9236 24.7839 14.0719 24.4871 14.1805C24.194 14.2855 23.8846 14.3379 23.5589 14.3379C23.1065 14.3379 22.7103 14.2601 22.3701 14.1045C22.0335 13.9453 21.7531 13.7318 21.5287 13.464C21.3007 13.1962 21.1288 12.885 21.013 12.5303C20.8972 12.172 20.8393 11.7902 20.8393 11.3849V11.1949C20.8393 10.7932 20.8954 10.4133 21.0076 10.055C21.1234 9.69673 21.2953 9.3837 21.5233 9.1159C21.7513 8.8481 22.0335 8.6364 22.3701 8.48079C22.7103 8.32156 23.1047 8.24194 23.5535 8.24194C23.9081 8.24194 24.2356 8.29623 24.536 8.40479C24.84 8.51336 25.1005 8.66535 25.3177 8.86077C25.5348 9.05619 25.7031 9.28961 25.8225 9.56102C25.9455 9.83244 26.0052 10.131 26.0016 10.4567H24.7803C24.7803 10.2975 24.7495 10.1473 24.688 10.0061C24.6301 9.86501 24.5468 9.74196 24.4383 9.63702C24.3261 9.53207 24.1922 9.44884 24.0366 9.38731C23.8846 9.32579 23.7199 9.29503 23.5426 9.29503C23.2712 9.29503 23.045 9.35113 22.8641 9.46331C22.6867 9.57188 22.5456 9.71482 22.4407 9.89215C22.3285 10.0695 22.2489 10.2721 22.2018 10.5001C22.1584 10.7281 22.1367 10.9597 22.1367 11.1949V11.3849C22.1367 11.6238 22.1584 11.859 22.2018 12.0906C22.2489 12.3186 22.3267 12.5194 22.4352 12.6932C22.5402 12.8741 22.6831 13.0188 22.8641 13.1274C23.045 13.236 23.2712 13.2903 23.5426 13.2903Z" fill="#8C8C8C"/>
</g>
</g>
</svg>
