<svg width="99" height="43" viewBox="0 0 99 43" fill="none" xmlns="http://www.w3.org/2000/svg">
<rect y="1.9502" width="35.2434" height="35.2434" rx="2" fill="#176AE8"/>
<path d="M41.2316 18.5664V17.1188H46.6375V18.5664L45.4161 18.8379L47.6101 24.4474L48.4923 27.2295L49.3065 24.5152L51.2292 18.8153L49.8268 18.5664V17.1188H54.6672V18.5664L53.4458 18.8605L49.103 29.6497H46.9994L42.3173 18.7926L41.2316 18.5664ZM58.7992 10.9439C59.3572 10.9439 59.7794 11.0947 60.0659 11.3963C60.3675 11.6828 60.5183 12.0748 60.5183 12.5724C60.5183 13.1304 60.3147 13.5903 59.9076 13.9522C59.5004 14.3141 59.0254 14.495 58.4826 14.495C58.0151 14.495 57.608 14.3443 57.2611 14.0427C56.9294 13.7411 56.7635 13.349 56.7635 12.8665C56.7635 12.3387 56.9746 11.8863 57.3969 11.5094C57.8191 11.1324 58.2865 10.9439 58.7992 10.9439ZM60.2695 17.0736V28.0664L61.9885 28.3152V29.4688H55.8135V28.3152L57.5552 28.0664V19.8105L56.0623 18.7248V17.9105L59.6135 16.8474L60.2695 17.0736ZM74.7173 11.7808V28.3152H76.2327V29.2878C75.9613 29.4386 75.5768 29.5668 75.0792 29.6723C74.5816 29.7779 74.0689 29.8307 73.5411 29.8307C73.0586 29.8307 72.7117 29.7402 72.5006 29.5592C72.2895 29.3783 72.1538 29.0616 72.0935 28.6092C71.7617 28.9108 71.2641 29.1822 70.6006 29.4235C69.9522 29.6497 69.236 29.7628 68.4518 29.7628C67.532 29.7628 66.6951 29.514 65.9411 29.0164C65.1872 28.5188 64.584 27.8025 64.1316 26.8676C63.6943 25.9176 63.4757 24.7942 63.4757 23.4974C63.4757 22.2005 63.7697 21.0394 64.3578 20.0141C64.961 18.9887 65.7677 18.1895 66.778 17.6165C67.8034 17.0284 68.9268 16.7343 70.1483 16.7343C70.8268 16.7343 71.4225 16.8097 71.9351 16.9605V13.6581L69.5375 13.1832V11.9844L74.1292 11.5094L74.7173 11.7808ZM69.8542 18.0462C69.251 18.0462 68.678 18.2347 68.1352 18.6117C67.5923 18.9887 67.1475 19.5466 66.8007 20.2855C66.4689 21.0244 66.303 21.9216 66.303 22.9771C66.303 24.0025 66.4463 24.9073 66.7328 25.6914C67.0193 26.4755 67.4114 27.0787 67.909 27.5009C68.4217 27.9231 68.9947 28.1342 69.628 28.1342C70.0804 28.1342 70.5102 28.0739 70.9173 27.9533C71.3395 27.8327 71.6863 27.6592 71.9578 27.4331V18.7474C71.43 18.2799 70.7288 18.0462 69.8542 18.0462ZM81.0205 10.9439C81.5784 10.9439 82.0007 11.0947 82.2872 11.3963C82.5888 11.6828 82.7396 12.0748 82.7396 12.5724C82.7396 13.1304 82.536 13.5903 82.1288 13.9522C81.7217 14.3141 81.2467 14.495 80.7039 14.495C80.2364 14.495 79.8293 14.3443 79.4824 14.0427C79.1507 13.7411 78.9848 13.349 78.9848 12.8665C78.9848 12.3387 79.1959 11.8863 79.6181 11.5094C80.0404 11.1324 80.5078 10.9439 81.0205 10.9439ZM82.4907 17.0736V28.0664L84.2098 28.3152V29.4688H78.0348V28.3152L79.7765 28.0664V19.8105L78.2836 18.7248V17.9105L81.8348 16.8474L82.4907 17.0736ZM91.1934 16.8474C92.656 16.8474 93.787 17.1716 94.5862 17.82C95.3854 18.4684 95.785 19.5541 95.785 21.0771V28.3152H97.1874V29.2199C96.9159 29.3858 96.5616 29.514 96.1243 29.6045C95.687 29.71 95.2572 29.7628 94.835 29.7628C94.2921 29.7628 93.9001 29.6572 93.6588 29.4461C93.4176 29.2199 93.2894 28.858 93.2743 28.3604C92.4449 29.2953 91.2763 29.7628 89.7684 29.7628C88.9993 29.7628 88.3132 29.6195 87.7101 29.333C87.1069 29.0315 86.6394 28.6168 86.3077 28.089C85.9759 27.5612 85.8101 26.9656 85.8101 26.3021C85.8101 25.3069 86.1795 24.4851 86.9184 23.8366C87.6573 23.1882 88.5771 22.7208 89.6779 22.4343C90.7787 22.1327 91.887 21.9819 93.0029 21.9819V21.3033C93.0029 20.2779 92.7691 19.5617 92.3017 19.1545C91.8342 18.7474 91.1406 18.5438 90.2207 18.5438C89.7231 18.5438 89.1577 18.6268 88.5243 18.7926C87.891 18.9585 87.3406 19.1696 86.8732 19.426L86.3529 18.1819C86.8656 17.7597 87.597 17.4355 88.547 17.2093C89.512 16.968 90.3942 16.8474 91.1934 16.8474ZM93.0029 23.339C91.8719 23.339 90.8541 23.5426 89.9493 23.9497C89.0596 24.3569 88.6148 25.0053 88.6148 25.895C88.6148 27.3577 89.3914 28.089 90.9446 28.089C91.3065 28.089 91.6759 28.0136 92.0529 27.8628C92.4449 27.712 92.7541 27.5311 92.9803 27.32L93.0029 23.339Z" fill="#1561D6"/>
<path d="M12.3756 26.8862V11.4353L10.4846 11.2113V9.7185H23.5222L23.8705 13.4257H22.1288L21.3575 11.4353L15.4608 11.2362V18.0536L19.4666 17.9292L19.9393 16.0631H21.5317V21.5369H19.9393L19.4666 19.6708L15.4608 19.5962V27.0355L21.9796 26.7618L23.3231 24.2986L24.9652 24.647L24.393 28.5781H10.4349V27.2843L12.3756 26.8862Z" fill="white"/>
</svg>
