<svg width="175" height="251" viewBox="0 0 175 251" fill="none" xmlns="http://www.w3.org/2000/svg">
<circle cx="173" cy="15" r="2" transform="rotate(-180 173 15)" fill="#DAE7FB"/>
<circle cx="173" cy="145" r="2" transform="rotate(-180 173 145)" fill="#DAE7FB"/>
<circle cx="132" cy="15" r="2" transform="rotate(-90 132 15)" fill="#DAE7FB"/>
<circle cx="67" cy="15" r="2" transform="rotate(-90 67 15)" fill="#DAE7FB"/>
<circle cx="173" cy="41" r="2" transform="rotate(-180 173 41)" fill="#DAE7FB"/>
<circle cx="173" cy="171" r="2" transform="rotate(-180 173 171)" fill="#DAE7FB"/>
<circle cx="173" cy="93" r="2" transform="rotate(-180 173 93)" fill="#DAE7FB"/>
<circle cx="173" cy="223" r="2" transform="rotate(-180 173 223)" fill="#DAE7FB"/>
<circle cx="147" cy="69" r="2" transform="rotate(-180 147 69)" fill="#DAE7FB"/>
<circle cx="147" cy="147" r="2" transform="rotate(-180 147 147)" fill="#DAE7FB"/>
<circle cx="106" cy="15" r="2" transform="rotate(-90 106 15)" fill="#DAE7FB"/>
<circle cx="41" cy="15" r="2" transform="rotate(-90 41 15)" fill="#DAE7FB"/>
<circle cx="106" cy="41" r="2" transform="rotate(-90 106 41)" fill="#DAE7FB"/>
<circle cx="173" cy="67" r="2" transform="rotate(-180 173 67)" fill="#DAE7FB"/>
<circle cx="173" cy="197" r="2" transform="rotate(-180 173 197)" fill="#DAE7FB"/>
<circle cx="147" cy="43" r="2" transform="rotate(-180 147 43)" fill="#DAE7FB"/>
<circle cx="147" cy="121" r="2" transform="rotate(-180 147 121)" fill="#DAE7FB"/>
<circle cx="173" cy="119" r="2" transform="rotate(-180 173 119)" fill="#DAE7FB"/>
<circle cx="173" cy="249" r="2" transform="rotate(-180 173 249)" fill="#DAE7FB"/>
<circle cx="147" cy="95" r="2" transform="rotate(-180 147 95)" fill="#DAE7FB"/>
<circle cx="147" cy="173" r="2" transform="rotate(-180 147 173)" fill="#DAE7FB"/>
<circle cx="80" cy="15" r="2" transform="rotate(-90 80 15)" fill="#DAE7FB"/>
<circle cx="15" cy="15" r="2" transform="rotate(-90 15 15)" fill="#DAE7FB"/>
<circle cx="173" cy="2" r="2" transform="rotate(-180 173 2)" fill="#DAE7FB"/>
<circle cx="173" cy="132" r="2" transform="rotate(-180 173 132)" fill="#DAE7FB"/>
<circle cx="145" cy="15" r="2" transform="rotate(-90 145 15)" fill="#DAE7FB"/>
<circle cx="173" cy="28" r="2" transform="rotate(-180 173 28)" fill="#DAE7FB"/>
<circle cx="173" cy="158" r="2" transform="rotate(-180 173 158)" fill="#DAE7FB"/>
<circle cx="173" cy="80" r="2" transform="rotate(-180 173 80)" fill="#DAE7FB"/>
<circle cx="173" cy="210" r="2" transform="rotate(-180 173 210)" fill="#DAE7FB"/>
<circle cx="147" cy="56" r="2" transform="rotate(-180 147 56)" fill="#DAE7FB"/>
<circle cx="147" cy="134" r="2" transform="rotate(-180 147 134)" fill="#DAE7FB"/>
<circle cx="119" cy="15" r="2" transform="rotate(-90 119 15)" fill="#DAE7FB"/>
<circle cx="54" cy="15" r="2" transform="rotate(-90 54 15)" fill="#DAE7FB"/>
<circle cx="119" cy="41" r="2" transform="rotate(-90 119 41)" fill="#DAE7FB"/>
<circle cx="173" cy="54" r="2" transform="rotate(-180 173 54)" fill="#DAE7FB"/>
<circle cx="173" cy="184" r="2" transform="rotate(-180 173 184)" fill="#DAE7FB"/>
<circle cx="147" cy="30" r="2" transform="rotate(-180 147 30)" fill="#DAE7FB"/>
<circle cx="147" cy="108" r="2" transform="rotate(-180 147 108)" fill="#DAE7FB"/>
<circle cx="173" cy="106" r="2" transform="rotate(-180 173 106)" fill="#DAE7FB"/>
<circle cx="173" cy="236" r="2" transform="rotate(-180 173 236)" fill="#DAE7FB"/>
<circle cx="147" cy="82" r="2" transform="rotate(-180 147 82)" fill="#DAE7FB"/>
<circle cx="147" cy="160" r="2" transform="rotate(-180 147 160)" fill="#DAE7FB"/>
<circle cx="93" cy="15" r="2" transform="rotate(-90 93 15)" fill="#DAE7FB"/>
<circle cx="28" cy="15" r="2" transform="rotate(-90 28 15)" fill="#DAE7FB"/>
<circle cx="160" cy="2" r="2" transform="rotate(-180 160 2)" fill="#DAE7FB"/>
<circle cx="145" cy="2" r="2" transform="rotate(-90 145 2)" fill="#DAE7FB"/>
<circle cx="67" cy="2" r="2" transform="rotate(-90 67 2)" fill="#DAE7FB"/>
<circle cx="160" cy="28" r="2" transform="rotate(-180 160 28)" fill="#DAE7FB"/>
<circle cx="160" cy="80" r="2" transform="rotate(-180 160 80)" fill="#DAE7FB"/>
<circle cx="160" cy="158" r="2" transform="rotate(-180 160 158)" fill="#DAE7FB"/>
<circle cx="134" cy="56" r="2" transform="rotate(-180 134 56)" fill="#DAE7FB"/>
<circle cx="119" cy="2" r="2" transform="rotate(-90 119 2)" fill="#DAE7FB"/>
<circle cx="41" cy="2" r="2" transform="rotate(-90 41 2)" fill="#DAE7FB"/>
<circle cx="119" cy="28" r="2" transform="rotate(-90 119 28)" fill="#DAE7FB"/>
<circle cx="80" cy="28" r="2" transform="rotate(-90 80 28)" fill="#DAE7FB"/>
<circle cx="160" cy="54" r="2" transform="rotate(-180 160 54)" fill="#DAE7FB"/>
<circle cx="160" cy="132" r="2" transform="rotate(-180 160 132)" fill="#DAE7FB"/>
<circle cx="134" cy="30" r="2" transform="rotate(-180 134 30)" fill="#DAE7FB"/>
<circle cx="95" cy="30" r="2" transform="rotate(-180 95 30)" fill="#DAE7FB"/>
<circle cx="160" cy="106" r="2" transform="rotate(-180 160 106)" fill="#DAE7FB"/>
<circle cx="160" cy="184" r="2" transform="rotate(-180 160 184)" fill="#DAE7FB"/>
<circle cx="134" cy="82" r="2" transform="rotate(-180 134 82)" fill="#DAE7FB"/>
<circle cx="93" cy="2" r="2" transform="rotate(-90 93 2)" fill="#DAE7FB"/>
<circle cx="15" cy="2" r="2" transform="rotate(-90 15 2)" fill="#DAE7FB"/>
<circle cx="160" cy="15" r="2" transform="rotate(-180 160 15)" fill="#DAE7FB"/>
<circle cx="132" cy="2" r="2" transform="rotate(-90 132 2)" fill="#DAE7FB"/>
<circle cx="54" cy="2" r="2" transform="rotate(-90 54 2)" fill="#DAE7FB"/>
<circle cx="160" cy="41" r="2" transform="rotate(-180 160 41)" fill="#DAE7FB"/>
<circle cx="160" cy="93" r="2" transform="rotate(-180 160 93)" fill="#DAE7FB"/>
<circle cx="160" cy="171" r="2" transform="rotate(-180 160 171)" fill="#DAE7FB"/>
<circle cx="134" cy="69" r="2" transform="rotate(-180 134 69)" fill="#DAE7FB"/>
<circle cx="106" cy="2" r="2" transform="rotate(-90 106 2)" fill="#DAE7FB"/>
<circle cx="28" cy="2" r="2" transform="rotate(-90 28 2)" fill="#DAE7FB"/>
<circle cx="106" cy="28" r="2" transform="rotate(-90 106 28)" fill="#DAE7FB"/>
<circle cx="67" cy="28" r="2" transform="rotate(-90 67 28)" fill="#DAE7FB"/>
<circle cx="160" cy="67" r="2" transform="rotate(-180 160 67)" fill="#DAE7FB"/>
<circle cx="160" cy="145" r="2" transform="rotate(-180 160 145)" fill="#DAE7FB"/>
<circle cx="134" cy="43" r="2" transform="rotate(-180 134 43)" fill="#DAE7FB"/>
<circle cx="160" cy="119" r="2" transform="rotate(-180 160 119)" fill="#DAE7FB"/>
<circle cx="160" cy="197" r="2" transform="rotate(-180 160 197)" fill="#DAE7FB"/>
<circle cx="134" cy="95" r="2" transform="rotate(-180 134 95)" fill="#DAE7FB"/>
<circle cx="80" cy="2" r="2" transform="rotate(-90 80 2)" fill="#DAE7FB"/>
<circle cx="2" cy="2" r="2" transform="rotate(-90 2 2)" fill="#DAE7FB"/>
</svg>
