<svg width="175" height="251" viewBox="0 0 175 251" fill="none" xmlns="http://www.w3.org/2000/svg">
<circle cx="2" cy="236" r="2" fill="#DAE7FB"/>
<circle cx="2" cy="106" r="2" fill="#DAE7FB"/>
<circle cx="43" cy="236" r="2" transform="rotate(90 43 236)" fill="#DAE7FB"/>
<circle cx="108" cy="236" r="2" transform="rotate(90 108 236)" fill="#DAE7FB"/>
<circle cx="2" cy="210" r="2" fill="#DAE7FB"/>
<circle cx="2" cy="80" r="2" fill="#DAE7FB"/>
<circle cx="2" cy="158" r="2" fill="#DAE7FB"/>
<circle cx="2" cy="28" r="2" fill="#DAE7FB"/>
<circle cx="28" cy="182" r="2" fill="#DAE7FB"/>
<circle cx="28" cy="104" r="2" fill="#DAE7FB"/>
<circle cx="69" cy="236" r="2" transform="rotate(90 69 236)" fill="#DAE7FB"/>
<circle cx="134" cy="236" r="2" transform="rotate(90 134 236)" fill="#DAE7FB"/>
<circle cx="69" cy="210" r="2" transform="rotate(90 69 210)" fill="#DAE7FB"/>
<circle cx="2" cy="184" r="2" fill="#DAE7FB"/>
<circle cx="2" cy="54" r="2" fill="#DAE7FB"/>
<circle cx="28" cy="208" r="2" fill="#DAE7FB"/>
<circle cx="28" cy="130" r="2" fill="#DAE7FB"/>
<circle cx="2" cy="132" r="2" fill="#DAE7FB"/>
<circle cx="2" cy="2" r="2" fill="#DAE7FB"/>
<circle cx="28" cy="156" r="2" fill="#DAE7FB"/>
<circle cx="28" cy="78" r="2" fill="#DAE7FB"/>
<circle cx="95" cy="236" r="2" transform="rotate(90 95 236)" fill="#DAE7FB"/>
<circle cx="160" cy="236" r="2" transform="rotate(90 160 236)" fill="#DAE7FB"/>
<circle cx="2" cy="249" r="2" fill="#DAE7FB"/>
<circle cx="2" cy="119" r="2" fill="#DAE7FB"/>
<circle cx="30" cy="236" r="2" transform="rotate(90 30 236)" fill="#DAE7FB"/>
<circle cx="2" cy="223" r="2" fill="#DAE7FB"/>
<circle cx="2" cy="93" r="2" fill="#DAE7FB"/>
<circle cx="2" cy="171" r="2" fill="#DAE7FB"/>
<circle cx="2" cy="41" r="2" fill="#DAE7FB"/>
<circle cx="28" cy="195" r="2" fill="#DAE7FB"/>
<circle cx="28" cy="117" r="2" fill="#DAE7FB"/>
<circle cx="56" cy="236" r="2" transform="rotate(90 56 236)" fill="#DAE7FB"/>
<circle cx="121" cy="236" r="2" transform="rotate(90 121 236)" fill="#DAE7FB"/>
<circle cx="56" cy="210" r="2" transform="rotate(90 56 210)" fill="#DAE7FB"/>
<circle cx="2" cy="197" r="2" fill="#DAE7FB"/>
<circle cx="2" cy="67" r="2" fill="#DAE7FB"/>
<circle cx="28" cy="221" r="2" fill="#DAE7FB"/>
<circle cx="28" cy="143" r="2" fill="#DAE7FB"/>
<circle cx="2" cy="145" r="2" fill="#DAE7FB"/>
<circle cx="2" cy="15" r="2" fill="#DAE7FB"/>
<circle cx="28" cy="169" r="2" fill="#DAE7FB"/>
<circle cx="28" cy="91" r="2" fill="#DAE7FB"/>
<circle cx="82" cy="236" r="2" transform="rotate(90 82 236)" fill="#DAE7FB"/>
<circle cx="147" cy="236" r="2" transform="rotate(90 147 236)" fill="#DAE7FB"/>
<circle cx="15" cy="249" r="2" fill="#DAE7FB"/>
<circle cx="30" cy="249" r="2" transform="rotate(90 30 249)" fill="#DAE7FB"/>
<circle cx="108" cy="249" r="2" transform="rotate(90 108 249)" fill="#DAE7FB"/>
<circle cx="15" cy="223" r="2" fill="#DAE7FB"/>
<circle cx="15" cy="171" r="2" fill="#DAE7FB"/>
<circle cx="15" cy="93" r="2" fill="#DAE7FB"/>
<circle cx="41" cy="195" r="2" fill="#DAE7FB"/>
<circle cx="56" cy="249" r="2" transform="rotate(90 56 249)" fill="#DAE7FB"/>
<circle cx="134" cy="249" r="2" transform="rotate(90 134 249)" fill="#DAE7FB"/>
<circle cx="56" cy="223" r="2" transform="rotate(90 56 223)" fill="#DAE7FB"/>
<circle cx="95" cy="223" r="2" transform="rotate(90 95 223)" fill="#DAE7FB"/>
<circle cx="15" cy="197" r="2" fill="#DAE7FB"/>
<circle cx="15" cy="119" r="2" fill="#DAE7FB"/>
<circle cx="41" cy="221" r="2" fill="#DAE7FB"/>
<circle cx="80" cy="221" r="2" fill="#DAE7FB"/>
<circle cx="15" cy="145" r="2" fill="#DAE7FB"/>
<circle cx="15" cy="67" r="2" fill="#DAE7FB"/>
<circle cx="41" cy="169" r="2" fill="#DAE7FB"/>
<circle cx="82" cy="249" r="2" transform="rotate(90 82 249)" fill="#DAE7FB"/>
<circle cx="160" cy="249" r="2" transform="rotate(90 160 249)" fill="#DAE7FB"/>
<circle cx="15" cy="236" r="2" fill="#DAE7FB"/>
<circle cx="43" cy="249" r="2" transform="rotate(90 43 249)" fill="#DAE7FB"/>
<circle cx="121" cy="249" r="2" transform="rotate(90 121 249)" fill="#DAE7FB"/>
<circle cx="15" cy="210" r="2" fill="#DAE7FB"/>
<circle cx="15" cy="158" r="2" fill="#DAE7FB"/>
<circle cx="15" cy="80" r="2" fill="#DAE7FB"/>
<circle cx="41" cy="182" r="2" fill="#DAE7FB"/>
<circle cx="69" cy="249" r="2" transform="rotate(90 69 249)" fill="#DAE7FB"/>
<circle cx="147" cy="249" r="2" transform="rotate(90 147 249)" fill="#DAE7FB"/>
<circle cx="69" cy="223" r="2" transform="rotate(90 69 223)" fill="#DAE7FB"/>
<circle cx="108" cy="223" r="2" transform="rotate(90 108 223)" fill="#DAE7FB"/>
<circle cx="15" cy="184" r="2" fill="#DAE7FB"/>
<circle cx="15" cy="106" r="2" fill="#DAE7FB"/>
<circle cx="41" cy="208" r="2" fill="#DAE7FB"/>
<circle cx="15" cy="132" r="2" fill="#DAE7FB"/>
<circle cx="15" cy="54" r="2" fill="#DAE7FB"/>
<circle cx="41" cy="156" r="2" fill="#DAE7FB"/>
<circle cx="95" cy="249" r="2" transform="rotate(90 95 249)" fill="#DAE7FB"/>
<circle cx="173" cy="249" r="2" transform="rotate(90 173 249)" fill="#DAE7FB"/>
</svg>
