<svg width="212" height="212" viewBox="0 0 212 212" fill="none" xmlns="http://www.w3.org/2000/svg">
<rect width="212" height="212" />
<path d="M63.8306 29.1267H19.6036C17.7741 29.1267 16.2911 30.6098 16.2911 32.4392L16.291 76.6663C16.291 78.4957 17.7741 79.9788 19.6035 79.9788H63.8306C65.66 79.9788 67.1431 78.4957 67.1431 76.6663V32.4392C67.1431 30.6098 65.66 29.1267 63.8306 29.1267Z" fill="#E4EBF7"/>
<path d="M192.617 95.7778H178.797C176.968 95.7778 175.485 97.2609 175.485 99.0903L175.485 112.91C175.485 114.739 176.968 116.222 178.797 116.222H192.617C194.446 116.222 195.929 114.739 195.929 112.91V99.0903C195.929 97.2609 194.446 95.7778 192.617 95.7778Z" fill="#E4EBF7"/>
<path d="M192.785 131.84H189.188C187.358 131.84 185.875 133.323 185.875 135.153L185.875 138.75C185.875 140.579 187.358 142.062 189.188 142.062H192.785C194.614 142.062 196.097 140.579 196.097 138.75V135.153C196.097 133.323 194.614 131.84 192.785 131.84Z" fill="#FF7946"/>
<path d="M53.2456 87.5354H49.6484C47.819 87.5354 46.3359 89.0185 46.3359 90.8479L46.3359 94.4451C46.3359 96.2745 47.819 97.7576 49.6484 97.7576H53.2456C55.0751 97.7576 56.5581 96.2745 56.5581 94.4451V90.8479C56.5581 89.0185 55.0751 87.5354 53.2456 87.5354Z" fill="#FAAD14"/>
<path fill-rule="evenodd" clip-rule="evenodd" d="M171.127 71.2568H54.9897V60.8505C54.9897 58.5932 56.82 56.7629 59.0773 56.7629H167.039C169.297 56.7629 171.127 58.5932 171.127 60.8505V71.2568Z" fill="#253368"/>
<path fill-rule="evenodd" clip-rule="evenodd" d="M167.039 171.453H59.0773C56.82 171.453 54.9897 169.623 54.9897 167.366V70.0378H171.127V167.366C171.127 169.623 169.297 171.453 167.039 171.453Z" fill="#E4EBF7"/>
<path fill-rule="evenodd" clip-rule="evenodd" d="M64.4279 63.5082C64.4279 64.9248 63.2793 66.0735 61.8625 66.0735C60.4458 66.0735 59.2974 64.9248 59.2974 63.5082C59.2974 62.0915 60.4458 60.9429 61.8625 60.9429C63.2793 60.9429 64.4279 62.0915 64.4279 63.5082Z" fill="#FF7946"/>
<path fill-rule="evenodd" clip-rule="evenodd" d="M74.0079 63.5082C74.0079 64.9248 72.8594 66.0735 71.4426 66.0735C70.0259 66.0735 68.8774 64.9248 68.8774 63.5082C68.8774 62.0915 70.0259 60.9429 71.4426 60.9429C72.8594 60.9429 74.0079 62.0915 74.0079 63.5082Z" fill="#FAAD14"/>
<path fill-rule="evenodd" clip-rule="evenodd" d="M83.5884 63.5082C83.5884 64.9248 82.44 66.0735 81.0231 66.0735C79.6064 66.0735 78.458 64.9248 78.458 63.5082C78.458 62.0915 79.6064 60.9429 81.0231 60.9429C82.44 60.9429 83.5884 62.0915 83.5884 63.5082Z" fill="#7CB305"/>
<path fill-rule="evenodd" clip-rule="evenodd" d="M67.5421 157.658C66.8375 157.658 66.2666 157.088 66.2666 156.384V82.5001C66.2666 81.7962 66.8375 81.2256 67.5421 81.2256H159.843C160.548 81.2256 161.119 81.7962 161.119 82.5001V156.384C161.119 157.088 160.548 157.658 159.843 157.658H67.5421Z" fill="white"/>
<path fill-rule="evenodd" clip-rule="evenodd" d="M129.569 124.118C124.03 124.118 119.529 119.598 119.529 114.009C119.51 108.455 123.996 103.938 129.55 103.918C129.556 103.918 129.563 103.918 129.569 103.918C135.105 103.918 139.606 108.438 139.606 114.024C139.596 119.598 135.105 124.114 129.569 124.118ZM154.549 110.493C154.354 109.392 153.299 108.265 152.198 108.023L151.376 107.834C149.382 107.229 147.693 105.886 146.655 104.079C145.607 102.253 145.296 100.096 145.787 98.0487L146.045 97.2746C146.375 96.2013 145.947 94.7191 145.088 93.9858C145.088 93.9858 144.317 93.3312 142.152 92.0722C139.977 90.8197 139.045 90.4702 139.045 90.4702C137.988 90.08 136.509 90.4545 135.734 91.279L135.165 91.8928C133.66 93.3327 131.655 94.1325 129.572 94.1243C127.478 94.1301 125.463 93.3235 123.951 91.8739L123.404 91.276C122.642 90.4515 121.153 90.0863 120.092 90.4702C120.092 90.4702 119.148 90.8197 116.977 92.0722C114.802 93.3405 114.037 93.9952 114.037 93.9952C113.181 94.7221 112.753 96.1889 113.084 97.2746L113.32 98.0583C113.805 100.103 113.495 102.255 112.451 104.079C111.415 105.901 109.712 107.25 107.702 107.843L106.912 108.023C105.829 108.274 104.762 109.385 104.561 110.493C104.561 110.493 104.381 111.488 104.381 114.012C104.381 116.536 104.561 117.527 104.561 117.527C104.756 118.641 105.81 119.755 106.912 119.998L107.683 120.177C109.697 120.772 111.403 122.125 112.438 123.954C113.521 125.852 113.782 128.011 113.307 129.984L113.084 130.749C112.753 131.822 113.181 133.304 114.04 134.038C114.04 134.038 114.811 134.692 116.977 135.951C119.151 137.21 120.086 137.553 120.086 137.553C121.141 137.943 122.623 137.569 123.397 136.744L123.938 136.159C127.086 133.147 132.046 133.15 135.19 136.165L135.731 136.754C136.493 137.575 137.982 137.943 139.042 137.56C139.042 137.56 139.986 137.21 142.161 135.958C144.333 134.699 145.094 134.044 145.094 134.044C145.953 133.32 146.382 131.841 146.051 130.755L145.815 129.962C145.328 127.925 145.639 125.778 146.684 123.963C147.725 122.141 149.428 120.788 151.439 120.187L152.213 120.007C153.296 119.755 154.363 118.644 154.564 117.537C154.564 117.537 154.744 116.542 154.744 114.021C154.725 111.494 154.549 110.493 154.549 110.493Z" fill="#597EF7"/>
<path fill-rule="evenodd" clip-rule="evenodd" d="M94.852 136.891C92.386 138.293 89.2384 137.42 87.8234 134.932C86.4093 132.464 87.2629 129.318 89.7306 127.903L89.739 127.899C92.2034 126.497 95.3512 127.37 96.7652 129.857C98.172 132.341 97.3158 135.488 94.852 136.891ZM102.524 124.502C102.158 124.061 101.404 123.826 100.852 123.997L100.438 124.121C99.3974 124.357 98.3058 124.187 97.3863 123.645C96.4574 123.098 95.7727 122.216 95.473 121.18L95.3921 120.77C95.2674 120.209 94.7016 119.657 94.1336 119.548C94.1336 119.548 93.6245 119.452 92.3421 119.44C91.0567 119.433 90.5536 119.513 90.5536 119.513C89.984 119.607 89.4201 120.148 89.2844 120.711L89.186 121.128C88.8804 122.15 88.1905 123.014 87.2612 123.537C86.3303 124.07 85.229 124.221 84.1892 123.958L83.7939 123.831C83.246 123.657 82.491 123.871 82.1162 124.31C82.1162 124.31 81.784 124.705 81.1345 125.812C80.4873 126.927 80.3125 127.412 80.3125 127.412C80.1156 127.953 80.2962 128.714 80.7182 129.114L81.0215 129.403C81.7553 130.19 82.1618 131.227 82.1591 132.303C82.1587 133.377 81.7423 134.408 80.9974 135.181L80.6911 135.461C80.2728 135.847 80.0792 136.612 80.2699 137.156C80.2699 137.156 80.442 137.644 81.0808 138.768C81.7198 139.891 82.0506 140.287 82.0506 140.287C82.4195 140.734 83.1707 140.963 83.7224 140.792L84.1112 140.677C85.1585 140.432 86.2606 140.602 87.1842 141.154C88.1467 141.725 88.8094 142.62 89.0974 143.619L89.1916 144.016C89.3161 144.577 89.8819 145.129 90.45 145.238C90.45 145.238 90.9591 145.334 92.2418 145.347C93.5285 145.357 94.0316 145.273 94.0316 145.273C94.5998 145.18 95.1647 144.638 95.3008 144.074L95.3936 143.677C96.0323 141.539 98.2411 140.285 100.404 140.831L100.794 140.956C101.341 141.129 102.097 140.916 102.472 140.477C102.472 140.477 102.804 140.083 103.455 138.974C104.103 137.864 104.276 137.38 104.276 137.38C104.476 136.84 104.292 136.073 103.87 135.674L103.564 135.38C102.831 134.597 102.426 133.563 102.432 132.49C102.434 131.415 102.85 130.382 103.593 129.605L103.893 129.329C104.311 128.943 104.505 128.178 104.314 127.634C104.314 127.634 104.142 127.146 103.504 126.024C102.856 124.903 102.524 124.502 102.524 124.502Z" fill="#9254DC"/>
<path fill-rule="evenodd" clip-rule="evenodd" d="M90.7102 94.3202H76.5936C75.6715 94.3202 74.917 93.5657 74.917 92.6436V92.5029C74.917 91.5807 75.6715 90.8262 76.5936 90.8262H90.7102C91.6323 90.8262 92.3868 91.5807 92.3868 92.5029V92.6436C92.3868 93.5657 91.6323 94.3202 90.7102 94.3202Z" fill="#ADC6FF"/>
<path fill-rule="evenodd" clip-rule="evenodd" d="M86.7612 102.495H78.0264C77.0616 102.495 76.2793 101.713 76.2793 100.748C76.2793 99.7835 77.0616 99.0012 78.0264 99.0012H86.7612C87.726 99.0012 88.5081 99.7835 88.5081 100.748C88.5081 101.713 87.726 102.495 86.7612 102.495Z" fill="#ADC6FF"/>
<path fill-rule="evenodd" clip-rule="evenodd" d="M163.141 135.612C149.538 135.612 138.51 146.639 138.51 160.242C138.51 173.845 149.538 184.872 163.141 184.872C176.743 184.872 187.771 173.845 187.771 160.242C187.771 146.639 176.743 135.612 163.141 135.612Z" fill="#8BBC06"/>
<path fill-rule="evenodd" clip-rule="evenodd" d="M159.172 168.609L157.617 167.054L172.685 151.93C173.2 151.415 174.036 151.415 174.551 151.93L175.173 152.552C175.688 153.068 175.688 153.903 175.173 154.418L161.038 168.609C160.522 169.124 159.687 169.124 159.172 168.609Z" fill="white"/>
<path fill-rule="evenodd" clip-rule="evenodd" d="M162.59 167.054L161.035 168.609C160.52 169.124 159.685 169.124 159.169 168.609L152.977 162.417C152.462 161.902 152.462 161.066 152.977 160.551L153.599 159.929C154.115 159.414 154.95 159.414 155.465 159.929L162.59 167.054Z" fill="white"/>
</svg>
