<svg width="212" height="207" viewBox="0 0 212 207" fill="none" xmlns="http://www.w3.org/2000/svg">
<rect width="211.312" height="206" transform="translate(0 0.248047)" />
<path d="M63.6129 28.5505H19.5508C17.7214 28.5505 16.2383 30.0336 16.2383 31.863L16.2383 74.6509C16.2383 76.4803 17.7213 77.9634 19.5508 77.9634H63.6129C65.4423 77.9634 66.9254 76.4803 66.9254 74.6509V31.863C66.9254 30.0336 65.4423 28.5505 63.6129 28.5505Z" fill="#E4EBF7"/>
<path d="M191.982 93.3152H178.229C176.399 93.3152 174.916 94.7982 174.916 96.6277L174.916 109.868C174.916 111.698 176.399 113.181 178.229 113.181H191.982C193.811 113.181 195.294 111.698 195.294 109.868V96.6277C195.294 94.7982 193.811 93.3152 191.982 93.3152Z" fill="#E4EBF7"/>
<path d="M192.149 128.357H188.585C186.756 128.357 185.272 129.84 185.272 131.669L185.272 134.977C185.272 136.807 186.756 138.29 188.585 138.29H192.149C193.978 138.29 195.461 136.807 195.461 134.977V131.669C195.461 129.84 193.978 128.357 192.149 128.357Z" fill="#FF7946"/>
<path d="M53.0621 85.3062H49.4981C47.6686 85.3062 46.1856 86.7892 46.1856 88.6186L46.1856 91.9265C46.1855 93.756 47.6686 95.239 49.498 95.239H53.0621C54.8915 95.239 56.3746 93.756 56.3746 91.9265V88.6187C56.3746 86.7892 54.8915 85.3062 53.0621 85.3062Z" fill="#EFDBFF"/>
<path fill-rule="evenodd" clip-rule="evenodd" d="M162.612 132.022C149.053 132.022 138.062 142.737 138.062 155.955C138.062 169.173 149.053 179.888 162.612 179.888C176.171 179.888 187.162 169.173 187.162 155.955C187.162 142.737 176.171 132.022 162.612 132.022Z" fill="#8BBC06"/>
<path fill-rule="evenodd" clip-rule="evenodd" d="M158.655 164.085L157.105 162.574L172.125 147.878C172.639 147.378 173.471 147.378 173.985 147.878L174.605 148.483C175.119 148.984 175.119 149.795 174.605 150.296L160.515 164.085C160.002 164.586 159.169 164.586 158.655 164.085Z" fill="white"/>
<path fill-rule="evenodd" clip-rule="evenodd" d="M162.063 162.574L160.513 164.085C159.999 164.586 159.166 164.586 158.653 164.085L152.481 158.068C151.967 157.568 151.967 156.756 152.481 156.255L153.101 155.651C153.615 155.15 154.447 155.15 154.961 155.651L162.063 162.574Z" fill="white"/>
<g clip-path="url(#clip0_175873_219874)">
<path d="M29.2773 155.974L39.244 163.901" stroke="#E4EBF7" stroke-width="0.329044" stroke-linecap="round"/>
<path d="M28.7703 157.611C30.2491 156.966 30.911 155.262 30.2487 153.807C29.5865 152.351 27.8508 151.694 26.372 152.34C24.8932 152.985 24.2312 154.688 24.8935 156.144C25.5558 157.6 27.2914 158.257 28.7703 157.611Z" fill="#E4EBF7"/>
<path d="M60.0974 150.258C61.5762 149.613 62.2382 147.909 61.5759 146.453C60.9136 144.998 59.1779 144.341 57.6991 144.986C56.2203 145.632 55.5584 147.335 56.2206 148.791C56.8829 150.247 58.6186 150.903 60.0974 150.258Z" fill="#E4EBF7"/>
<path d="M43.3535 165.744L46.1137 142.205" stroke="#E4EBF7" stroke-width="0.329044" stroke-linecap="round"/>
<path d="M42.1358 163.113C43.6146 162.467 45.3503 163.124 46.0126 164.58C46.6748 166.035 46.0129 167.739 44.5341 168.384C43.0553 169.03 41.3196 168.373 40.6573 166.917C39.995 165.461 40.657 163.758 42.1358 163.113Z" fill="#E4EBF7"/>
<path d="M46.7402 137.587L55.6416 145.052" stroke="#E4EBF7" stroke-width="0.329044" stroke-linecap="round"/>
<path d="M49.477 138.616C48.8949 140.095 47.1969 140.837 45.6844 140.271C44.1719 139.706 43.4176 138.048 43.9997 136.568C44.5818 135.088 46.2798 134.347 47.7924 134.913C49.3049 135.478 50.0591 137.136 49.477 138.616Z" fill="#E4EBF7"/>
</g>
<path d="M167.35 72.3855H57.8148C55.7392 72.3855 54.0566 74.0258 54.0566 76.0492V150.264C54.0566 152.288 55.7392 153.928 57.8148 153.928H167.35C169.426 153.928 171.108 152.288 171.108 150.264V76.0492C171.108 74.0258 169.426 72.3855 167.35 72.3855Z" fill="#FFC44E"/>
<path d="M57.1647 75.3115C55.4489 75.3115 54.0566 76.7905 54.0566 78.614L54.0763 88.3378L109.912 122.664C112.108 124.151 115.021 124.151 117.217 122.664L171.219 88.3378L171.239 78.614C171.239 76.7905 169.848 75.3115 168.13 75.3115H57.1647Z" fill="#D29927"/>
<path d="M57.1647 72.3855C55.4489 72.3855 54.0566 73.8645 54.0566 75.688L54.0763 85.4117L109.912 119.738C112.108 121.225 115.021 121.225 117.217 119.738L171.219 85.4117L171.239 75.688C171.239 73.8645 169.848 72.3855 168.13 72.3855H57.1647Z" fill="#F2C94C"/>
<path fill-rule="evenodd" clip-rule="evenodd" d="M162.721 132.674C149.162 132.674 138.171 143.39 138.171 156.607C138.171 169.825 149.162 180.541 162.721 180.541C176.28 180.541 187.272 169.825 187.272 156.607C187.272 143.39 176.28 132.674 162.721 132.674Z" fill="#8BBC06"/>
<path fill-rule="evenodd" clip-rule="evenodd" d="M158.766 164.737L157.216 163.226L172.235 148.531C172.749 148.03 173.582 148.03 174.095 148.531L174.715 149.135C175.229 149.636 175.229 150.448 174.715 150.948L160.626 164.737C160.112 165.238 159.279 165.238 158.766 164.737Z" fill="white"/>
<path fill-rule="evenodd" clip-rule="evenodd" d="M162.173 163.226L160.623 164.737C160.109 165.238 159.277 165.238 158.763 164.737L152.591 158.721C152.078 158.22 152.078 157.408 152.591 156.907L153.211 156.303C153.725 155.802 154.558 155.802 155.071 156.303L162.173 163.226Z" fill="white"/>
<defs>
<clipPath id="clip0_175873_219874">
<rect width="48.2565" height="49.0049" fill="white" transform="matrix(0.366075 -0.930585 0.936682 0.35018 11.6523 165.574)"/>
</clipPath>
</defs>
</svg>
