<svg width="349" height="306" viewBox="0 0 349 306" fill="none" xmlns="http://www.w3.org/2000/svg">
<path d="M54.3904 99.2081L51.4974 98.9572C51.2527 98.0714 50.9008 97.2188 50.4494 96.4184L53.1948 93.1563L49.18 89.1414M53.1948 111.171L50.4494 107.909C50.9008 107.106 51.2527 106.251 51.4974 105.363L55.7484 105.002V99.3262M45.9031 112.441L49.1578 115.179L51.8885 112.448M28.8252 105.363C29.0731 106.25 29.4249 107.105 29.8732 107.909L27.1352 111.171L31.1426 115.179L34.4047 112.441C35.2092 112.889 36.0639 113.241 36.9509 113.489L37.3125 117.74H42.9879L43.3569 113.489M28.7957 91.5179L27.1352 93.1858L29.8732 96.4479C29.4249 97.2498 29.0731 98.102 28.8252 98.9867L24.5742 99.3557V105.031L27.1352 105.282M45.9031 91.8869C45.098 91.4398 44.2435 91.0881 43.3569 90.8389L42.9879 86.5879H37.3125L36.9509 90.8389C36.0639 91.0868 35.2092 91.4386 34.4047 91.8869L31.1426 89.1414L29.8659 90.4182M35.6224 97.3704C36.3958 96.6392 37.3346 96.1059 38.3587 95.8161C39.3828 95.5263 40.4619 95.4885 41.5037 95.706C42.5456 95.9236 43.5194 96.3899 44.342 97.0652C45.1646 97.7406 45.8116 98.6049 46.2279 99.5845M37.8734 108.352C36.6082 107.884 35.5167 107.04 34.7461 105.933C33.9754 104.826 33.5627 103.509 33.5634 102.16M46.7445 102.16C46.7445 103.908 46.0501 105.584 44.8141 106.82C43.5782 108.056 41.9018 108.751 40.1539 108.751" stroke="#263238" stroke-width="0.209222" stroke-linecap="round" stroke-linejoin="round"/>
<path d="M310.486 25.2434L305.895 24.8448C305.502 23.4375 304.942 22.0822 304.227 20.8078L308.582 15.6417L302.213 9.27251M308.582 44.2253L304.227 39.0592C304.942 37.7849 305.502 36.4296 305.895 35.0222L312.633 34.4391V25.4279M297.046 46.2328L302.213 50.5871L306.545 46.2549M288.552 54.6167H292.382L292.965 47.8786M269.894 12.9922L267.252 15.6343L271.607 20.8005C270.879 22.0766 270.304 23.4341 269.894 24.8448L263.156 25.4279M296.995 13.6195C295.716 12.9088 294.358 12.349 292.95 11.9515L292.367 5.21338H283.386L282.802 11.9515C281.391 12.3466 280.031 12.9065 278.751 13.6195L273.585 9.26513L271.562 11.2873M280.692 22.3577C281.914 21.1924 283.401 20.3408 285.025 19.876C286.649 19.4111 288.361 19.3468 290.016 19.6885C291.67 20.0302 293.216 20.7678 294.523 21.838C295.83 22.9083 296.858 24.2794 297.519 25.8338M298.345 29.9003C298.345 32.6746 297.244 35.3353 295.283 37.2977C293.322 39.2601 290.662 40.3635 287.887 40.3655" stroke="#263238" stroke-width="0.209222" stroke-linecap="round" stroke-linejoin="round"/>
<g opacity="0.3">
<path d="M272.262 236.169C272.034 235.729 271.721 235.339 271.341 235.021C270.961 234.703 270.521 234.463 270.048 234.316L223.553 219.622C223.065 219.47 222.552 219.42 222.044 219.475C221.536 219.529 221.045 219.687 220.601 219.939L218.387 219.253C218.435 218.974 218.377 218.687 218.222 218.45C218.068 218.212 217.83 218.042 217.555 217.972C217.281 217.903 216.99 217.941 216.742 218.077C216.493 218.213 216.306 218.438 216.217 218.707L215.958 219.504L177.301 207.282C177.24 207.268 177.177 207.268 177.116 207.282L174.636 207.784C174.571 207.796 174.51 207.826 174.461 207.87C174.412 207.915 174.375 207.972 174.356 208.035C174.337 208.097 174.335 208.163 174.349 208.227C174.363 208.29 174.394 208.349 174.437 208.397L176.179 210.234C176.224 210.28 176.28 210.313 176.341 210.33L214.999 222.552L214.748 223.349C214.703 223.49 214.686 223.638 214.699 223.785C214.712 223.931 214.754 224.074 214.822 224.205C214.959 224.469 215.195 224.668 215.479 224.759C215.619 224.804 215.767 224.82 215.914 224.808C216.061 224.795 216.204 224.753 216.335 224.685C216.558 224.574 216.735 224.388 216.837 224.161L219.051 224.847C219.27 225.315 219.584 225.732 219.973 226.073C220.362 226.413 220.817 226.669 221.309 226.825L267.805 241.519C268.278 241.669 268.775 241.724 269.27 241.682C269.764 241.639 270.245 241.499 270.685 241.27C271.125 241.041 271.516 240.727 271.835 240.347C272.154 239.967 272.394 239.528 272.543 239.054C272.69 238.579 272.74 238.079 272.692 237.583C272.644 237.088 272.498 236.607 272.262 236.169Z" fill="black"/>
<path d="M119.402 227.74L117.062 227.002C117.08 226.914 117.064 226.823 117.02 226.746C116.975 226.668 116.903 226.61 116.819 226.581L113.675 225.607C113.581 225.579 113.48 225.589 113.393 225.634C113.306 225.68 113.24 225.757 113.21 225.85L112.361 228.603C112.333 228.696 112.343 228.796 112.389 228.882C112.435 228.968 112.512 229.032 112.605 229.061L115.749 230.035H115.859C115.93 230.034 115.999 230.012 116.058 229.973C116.117 229.934 116.163 229.879 116.192 229.814L118.531 230.552C118.797 230.637 119.019 230.823 119.149 231.07C119.279 231.317 119.306 231.606 119.225 231.873L112.583 253.239C112.563 253.308 112.562 253.381 112.582 253.45C112.601 253.519 112.64 253.581 112.693 253.63L112.029 255.785C111.993 255.875 111.993 255.975 112.029 256.065C112.076 256.148 112.152 256.211 112.243 256.242L113.941 256.766C113.975 256.774 114.01 256.774 114.044 256.766C114.123 256.767 114.2 256.742 114.263 256.695C114.327 256.649 114.374 256.583 114.398 256.508L115.07 254.346C115.111 254.357 115.154 254.357 115.195 254.346C115.238 254.324 115.276 254.294 115.307 254.258C115.337 254.221 115.36 254.178 115.372 254.132L122.015 232.729C122.324 231.714 122.22 230.618 121.725 229.679C121.23 228.741 120.385 228.036 119.372 227.718L119.402 227.74Z" fill="black"/>
<path d="M98.2878 243.667C98.3402 243.603 98.3665 243.521 98.3617 243.439C98.3618 243.389 98.3513 243.341 98.3309 243.296C98.3105 243.252 98.2807 243.212 98.2436 243.18L95.8007 240.966C95.7651 240.933 95.7233 240.908 95.6776 240.891C95.632 240.875 95.5835 240.868 95.535 240.87C95.4361 240.878 95.3438 240.923 95.2767 240.996L93.3505 243.129C93.3159 243.163 93.2884 243.204 93.2697 243.249C93.251 243.294 93.2413 243.342 93.2413 243.391C93.2413 243.439 93.251 243.487 93.2697 243.532C93.2884 243.577 93.3159 243.618 93.3505 243.653L95.7859 245.867C95.8563 245.926 95.9448 245.96 96.0369 245.963C96.1225 245.961 96.2042 245.926 96.2657 245.867L98.0812 247.505C98.2897 247.696 98.4144 247.961 98.4281 248.243C98.438 248.515 98.3398 248.781 98.155 248.981L83.1657 265.579C83.1175 265.632 83.0861 265.699 83.0756 265.77C83.0651 265.84 83.0759 265.913 83.1067 265.978L81.6306 267.653C81.5961 267.687 81.5686 267.728 81.5499 267.773C81.5311 267.818 81.5215 267.866 81.5215 267.915C81.5215 267.964 81.5311 268.012 81.5499 268.057C81.5686 268.102 81.5961 268.143 81.6306 268.177L82.9443 269.358C83.0111 269.419 83.0977 269.453 83.1879 269.454C83.2403 269.455 83.2923 269.445 83.3406 269.424C83.3888 269.404 83.4324 269.374 83.4683 269.336L84.9444 267.66C84.9834 267.668 85.0234 267.668 85.0624 267.66C85.1591 267.653 85.249 267.608 85.3134 267.535L100.303 250.937C101.013 250.147 101.382 249.108 101.328 248.047C101.274 246.986 100.802 245.99 100.015 245.276L98.2878 243.667Z" fill="black"/>
<path d="M221.516 251.815L214.955 253.572L212.999 251.609L213.737 248.937L220.298 247.188C220.357 247.17 220.41 247.139 220.454 247.097C220.497 247.054 220.53 247.002 220.549 246.944C220.57 246.888 220.576 246.827 220.567 246.768C220.558 246.708 220.534 246.652 220.498 246.605C219.685 245.545 218.605 244.72 217.37 244.213C216.134 243.706 214.786 243.537 213.463 243.721C212.14 243.906 210.89 244.438 209.84 245.264C208.79 246.089 207.978 247.178 207.486 248.42L144.754 265.196C143.76 264.487 142.599 264.049 141.384 263.922C140.17 263.795 138.944 263.984 137.824 264.472C136.705 264.959 135.731 265.728 134.996 266.703C134.261 267.678 133.792 268.827 133.632 270.037C133.624 270.097 133.631 270.158 133.652 270.214C133.673 270.271 133.708 270.321 133.753 270.362C133.798 270.402 133.853 270.43 133.911 270.444C133.97 270.458 134.031 270.458 134.09 270.443L140.201 268.804L142.009 270.613L141.344 273.078L135.234 274.716C135.175 274.732 135.122 274.763 135.078 274.805C135.034 274.847 135.001 274.899 134.982 274.956C134.963 275.014 134.958 275.075 134.969 275.135C134.979 275.195 135.004 275.251 135.042 275.299C135.701 276.158 136.55 276.853 137.521 277.332C138.492 277.811 139.561 278.059 140.643 278.059C141.266 278.061 141.886 277.981 142.488 277.823C143.496 277.553 144.431 277.064 145.227 276.39C146.023 275.716 146.661 274.875 147.094 273.926L209.781 257.151C210.068 257.377 210.369 257.584 210.682 257.771C211.759 258.391 212.972 258.737 214.214 258.778C215.456 258.819 216.689 258.553 217.804 258.005C218.919 257.456 219.882 256.642 220.608 255.633C221.334 254.624 221.8 253.453 221.966 252.221C221.974 252.161 221.967 252.101 221.947 252.044C221.926 251.988 221.892 251.937 221.848 251.896C221.803 251.858 221.749 251.831 221.692 251.817C221.634 251.803 221.574 251.802 221.516 251.815Z" fill="black"/>
</g>
<path d="M227.707 222.103L226.969 224.442L176.466 208.471L174.725 206.641L177.204 206.139L227.707 222.103Z" fill="#999999" stroke="#263238" stroke-width="0.209222" stroke-linecap="round" stroke-linejoin="round"/>
<path d="M220.636 218.848L217.95 217.999L218.016 217.778C218.077 217.587 218.059 217.38 217.967 217.202C217.875 217.024 217.716 216.89 217.525 216.829C217.335 216.769 217.127 216.786 216.95 216.878C216.772 216.97 216.638 217.129 216.577 217.32L215.101 221.955C215.04 222.151 215.06 222.362 215.155 222.544C215.251 222.725 215.415 222.861 215.61 222.922C215.806 222.982 216.018 222.963 216.199 222.867C216.38 222.772 216.516 222.608 216.577 222.412L216.644 222.191L219.33 223.04C219.519 223.495 219.806 223.904 220.169 224.238C220.532 224.572 220.963 224.823 221.433 224.973L267.929 239.66C268.79 239.932 269.724 239.851 270.526 239.434C271.327 239.018 271.93 238.3 272.202 237.439C272.474 236.577 272.393 235.643 271.976 234.842C271.56 234.04 270.842 233.437 269.981 233.165L223.485 218.471C223.011 218.322 222.511 218.279 222.019 218.344C221.527 218.409 221.055 218.581 220.636 218.848Z" fill="#ACCAF6" stroke="#263238" stroke-width="0.209222" stroke-linecap="round" stroke-linejoin="round"/>
<path d="M220.638 218.848L219.693 221.837" stroke="#263238" stroke-width="0.209222" stroke-linecap="round" stroke-linejoin="round"/>
<path d="M216.623 222.191L217.479 219.49" stroke="#263238" stroke-width="0.209222" stroke-linecap="round" stroke-linejoin="round"/>
<path d="M113.273 251.667L112.418 254.431L114.11 254.954L114.965 252.19L113.273 251.667Z" fill="#999999" stroke="#263238" stroke-width="0.209222" stroke-linecap="round" stroke-linejoin="round"/>
<path d="M115.083 252.539L112.965 251.882L119.607 230.48C119.718 230.119 119.68 229.728 119.503 229.395C119.326 229.061 119.023 228.812 118.662 228.701L113.91 227.225L114.566 225.114L119.319 226.59C119.776 226.732 120.2 226.962 120.568 227.267C120.935 227.572 121.239 227.947 121.462 228.37C121.685 228.793 121.822 229.256 121.866 229.732C121.91 230.208 121.859 230.687 121.718 231.144L115.083 252.539Z" fill="#999999" stroke="#263238" stroke-width="0.209222" stroke-linecap="round" stroke-linejoin="round"/>
<path d="M113.562 224.512L112.711 227.261L115.855 228.234L116.706 225.484L113.562 224.512Z" fill="#999999" stroke="#263238" stroke-width="0.209222" stroke-linecap="round" stroke-linejoin="round"/>
<path d="M83.8451 264.288L81.9062 266.435L83.2209 267.622L85.1597 265.475L83.8451 264.288Z" fill="#999999" stroke="#263238" stroke-width="0.209222" stroke-linecap="round" stroke-linejoin="round"/>
<path d="M85.1282 265.845L83.4824 264.369L98.4717 247.763C98.5973 247.625 98.6942 247.463 98.757 247.287C98.8198 247.111 98.8472 246.925 98.8376 246.738C98.828 246.552 98.7816 246.369 98.7011 246.2C98.6205 246.032 98.5075 245.881 98.3684 245.756L94.6783 242.42L96.1543 240.774L99.8444 244.11C100.203 244.43 100.495 244.819 100.703 245.253C100.911 245.686 101.031 246.157 101.055 246.638C101.08 247.118 101.009 247.599 100.847 248.052C100.685 248.505 100.434 248.921 100.11 249.276L85.1282 265.845Z" fill="#999999" stroke="#263238" stroke-width="0.209222" stroke-linecap="round" stroke-linejoin="round"/>
<path d="M95.55 239.778L93.6211 241.915L96.0641 244.12L97.9931 241.984L95.55 239.778Z" fill="#999999" stroke="#263238" stroke-width="0.209222" stroke-linecap="round" stroke-linejoin="round"/>
<path d="M210.094 246.637L142.215 264.8L144.359 272.814L212.238 254.651L210.094 246.637Z" fill="#ACCAF6" stroke="#263238" stroke-width="0.209222" stroke-linecap="round" stroke-linejoin="round"/>
<path d="M138.923 263.012C137.641 263.354 136.49 264.068 135.614 265.063C134.738 266.059 134.177 267.292 134 268.606L140.317 266.916L142.421 269.027L141.683 271.905L135.365 273.595C136.107 274.558 137.096 275.303 138.227 275.748C139.358 276.194 140.589 276.324 141.788 276.125C142.987 275.926 144.11 275.405 145.037 274.618C145.963 273.83 146.659 272.807 147.049 271.655C147.439 270.504 147.509 269.268 147.252 268.08C146.995 266.892 146.421 265.795 145.59 264.908C144.758 264.021 143.702 263.376 142.533 263.042C141.364 262.708 140.127 262.697 138.952 263.012H138.923Z" fill="#ACCAF6" stroke="#263238" stroke-width="0.209222" stroke-linecap="round" stroke-linejoin="round"/>
<path d="M216.334 256.693C217.708 256.326 218.942 255.56 219.881 254.492C220.82 253.424 221.422 252.102 221.611 250.693L214.844 252.501L212.593 250.243L213.419 247.165L220.18 245.35C219.385 244.318 218.325 243.522 217.113 243.045C215.902 242.568 214.583 242.429 213.299 242.643C212.014 242.856 210.812 243.414 209.819 244.258C208.827 245.101 208.082 246.198 207.664 247.431C207.246 248.664 207.17 249.988 207.445 251.261C207.721 252.533 208.336 253.708 209.226 254.658C210.116 255.609 211.247 256.3 212.499 256.659C213.751 257.017 215.076 257.029 216.334 256.693Z" fill="#ACCAF6" stroke="#263238" stroke-width="0.209222" stroke-linecap="round" stroke-linejoin="round"/>
<path d="M200.393 255.202L155.89 267.114C155.682 267.171 155.465 267.186 155.251 267.158C155.037 267.131 154.831 267.061 154.644 266.953C154.458 266.845 154.294 266.702 154.163 266.53C154.033 266.359 153.937 266.164 153.882 265.955C153.772 265.536 153.832 265.091 154.049 264.716C154.266 264.341 154.623 264.068 155.041 263.955L199.551 252.043C199.97 251.933 200.416 251.993 200.79 252.21C201.165 252.427 201.439 252.784 201.551 253.202C201.662 253.621 201.602 254.067 201.385 254.441C201.168 254.816 200.811 255.09 200.393 255.202Z" fill="#999999" stroke="#263238" stroke-width="0.209222" stroke-linecap="round" stroke-linejoin="round"/>
<path d="M240.024 28.8376H250.12C250.316 28.8376 250.504 28.9154 250.642 29.0538C250.781 29.1922 250.858 29.3799 250.858 29.5757V33.8341H239.301V29.5683C239.303 29.3764 239.379 29.1927 239.514 29.0563C239.649 28.9199 239.832 28.8415 240.024 28.8376Z" fill="#BFBFBF" stroke="#263238" stroke-width="0.209222" stroke-linecap="round" stroke-linejoin="round"/>
<path d="M253.774 28.8376H263.87C264.066 28.8376 264.253 28.9154 264.392 29.0538C264.53 29.1922 264.608 29.3799 264.608 29.5757V33.8341H253.043V29.5683C253.045 29.3751 253.122 29.1904 253.259 29.0538C253.396 28.9172 253.58 28.8396 253.774 28.8376Z" fill="#BFBFBF" stroke="#263238" stroke-width="0.209222" stroke-linecap="round" stroke-linejoin="round"/>
<path d="M81.0685 28.8376H103.099C103.294 28.8376 103.482 28.9154 103.62 29.0538C103.759 29.1922 103.837 29.3799 103.837 29.5757V33.8341H80.3379V29.5683C80.3398 29.3751 80.4174 29.1904 80.554 29.0538C80.6906 28.9172 80.8754 28.8396 81.0685 28.8376Z" fill="#BFBFBF" stroke="#263238" stroke-width="0.209222" stroke-linecap="round" stroke-linejoin="round"/>
<path d="M285.613 178.288V45.3031C285.613 36.8373 278.75 29.9744 270.285 29.9744L74.9073 29.9744C66.4415 29.9744 59.5785 36.8373 59.5785 45.3031V178.288C59.5785 186.754 66.4415 193.617 74.9073 193.617H270.285C278.75 193.617 285.613 186.754 285.613 178.288Z" fill="#BFBFBF" stroke="#263238" stroke-width="0.209222" stroke-linecap="round" stroke-linejoin="round"/>
<path d="M270.784 31.6943H74.4174C67.1744 31.6943 61.3027 37.566 61.3027 44.809V178.79C61.3027 186.033 67.1744 191.905 74.4174 191.905H270.784C278.027 191.905 283.898 186.033 283.898 178.79V44.809C283.898 37.566 278.027 31.6943 270.784 31.6943Z" fill="#263238"/>
<path d="M64.5952 105.822C64.5952 105.968 64.5519 106.111 64.4708 106.232C64.3897 106.353 64.2745 106.448 64.1396 106.504C64.0047 106.56 63.8563 106.574 63.7132 106.546C63.57 106.517 63.4385 106.447 63.3353 106.344C63.2321 106.241 63.1618 106.109 63.1333 105.966C63.1048 105.823 63.1195 105.674 63.1753 105.54C63.2312 105.405 63.3258 105.289 63.4471 105.208C63.5685 105.127 63.7112 105.084 63.8572 105.084C64.0529 105.084 64.2406 105.162 64.379 105.3C64.5174 105.439 64.5952 105.626 64.5952 105.822Z" fill="white" stroke="#263238" stroke-width="0.209222" stroke-linecap="round" stroke-linejoin="round"/>
<path d="M65.29 112.7C65.29 112.992 65.2034 113.277 65.0412 113.52C64.879 113.763 64.6485 113.952 64.3788 114.064C64.1091 114.176 63.8123 114.205 63.526 114.148C63.2397 114.091 62.9766 113.95 62.7702 113.744C62.5638 113.537 62.4232 113.274 62.3663 112.988C62.3093 112.702 62.3385 112.405 62.4503 112.135C62.562 111.866 62.7512 111.635 62.9939 111.473C63.2366 111.311 63.522 111.224 63.8139 111.224C64.2054 111.224 64.5809 111.38 64.8577 111.656C65.1345 111.933 65.29 112.309 65.29 112.7Z" fill="white" stroke="#263238" stroke-width="0.209222" stroke-linecap="round" stroke-linejoin="round"/>
<path d="M64.8978 117.474C64.8993 117.683 64.8386 117.888 64.7236 118.062C64.6085 118.237 64.4442 118.373 64.2515 118.454C64.0588 118.535 63.8463 118.557 63.6411 118.517C63.4359 118.477 63.2472 118.377 63.0988 118.23C62.9505 118.083 62.8493 117.895 62.8079 117.69C62.7666 117.485 62.7871 117.272 62.8667 117.079C62.9464 116.886 63.0816 116.72 63.2554 116.604C63.4291 116.488 63.6334 116.426 63.8425 116.426C64.1211 116.426 64.3884 116.536 64.5861 116.732C64.7838 116.929 64.8959 117.195 64.8978 117.474Z" fill="white" stroke="#263238" stroke-width="0.209222" stroke-linecap="round" stroke-linejoin="round"/>
<path d="M278.74 180.273V43.325C278.74 39.7504 275.842 36.8525 272.268 36.8525L72.9274 36.8525C69.3527 36.8525 66.4549 39.7504 66.4549 43.325V180.273C66.4549 183.848 69.3527 186.745 72.9274 186.745H272.268C275.842 186.745 278.74 183.848 278.74 180.273Z" fill="white" stroke="#263238" stroke-width="0.209222" stroke-linecap="round" stroke-linejoin="round"/>
<path opacity="0.3" d="M278.74 180.273V43.325C278.74 39.7504 275.842 36.8525 272.268 36.8525L72.9274 36.8525C69.3527 36.8525 66.4549 39.7504 66.4549 43.325V180.273C66.4549 183.848 69.3527 186.745 72.9274 186.745H272.268C275.842 186.745 278.74 183.848 278.74 180.273Z" fill="#ACCAF6"/>
<path d="M124.146 68.7719H83.363C83.1673 68.7719 82.9796 68.6942 82.8412 68.5558C82.7028 68.4174 82.625 68.2297 82.625 68.0339C82.625 67.8382 82.7028 67.6505 82.8412 67.5121C82.9796 67.3737 83.1673 67.2959 83.363 67.2959H124.146C124.342 67.2959 124.53 67.3737 124.668 67.5121C124.807 67.6505 124.884 67.8382 124.884 68.0339C124.884 68.2297 124.807 68.4174 124.668 68.5558C124.53 68.6942 124.342 68.7719 124.146 68.7719Z" fill="#263238"/>
<path d="M112.198 77.6364H83.363C83.1673 77.6364 82.9796 77.5587 82.8412 77.4203C82.7028 77.2819 82.625 77.0942 82.625 76.8984C82.625 76.7027 82.7028 76.515 82.8412 76.3766C82.9796 76.2382 83.1673 76.1604 83.363 76.1604H112.198C112.393 76.1604 112.581 76.2382 112.72 76.3766C112.858 76.515 112.936 76.7027 112.936 76.8984C112.936 77.0942 112.858 77.2819 112.72 77.4203C112.581 77.5587 112.393 77.6364 112.198 77.6364Z" fill="#263238"/>
<path d="M130.124 86.4992H83.363C83.1673 86.4992 82.9796 86.4215 82.8412 86.2831C82.7028 86.1447 82.625 85.957 82.625 85.7612C82.625 85.5655 82.7028 85.3778 82.8412 85.2394C82.9796 85.1009 83.1673 85.0232 83.363 85.0232H130.124C130.32 85.0232 130.508 85.1009 130.646 85.2394C130.785 85.3778 130.862 85.5655 130.862 85.7612C130.862 85.957 130.785 86.1447 130.646 86.2831C130.508 86.4215 130.32 86.4992 130.124 86.4992Z" fill="#263238"/>
<path d="M124.146 95.3637H83.363C83.1673 95.3637 82.9796 95.286 82.8412 95.1476C82.7028 95.0092 82.625 94.8215 82.625 94.6257C82.625 94.43 82.7028 94.2423 82.8412 94.1039C82.9796 93.9655 83.1673 93.8877 83.363 93.8877H124.146C124.342 93.8877 124.53 93.9655 124.668 94.1039C124.807 94.2423 124.884 94.43 124.884 94.6257C124.884 94.8215 124.807 95.0092 124.668 95.1476C124.53 95.286 124.342 95.3637 124.146 95.3637Z" fill="#263238"/>
<path d="M112.198 104.226H83.363C83.1673 104.226 82.9796 104.149 82.8412 104.01C82.7028 103.872 82.625 103.684 82.625 103.488C82.625 103.293 82.7028 103.105 82.8412 102.966C82.9796 102.828 83.1673 102.75 83.363 102.75H112.198C112.393 102.75 112.581 102.828 112.72 102.966C112.858 103.105 112.936 103.293 112.936 103.488C112.936 103.684 112.858 103.872 112.72 104.01C112.581 104.149 112.393 104.226 112.198 104.226Z" fill="#263238"/>
<path opacity="0.2" d="M136.516 69.9092H144.531C145.249 69.9092 145.83 69.3276 145.83 68.6103V67.4442C145.83 66.7268 145.249 66.1453 144.531 66.1453H136.516C135.799 66.1453 135.217 66.7268 135.217 67.4442V68.6103C135.217 69.3276 135.799 69.9092 136.516 69.9092Z" fill="black"/>
<path d="M136.509 69.9092H138.141C138.858 69.9092 139.439 69.3276 139.439 68.6103V67.4442C139.439 66.7268 138.858 66.1453 138.141 66.1453H136.509C135.792 66.1453 135.211 66.7268 135.211 67.4442V68.6103C135.211 69.3276 135.792 69.9092 136.509 69.9092Z" fill="#ACCAF6" stroke="#263238" stroke-width="0.209222" stroke-linecap="round" stroke-linejoin="round"/>
<path opacity="0.2" d="M144.533 75.0088H136.518C135.8 75.0088 135.219 75.5903 135.219 76.3077V77.4738C135.219 78.1912 135.8 78.7727 136.518 78.7727H144.533C145.25 78.7727 145.832 78.1912 145.832 77.4738V76.3077C145.832 75.5903 145.25 75.0088 144.533 75.0088Z" fill="black"/>
<path d="M144.539 75.0088H142.908C142.191 75.0088 141.609 75.5903 141.609 76.3077V77.4738C141.609 78.1912 142.191 78.7727 142.908 78.7727H144.539C145.257 78.7727 145.838 78.1912 145.838 77.4738V76.3077C145.838 75.5903 145.257 75.0088 144.539 75.0088Z" fill="#999999" stroke="#263238" stroke-width="0.209222" stroke-linecap="round" stroke-linejoin="round"/>
<path opacity="0.2" d="M144.533 83.8713H136.518C135.8 83.8713 135.219 84.4529 135.219 85.1703V86.3363C135.219 87.0537 135.8 87.6353 136.518 87.6353H144.533C145.25 87.6353 145.832 87.0537 145.832 86.3363V85.1703C145.832 84.4529 145.25 83.8713 144.533 83.8713Z" fill="black"/>
<path d="M144.539 83.8713H142.908C142.191 83.8713 141.609 84.4529 141.609 85.1703V86.3363C141.609 87.0537 142.191 87.6353 142.908 87.6353H144.539C145.257 87.6353 145.838 87.0537 145.838 86.3363V85.1703C145.838 84.4529 145.257 83.8713 144.539 83.8713Z" fill="#999999" stroke="#263238" stroke-width="0.209222" stroke-linecap="round" stroke-linejoin="round"/>
<path opacity="0.2" d="M136.516 96.4932H144.531C145.249 96.4932 145.83 95.9116 145.83 95.1942V94.0282C145.83 93.3108 145.249 92.7292 144.531 92.7292H136.516C135.799 92.7292 135.217 93.3108 135.217 94.0282V95.1942C135.217 95.9116 135.799 96.4932 136.516 96.4932Z" fill="black"/>
<path d="M136.509 96.4932H138.141C138.858 96.4932 139.439 95.9116 139.439 95.1942V94.0282C139.439 93.3108 138.858 92.7292 138.141 92.7292H136.509C135.792 92.7292 135.211 93.3108 135.211 94.0282V95.1942C135.211 95.9116 135.792 96.4932 136.509 96.4932Z" fill="#ACCAF6" stroke="#263238" stroke-width="0.209222" stroke-linecap="round" stroke-linejoin="round"/>
<path opacity="0.2" d="M144.533 101.599H136.518C135.8 101.599 135.219 102.18 135.219 102.898V104.064C135.219 104.781 135.8 105.363 136.518 105.363H144.533C145.25 105.363 145.832 104.781 145.832 104.064V102.898C145.832 102.18 145.25 101.599 144.533 101.599Z" fill="black"/>
<path d="M144.539 101.599H142.908C142.191 101.599 141.609 102.18 141.609 102.898V104.064C141.609 104.781 142.191 105.363 142.908 105.363H144.539C145.257 105.363 145.838 104.781 145.838 104.064V102.898C145.838 102.18 145.257 101.599 144.539 101.599Z" fill="#999999" stroke="#263238" stroke-width="0.209222" stroke-linecap="round" stroke-linejoin="round"/>
<path d="M202.378 77.6364H165.181C164.986 77.6364 164.798 77.5587 164.66 77.4203C164.521 77.2819 164.443 77.0942 164.443 76.8984C164.443 76.7027 164.521 76.515 164.66 76.3766C164.798 76.2382 164.986 76.1604 165.181 76.1604H202.378C202.574 76.1604 202.761 76.2382 202.9 76.3766C203.038 76.515 203.116 76.7027 203.116 76.8984C203.116 77.0942 203.038 77.2819 202.9 77.4203C202.761 77.5587 202.574 77.6364 202.378 77.6364Z" fill="#263238"/>
<path d="M196.407 68.7719H165.181C164.986 68.7719 164.798 68.6942 164.66 68.5558C164.521 68.4174 164.443 68.2297 164.443 68.0339C164.443 67.8382 164.521 67.6505 164.66 67.5121C164.798 67.3737 164.986 67.2959 165.181 67.2959H196.407C196.603 67.2959 196.791 67.3737 196.929 67.5121C197.067 67.6505 197.145 67.8382 197.145 68.0339C197.145 68.2297 197.067 68.4174 196.929 68.5558C196.791 68.6942 196.603 68.7719 196.407 68.7719Z" fill="#263238"/>
<path d="M202.378 104.226H165.181C164.986 104.226 164.798 104.149 164.66 104.01C164.521 103.872 164.443 103.684 164.443 103.488C164.443 103.293 164.521 103.105 164.66 102.966C164.798 102.828 164.986 102.75 165.181 102.75H202.378C202.574 102.75 202.761 102.828 202.9 102.966C203.038 103.105 203.116 103.293 203.116 103.488C203.116 103.684 203.038 103.872 202.9 104.01C202.761 104.149 202.574 104.226 202.378 104.226Z" fill="#263238"/>
<path d="M190.429 95.3637H165.181C164.986 95.3637 164.798 95.286 164.66 95.1476C164.521 95.0092 164.443 94.8215 164.443 94.6257C164.443 94.43 164.521 94.2423 164.66 94.1039C164.798 93.9655 164.986 93.8877 165.181 93.8877H190.429C190.625 93.8877 190.813 93.9655 190.951 94.1039C191.089 94.2423 191.167 94.43 191.167 94.6257C191.167 94.8215 191.089 95.0092 190.951 95.1476C190.813 95.286 190.625 95.3637 190.429 95.3637Z" fill="#263238"/>
<path d="M184.451 86.4992H165.181C164.986 86.4992 164.798 86.4215 164.66 86.2831C164.521 86.1447 164.443 85.957 164.443 85.7612C164.443 85.5655 164.521 85.3778 164.66 85.2394C164.798 85.1009 164.986 85.0232 165.181 85.0232H184.451C184.647 85.0232 184.835 85.1009 184.973 85.2394C185.111 85.3778 185.189 85.5655 185.189 85.7612C185.189 85.957 185.111 86.1447 184.973 86.2831C184.835 86.4215 184.647 86.4992 184.451 86.4992Z" fill="#263238"/>
<path d="M215.705 66.7051H213.078V69.3324H215.705V66.7051Z" fill="#999999" stroke="#263238" stroke-width="0.209222" stroke-linecap="round" stroke-linejoin="round"/>
<path d="M219.61 66.7051H216.982V69.3324H219.61V66.7051Z" fill="#999999" stroke="#263238" stroke-width="0.209222" stroke-linecap="round" stroke-linejoin="round"/>
<path d="M223.514 66.7051H220.887V69.3324H223.514V66.7051Z" fill="#999999" stroke="#263238" stroke-width="0.209222" stroke-linecap="round" stroke-linejoin="round"/>
<path d="M227.426 66.7051H224.799V69.3324H227.426V66.7051Z" fill="#999999" stroke="#263238" stroke-width="0.209222" stroke-linecap="round" stroke-linejoin="round"/>
<path d="M231.33 66.7051H228.703V69.3324H231.33V66.7051Z" fill="#999999" stroke="#263238" stroke-width="0.209222" stroke-linecap="round" stroke-linejoin="round"/>
<path d="M235.235 66.7051H232.607V69.3324H235.235V66.7051Z" fill="#999999" stroke="#263238" stroke-width="0.209222" stroke-linecap="round" stroke-linejoin="round"/>
<path d="M239.139 66.7051H236.512V69.3324H239.139V66.7051Z" fill="#999999" stroke="#263238" stroke-width="0.209222" stroke-linecap="round" stroke-linejoin="round"/>
<path d="M243.051 66.7051H240.424V69.3324H243.051V66.7051Z" fill="#999999" stroke="#263238" stroke-width="0.209222" stroke-linecap="round" stroke-linejoin="round"/>
<path d="M246.954 66.7051H244.326V69.3324H246.954V66.7051Z" fill="#ACCAF6" stroke="#263238" stroke-width="0.209222" stroke-linecap="round" stroke-linejoin="round"/>
<path d="M250.858 66.7051H248.23V69.3324H250.858V66.7051Z" fill="#ACCAF6" stroke="#263238" stroke-width="0.209222" stroke-linecap="round" stroke-linejoin="round"/>
<path opacity="0.2" d="M254.762 66.7051H252.135V69.3324H254.762V66.7051Z" fill="#263238"/>
<path opacity="0.2" d="M258.674 66.7051H256.047V69.3324H258.674V66.7051Z" fill="#263238"/>
<path opacity="0.2" d="M262.579 66.7051H259.951V69.3324H262.579V66.7051Z" fill="#263238"/>
<path d="M215.705 75.5696H213.078V78.1969H215.705V75.5696Z" fill="#999999" stroke="#263238" stroke-width="0.209222" stroke-linecap="round" stroke-linejoin="round"/>
<path d="M219.61 75.5696H216.982V78.1969H219.61V75.5696Z" fill="#999999" stroke="#263238" stroke-width="0.209222" stroke-linecap="round" stroke-linejoin="round"/>
<path d="M223.514 75.5696H220.887V78.1969H223.514V75.5696Z" fill="#999999" stroke="#263238" stroke-width="0.209222" stroke-linecap="round" stroke-linejoin="round"/>
<path d="M227.426 75.5696H224.799V78.1969H227.426V75.5696Z" fill="#999999" stroke="#263238" stroke-width="0.209222" stroke-linecap="round" stroke-linejoin="round"/>
<path d="M231.33 75.5696H228.703V78.1969H231.33V75.5696Z" fill="#999999" stroke="#263238" stroke-width="0.209222" stroke-linecap="round" stroke-linejoin="round"/>
<path d="M235.235 75.5696H232.607V78.1969H235.235V75.5696Z" fill="#999999" stroke="#263238" stroke-width="0.209222" stroke-linecap="round" stroke-linejoin="round"/>
<path d="M239.139 75.5696H236.512V78.1969H239.139V75.5696Z" fill="#999999" stroke="#263238" stroke-width="0.209222" stroke-linecap="round" stroke-linejoin="round"/>
<path opacity="0.2" d="M243.051 75.5696H240.424V78.1969H243.051V75.5696Z" fill="#263238"/>
<path opacity="0.2" d="M246.954 75.5696H244.326V78.1969H246.954V75.5696Z" fill="#263238"/>
<path opacity="0.2" d="M250.858 75.5696H248.23V78.1969H250.858V75.5696Z" fill="#263238"/>
<path opacity="0.2" d="M254.762 75.5696H252.135V78.1969H254.762V75.5696Z" fill="#263238"/>
<path opacity="0.2" d="M258.674 75.5696H256.047V78.1969H258.674V75.5696Z" fill="#263238"/>
<path opacity="0.2" d="M262.579 75.5696H259.951V78.1969H262.579V75.5696Z" fill="#263238"/>
<path d="M215.705 102.161H213.078V104.789H215.705V102.161Z" fill="#999999" stroke="#263238" stroke-width="0.209222" stroke-linecap="round" stroke-linejoin="round"/>
<path d="M219.61 102.161H216.982V104.789H219.61V102.161Z" fill="#999999" stroke="#263238" stroke-width="0.209222" stroke-linecap="round" stroke-linejoin="round"/>
<path d="M223.514 102.161H220.887V104.789H223.514V102.161Z" fill="#999999" stroke="#263238" stroke-width="0.209222" stroke-linecap="round" stroke-linejoin="round"/>
<path opacity="0.2" d="M227.426 102.161H224.799V104.789H227.426V102.161Z" fill="#263238"/>
<path opacity="0.2" d="M231.33 102.161H228.703V104.789H231.33V102.161Z" fill="#263238"/>
<path opacity="0.2" d="M235.235 102.161H232.607V104.789H235.235V102.161Z" fill="#263238"/>
<path opacity="0.2" d="M239.139 102.161H236.512V104.789H239.139V102.161Z" fill="#263238"/>
<path opacity="0.2" d="M243.051 102.161H240.424V104.789H243.051V102.161Z" fill="#263238"/>
<path opacity="0.2" d="M246.954 102.161H244.326V104.789H246.954V102.161Z" fill="#263238"/>
<path opacity="0.2" d="M250.858 102.161H248.23V104.789H250.858V102.161Z" fill="#263238"/>
<path opacity="0.2" d="M254.762 102.161H252.135V104.789H254.762V102.161Z" fill="#263238"/>
<path opacity="0.2" d="M258.674 102.161H256.047V104.789H258.674V102.161Z" fill="#263238"/>
<path opacity="0.2" d="M262.579 102.161H259.951V104.789H262.579V102.161Z" fill="#263238"/>
<path d="M215.705 93.2966H213.078V95.924H215.705V93.2966Z" fill="#999999" stroke="#263238" stroke-width="0.209222" stroke-linecap="round" stroke-linejoin="round"/>
<path d="M219.61 93.2966H216.982V95.924H219.61V93.2966Z" fill="#999999" stroke="#263238" stroke-width="0.209222" stroke-linecap="round" stroke-linejoin="round"/>
<path d="M223.514 93.2966H220.887V95.924H223.514V93.2966Z" fill="#999999" stroke="#263238" stroke-width="0.209222" stroke-linecap="round" stroke-linejoin="round"/>
<path d="M227.426 93.2966H224.799V95.924H227.426V93.2966Z" fill="#999999" stroke="#263238" stroke-width="0.209222" stroke-linecap="round" stroke-linejoin="round"/>
<path d="M231.33 93.2966H228.703V95.924H231.33V93.2966Z" fill="#999999" stroke="#263238" stroke-width="0.209222" stroke-linecap="round" stroke-linejoin="round"/>
<path d="M235.235 93.2966H232.607V95.924H235.235V93.2966Z" fill="#999999" stroke="#263238" stroke-width="0.209222" stroke-linecap="round" stroke-linejoin="round"/>
<path d="M239.139 93.2966H236.512V95.924H239.139V93.2966Z" fill="#999999" stroke="#263238" stroke-width="0.209222" stroke-linecap="round" stroke-linejoin="round"/>
<path d="M243.051 93.2966H240.424V95.924H243.051V93.2966Z" fill="#999999" stroke="#263238" stroke-width="0.209222" stroke-linecap="round" stroke-linejoin="round"/>
<path d="M246.954 93.2966H244.326V95.924H246.954V93.2966Z" fill="#ACCAF6" stroke="#263238" stroke-width="0.209222" stroke-linecap="round" stroke-linejoin="round"/>
<path d="M250.858 93.2966H248.23V95.924H250.858V93.2966Z" fill="#ACCAF6" stroke="#263238" stroke-width="0.209222" stroke-linecap="round" stroke-linejoin="round"/>
<path d="M254.762 93.2966H252.135V95.924H254.762V93.2966Z" fill="#ACCAF6" stroke="#263238" stroke-width="0.209222" stroke-linecap="round" stroke-linejoin="round"/>
<path d="M258.674 93.2966H256.047V95.924H258.674V93.2966Z" fill="#ACCAF6" stroke="#263238" stroke-width="0.209222" stroke-linecap="round" stroke-linejoin="round"/>
<path opacity="0.2" d="M262.579 93.2966H259.951V95.924H262.579V93.2966Z" fill="#263238"/>
<path d="M215.705 84.4321H213.078V87.0595H215.705V84.4321Z" fill="#999999" stroke="#263238" stroke-width="0.209222" stroke-linecap="round" stroke-linejoin="round"/>
<path d="M219.61 84.4321H216.982V87.0595H219.61V84.4321Z" fill="#999999" stroke="#263238" stroke-width="0.209222" stroke-linecap="round" stroke-linejoin="round"/>
<path d="M223.514 84.4321H220.887V87.0595H223.514V84.4321Z" fill="#999999" stroke="#263238" stroke-width="0.209222" stroke-linecap="round" stroke-linejoin="round"/>
<path d="M227.426 84.4321H224.799V87.0595H227.426V84.4321Z" fill="#999999" stroke="#263238" stroke-width="0.209222" stroke-linecap="round" stroke-linejoin="round"/>
<path d="M231.33 84.4321H228.703V87.0595H231.33V84.4321Z" fill="#999999" stroke="#263238" stroke-width="0.209222" stroke-linecap="round" stroke-linejoin="round"/>
<path opacity="0.2" d="M235.235 84.4321H232.607V87.0595H235.235V84.4321Z" fill="#263238"/>
<path opacity="0.2" d="M239.139 84.4321H236.512V87.0595H239.139V84.4321Z" fill="#263238"/>
<path opacity="0.2" d="M243.051 84.4321H240.424V87.0595H243.051V84.4321Z" fill="#263238"/>
<path opacity="0.2" d="M246.954 84.4321H244.326V87.0595H246.954V84.4321Z" fill="#263238"/>
<path opacity="0.2" d="M250.858 84.4321H248.23V87.0595H250.858V84.4321Z" fill="#263238"/>
<path opacity="0.2" d="M254.762 84.4321H252.135V87.0595H254.762V84.4321Z" fill="#263238"/>
<path opacity="0.2" d="M258.674 84.4321H256.047V87.0595H258.674V84.4321Z" fill="#263238"/>
<path opacity="0.2" d="M262.579 84.4321H259.951V87.0595H262.579V84.4321Z" fill="#263238"/>
<path opacity="0.4" d="M118.923 70.7867H82.9955C82.8957 70.7867 82.8 70.7471 82.7294 70.6765C82.6588 70.6059 82.6191 70.5102 82.6191 70.4103C82.6191 70.3613 82.6289 70.3127 82.6479 70.2674C82.6669 70.2221 82.6948 70.1811 82.7298 70.1468C82.7649 70.1124 82.8064 70.0854 82.852 70.0673C82.8977 70.0492 82.9465 70.0404 82.9955 70.0413H118.923C118.972 70.0404 119.02 70.0492 119.066 70.0673C119.112 70.0854 119.153 70.1124 119.188 70.1468C119.223 70.1811 119.251 70.2221 119.27 70.2674C119.289 70.3127 119.299 70.3613 119.299 70.4103C119.299 70.5102 119.259 70.6059 119.189 70.6765C119.118 70.7471 119.022 70.7867 118.923 70.7867Z" fill="#263238"/>
<path opacity="0.4" d="M121.314 79.6512H82.9955C82.8957 79.6512 82.8 79.6116 82.7294 79.541C82.6588 79.4704 82.6191 79.3747 82.6191 79.2748C82.6191 79.2258 82.6289 79.1772 82.6479 79.1319C82.6669 79.0866 82.6948 79.0456 82.7298 79.0113C82.7649 78.9769 82.8064 78.9499 82.852 78.9318C82.8977 78.9137 82.9465 78.9049 82.9955 78.9058H121.314C121.363 78.9049 121.412 78.9137 121.457 78.9318C121.503 78.9499 121.544 78.9769 121.579 79.0113C121.615 79.0456 121.642 79.0866 121.661 79.1319C121.68 79.1772 121.69 79.2258 121.69 79.2748C121.69 79.3747 121.65 79.4704 121.58 79.541C121.509 79.6116 121.414 79.6512 121.314 79.6512Z" fill="#263238"/>
<path opacity="0.4" d="M97.4091 88.5138H82.9955C82.8957 88.5138 82.8 88.4741 82.7294 88.4035C82.6588 88.333 82.6191 88.2372 82.6191 88.1374C82.6191 88.0883 82.6289 88.0397 82.6479 87.9945C82.6669 87.9492 82.6948 87.9082 82.7298 87.8738C82.7649 87.8395 82.8064 87.8124 82.852 87.7943C82.8977 87.7762 82.9465 87.7674 82.9955 87.7684H97.4091C97.4582 87.7674 97.507 87.7762 97.5526 87.7943C97.5983 87.8124 97.6398 87.8395 97.6749 87.8738C97.7099 87.9082 97.7378 87.9492 97.7568 87.9945C97.7758 88.0397 97.7856 88.0883 97.7855 88.1374C97.7855 88.2372 97.7459 88.333 97.6753 88.4035C97.6047 88.4741 97.509 88.5138 97.4091 88.5138Z" fill="#263238"/>
<path opacity="0.4" d="M109.358 97.3785H82.9955C82.8957 97.3785 82.8 97.3389 82.7294 97.2683C82.6588 97.1977 82.6191 97.102 82.6191 97.0021C82.6191 96.9531 82.6289 96.9045 82.6479 96.8592C82.6669 96.8139 82.6948 96.7729 82.7298 96.7386C82.7649 96.7042 82.8064 96.6772 82.852 96.6591C82.8977 96.641 82.9465 96.6321 82.9955 96.6331H109.358C109.407 96.6321 109.456 96.641 109.501 96.6591C109.547 96.6772 109.588 96.7042 109.623 96.7386C109.659 96.7729 109.686 96.8139 109.705 96.8592C109.724 96.9045 109.734 96.9531 109.734 97.0021C109.734 97.102 109.695 97.1977 109.624 97.2683C109.553 97.3389 109.458 97.3785 109.358 97.3785Z" fill="#263238"/>
<path opacity="0.4" d="M109.358 106.279H82.9955C82.8957 106.279 82.8 106.239 82.7294 106.169C82.6588 106.098 82.6191 106.002 82.6191 105.903C82.6191 105.853 82.6289 105.805 82.6479 105.76C82.6669 105.714 82.6948 105.673 82.7298 105.639C82.7649 105.605 82.8064 105.578 82.852 105.559C82.8977 105.541 82.9465 105.533 82.9955 105.534H109.358C109.407 105.533 109.456 105.541 109.501 105.559C109.547 105.578 109.588 105.605 109.623 105.639C109.659 105.673 109.686 105.714 109.705 105.76C109.724 105.805 109.734 105.853 109.734 105.903C109.734 106.002 109.695 106.098 109.624 106.169C109.553 106.239 109.458 106.279 109.358 106.279Z" fill="#263238"/>
<path opacity="0.4" d="M193.566 70.7867H164.783C164.734 70.7868 164.685 70.777 164.64 70.758C164.595 70.739 164.554 70.7111 164.52 70.6761C164.485 70.641 164.458 70.5995 164.44 70.5538C164.422 70.5082 164.413 70.4594 164.414 70.4103C164.414 70.3125 164.453 70.2186 164.522 70.1494C164.591 70.0802 164.685 70.0413 164.783 70.0413H193.566C193.615 70.0404 193.664 70.0492 193.71 70.0673C193.755 70.0854 193.797 70.1124 193.832 70.1468C193.867 70.1811 193.895 70.2221 193.914 70.2674C193.933 70.3127 193.942 70.3613 193.942 70.4103C193.942 70.5102 193.903 70.6059 193.832 70.6765C193.762 70.7471 193.666 70.7867 193.566 70.7867Z" fill="#263238"/>
<path opacity="0.4" d="M181.617 79.6512H164.805C164.756 79.6512 164.707 79.6414 164.662 79.6224C164.616 79.6034 164.575 79.5755 164.541 79.5405C164.507 79.5054 164.48 79.4639 164.462 79.4183C164.443 79.3726 164.435 79.3239 164.436 79.2748C164.436 79.1769 164.474 79.083 164.544 79.0138C164.613 78.9446 164.707 78.9058 164.805 78.9058H181.617C181.715 78.9058 181.809 78.9446 181.878 79.0138C181.947 79.083 181.986 79.1769 181.986 79.2748C181.987 79.3239 181.978 79.3726 181.96 79.4183C181.942 79.4639 181.915 79.5054 181.88 79.5405C181.846 79.5755 181.805 79.6034 181.76 79.6224C181.715 79.6414 181.666 79.6512 181.617 79.6512Z" fill="#263238"/>
<path opacity="0.4" d="M181.617 88.5137H164.805C164.756 88.5137 164.707 88.5039 164.662 88.4849C164.616 88.4659 164.575 88.4381 164.541 88.403C164.507 88.368 164.48 88.3264 164.462 88.2808C164.443 88.2352 164.435 88.1864 164.436 88.1373C164.436 88.0395 164.474 87.9456 164.544 87.8764C164.613 87.8072 164.707 87.7683 164.805 87.7683H181.617C181.715 87.7683 181.809 87.8072 181.878 87.8764C181.947 87.9456 181.986 88.0395 181.986 88.1373C181.987 88.1864 181.978 88.2352 181.96 88.2808C181.942 88.3264 181.915 88.368 181.88 88.403C181.846 88.4381 181.805 88.4659 181.76 88.4849C181.715 88.5039 181.666 88.5137 181.617 88.5137Z" fill="#263238"/>
<path opacity="0.4" d="M199.543 97.3785H164.805C164.756 97.3785 164.707 97.3687 164.662 97.3497C164.616 97.3307 164.575 97.3028 164.541 97.2678C164.507 97.2327 164.48 97.1912 164.462 97.1456C164.443 97.0999 164.435 97.0511 164.436 97.0021C164.436 96.9042 164.474 96.8103 164.544 96.7411C164.613 96.6719 164.707 96.6331 164.805 96.6331H199.543C199.641 96.6331 199.735 96.6719 199.804 96.7411C199.874 96.8103 199.912 96.9042 199.912 97.0021C199.913 97.0511 199.905 97.0999 199.887 97.1456C199.868 97.1912 199.841 97.2327 199.807 97.2678C199.773 97.3028 199.732 97.3307 199.686 97.3497C199.641 97.3687 199.593 97.3785 199.543 97.3785Z" fill="#263238"/>
<path opacity="0.4" d="M199.543 106.279H164.805C164.756 106.279 164.707 106.269 164.662 106.25C164.616 106.231 164.575 106.203 164.541 106.168C164.507 106.133 164.48 106.092 164.462 106.046C164.443 106 164.435 105.952 164.436 105.902C164.436 105.805 164.474 105.711 164.544 105.642C164.613 105.572 164.707 105.533 164.805 105.533H199.543C199.641 105.533 199.735 105.572 199.804 105.642C199.874 105.711 199.912 105.805 199.912 105.902C199.913 105.952 199.905 106 199.887 106.046C199.868 106.092 199.841 106.133 199.807 106.168C199.773 106.203 199.732 106.231 199.686 106.25C199.641 106.269 199.593 106.279 199.543 106.279Z" fill="#263238"/>
<path d="M165.154 158.751C174.287 152.126 176.319 139.352 169.694 130.219C163.069 121.087 150.295 119.055 141.162 125.68C132.03 132.305 129.998 145.079 136.623 154.211C143.248 163.344 156.022 165.376 165.154 158.751Z" fill="#999999" stroke="#263238" stroke-width="0.209222" stroke-linecap="round" stroke-linejoin="round"/>
<path d="M156.908 130.634C156.693 130.563 156.515 130.41 156.413 130.208C156.31 130.006 156.292 129.772 156.362 129.557L157.58 125.771C157.651 125.556 157.804 125.377 158.006 125.275C158.208 125.173 158.442 125.155 158.657 125.224C158.764 125.258 158.863 125.312 158.949 125.385C159.034 125.457 159.104 125.545 159.155 125.645C159.206 125.745 159.237 125.853 159.245 125.965C159.253 126.076 159.239 126.189 159.204 126.295L157.986 130.081C157.915 130.296 157.762 130.475 157.56 130.578C157.359 130.682 157.125 130.702 156.908 130.634Z" fill="#ACCAF6" stroke="#263238" stroke-width="0.209222" stroke-linecap="round" stroke-linejoin="round"/>
<g opacity="0.4">
<path d="M153.159 166.059C166.32 166.059 176.99 155.389 176.99 142.228C176.99 129.067 166.32 118.397 153.159 118.397C139.998 118.397 129.328 129.067 129.328 142.228C129.328 155.389 139.998 166.059 153.159 166.059Z" stroke="#263238" stroke-width="0.627666" stroke-miterlimit="10" stroke-dasharray="0.2 3.06"/>
</g>
<path d="M106.266 171.963H86.9958C86.8001 171.963 86.6124 171.885 86.474 171.747C86.3356 171.609 86.2578 171.421 86.2578 171.225C86.2578 171.029 86.3356 170.842 86.474 170.703C86.6124 170.565 86.8001 170.487 86.9958 170.487H106.266C106.461 170.487 106.649 170.565 106.788 170.703C106.926 170.842 107.004 171.029 107.004 171.225C107.004 171.322 106.985 171.418 106.948 171.508C106.91 171.597 106.856 171.678 106.788 171.747C106.719 171.815 106.638 171.87 106.548 171.907C106.459 171.944 106.363 171.963 106.266 171.963Z" fill="#263238"/>
<path opacity="0.4" d="M105.041 173.985H88.2285C88.1794 173.985 88.1308 173.975 88.0855 173.956C88.0403 173.937 87.9992 173.91 87.9649 173.875C87.9305 173.839 87.9035 173.798 87.8854 173.752C87.8673 173.707 87.8585 173.658 87.8594 173.609C87.8585 173.56 87.8673 173.511 87.8854 173.465C87.9035 173.42 87.9305 173.378 87.9649 173.343C87.9992 173.308 88.0403 173.28 88.0855 173.261C88.1308 173.242 88.1794 173.232 88.2285 173.232H105.041C105.09 173.232 105.138 173.242 105.184 173.261C105.229 173.28 105.27 173.308 105.304 173.343C105.339 173.378 105.366 173.42 105.384 173.465C105.402 173.511 105.411 173.56 105.41 173.609C105.411 173.658 105.402 173.707 105.384 173.752C105.366 173.798 105.339 173.839 105.304 173.875C105.27 173.91 105.229 173.937 105.184 173.956C105.138 173.975 105.09 173.985 105.041 173.985Z" fill="#263238"/>
<path d="M162.796 171.963H143.519C143.324 171.963 143.136 171.885 142.997 171.747C142.859 171.609 142.781 171.421 142.781 171.225C142.781 171.029 142.859 170.842 142.997 170.703C143.136 170.565 143.324 170.487 143.519 170.487H162.796C162.992 170.487 163.18 170.565 163.318 170.703C163.457 170.842 163.534 171.029 163.534 171.225C163.534 171.421 163.457 171.609 163.318 171.747C163.18 171.885 162.992 171.963 162.796 171.963Z" fill="#263238"/>
<path opacity="0.4" d="M161.564 173.985H144.752C144.703 173.985 144.654 173.975 144.609 173.956C144.564 173.937 144.523 173.91 144.488 173.875C144.454 173.839 144.427 173.798 144.409 173.752C144.391 173.707 144.382 173.658 144.383 173.609C144.382 173.56 144.391 173.511 144.409 173.465C144.427 173.42 144.454 173.378 144.488 173.343C144.523 173.308 144.564 173.28 144.609 173.261C144.654 173.242 144.703 173.232 144.752 173.232H161.564C161.613 173.232 161.662 173.242 161.707 173.261C161.752 173.28 161.793 173.308 161.828 173.343C161.862 173.378 161.889 173.42 161.907 173.465C161.925 173.511 161.934 173.56 161.933 173.609C161.934 173.658 161.925 173.707 161.907 173.752C161.889 173.798 161.862 173.839 161.828 173.875C161.793 173.91 161.752 173.937 161.707 173.956C161.662 173.975 161.613 173.985 161.564 173.985Z" fill="#263238"/>
<path opacity="0.5" d="M270.009 116.101H196.118C194.797 116.101 193.727 117.172 193.727 118.492V172.294C193.727 173.615 194.797 174.685 196.118 174.685H270.009C271.329 174.685 272.4 173.615 272.4 172.294V118.492C272.4 117.172 271.329 116.101 270.009 116.101Z" fill="#ACCAF6"/>
<path d="M264.484 125.268H233.863C233.105 125.268 232.49 125.882 232.49 126.64V128.685C232.49 129.443 233.105 130.057 233.863 130.057H264.484C265.242 130.057 265.856 129.443 265.856 128.685V126.64C265.856 125.882 265.242 125.268 264.484 125.268Z" fill="#999999" stroke="#263238" stroke-width="0.209222" stroke-linecap="round" stroke-linejoin="round"/>
<path d="M262.424 126.744L263.568 128.582L264.712 126.744H262.424Z" fill="#ACCAF6"/>
<path d="M247.184 128.418H235.088C234.892 128.418 234.704 128.341 234.566 128.202C234.427 128.064 234.35 127.876 234.35 127.68C234.35 127.485 234.427 127.297 234.566 127.159C234.704 127.02 234.892 126.942 235.088 126.942H247.184C247.38 126.942 247.567 127.02 247.706 127.159C247.844 127.297 247.922 127.485 247.922 127.68C247.922 127.876 247.844 128.064 247.706 128.202C247.567 128.341 247.38 128.418 247.184 128.418Z" fill="#263238"/>
<path d="M264.484 160.722H233.863C233.105 160.722 232.49 161.337 232.49 162.095V164.139C232.49 164.897 233.105 165.512 233.863 165.512H264.484C265.242 165.512 265.856 164.897 265.856 164.139V162.095C265.856 161.337 265.242 160.722 264.484 160.722Z" fill="#999999" stroke="#263238" stroke-width="0.209222" stroke-linecap="round" stroke-linejoin="round"/>
<path d="M262.424 162.198L263.568 164.036L264.712 162.198H262.424Z" fill="#ACCAF6"/>
<path d="M247.184 163.844H235.088C234.892 163.844 234.704 163.767 234.566 163.628C234.427 163.49 234.35 163.302 234.35 163.106C234.35 162.911 234.427 162.723 234.566 162.585C234.704 162.446 234.892 162.368 235.088 162.368H247.184C247.38 162.368 247.567 162.446 247.706 162.585C247.844 162.723 247.922 162.911 247.922 163.106C247.922 163.302 247.844 163.49 247.706 163.628C247.567 163.767 247.38 163.844 247.184 163.844Z" fill="#263238"/>
<path d="M264.484 134.132H233.863C233.105 134.132 232.49 134.747 232.49 135.505V137.549C232.49 138.307 233.105 138.922 233.863 138.922H264.484C265.242 138.922 265.856 138.307 265.856 137.549V135.505C265.856 134.747 265.242 134.132 264.484 134.132Z" fill="#999999" stroke="#263238" stroke-width="0.209222" stroke-linecap="round" stroke-linejoin="round"/>
<path d="M262.424 135.609L263.568 137.446L264.712 135.609H262.424Z" fill="#ACCAF6"/>
<path d="M250.771 137.275H235.088C234.892 137.275 234.704 137.198 234.566 137.059C234.427 136.921 234.35 136.733 234.35 136.537C234.35 136.342 234.427 136.154 234.566 136.015C234.704 135.877 234.892 135.799 235.088 135.799H250.771C250.966 135.799 251.154 135.877 251.293 136.015C251.431 136.154 251.509 136.342 251.509 136.537C251.509 136.733 251.431 136.921 251.293 137.059C251.154 137.198 250.966 137.275 250.771 137.275Z" fill="#263238"/>
<path d="M264.484 142.995H233.863C233.105 142.995 232.49 143.609 232.49 144.368V146.412C232.49 147.17 233.105 147.785 233.863 147.785H264.484C265.242 147.785 265.856 147.17 265.856 146.412V144.368C265.856 143.609 265.242 142.995 264.484 142.995Z" fill="#999999" stroke="#263238" stroke-width="0.209222" stroke-linecap="round" stroke-linejoin="round"/>
<path d="M262.424 144.471L263.568 146.316L264.712 144.471H262.424Z" fill="#ACCAF6"/>
<path d="M247.184 146.132H235.088C234.892 146.132 234.704 146.055 234.566 145.916C234.427 145.778 234.35 145.59 234.35 145.394C234.35 145.199 234.427 145.011 234.566 144.872C234.704 144.734 234.892 144.656 235.088 144.656H247.184C247.38 144.656 247.567 144.734 247.706 144.872C247.844 145.011 247.922 145.199 247.922 145.394C247.922 145.59 247.844 145.778 247.706 145.916C247.567 146.055 247.38 146.132 247.184 146.132Z" fill="#263238"/>
<path d="M264.484 151.859H233.863C233.105 151.859 232.49 152.474 232.49 153.232V155.276C232.49 156.035 233.105 156.649 233.863 156.649H264.484C265.242 156.649 265.856 156.035 265.856 155.276V153.232C265.856 152.474 265.242 151.859 264.484 151.859Z" fill="#999999" stroke="#263238" stroke-width="0.209222" stroke-linecap="round" stroke-linejoin="round"/>
<path d="M262.424 153.336L263.568 155.173L264.712 153.336H262.424Z" fill="#ACCAF6"/>
<path d="M250.771 154.988H235.088C234.892 154.988 234.704 154.91 234.566 154.771C234.427 154.633 234.35 154.445 234.35 154.249C234.35 154.054 234.427 153.866 234.566 153.728C234.704 153.589 234.892 153.511 235.088 153.511H250.771C250.966 153.511 251.154 153.589 251.293 153.728C251.431 153.866 251.509 154.054 251.509 154.249C251.509 154.445 251.431 154.633 251.293 154.771C251.154 154.91 250.966 154.988 250.771 154.988Z" fill="#263238"/>
<path d="M225.071 128.418H201.019C200.824 128.418 200.636 128.341 200.497 128.202C200.359 128.064 200.281 127.876 200.281 127.68C200.281 127.485 200.359 127.297 200.497 127.159C200.636 127.02 200.824 126.942 201.019 126.942H225.071C225.267 126.942 225.455 127.02 225.593 127.159C225.732 127.297 225.81 127.485 225.81 127.68C225.81 127.876 225.732 128.064 225.593 128.202C225.455 128.341 225.267 128.418 225.071 128.418Z" fill="#263238"/>
<path d="M217.898 137.275H201.019C200.824 137.275 200.636 137.198 200.497 137.059C200.359 136.921 200.281 136.733 200.281 136.537C200.281 136.342 200.359 136.154 200.497 136.015C200.636 135.877 200.824 135.799 201.019 135.799H217.898C218.094 135.799 218.281 135.877 218.42 136.015C218.558 136.154 218.636 136.342 218.636 136.537C218.636 136.733 218.558 136.921 218.42 137.059C218.281 137.198 218.094 137.275 217.898 137.275Z" fill="#263238"/>
<path d="M220.289 146.132H201.019C200.824 146.132 200.636 146.055 200.497 145.916C200.359 145.778 200.281 145.59 200.281 145.394C200.281 145.199 200.359 145.011 200.497 144.872C200.636 144.734 200.824 144.656 201.019 144.656H220.289C220.485 144.656 220.673 144.734 220.811 144.872C220.949 145.011 221.027 145.199 221.027 145.394C221.027 145.59 220.949 145.778 220.811 145.916C220.673 146.055 220.485 146.132 220.289 146.132Z" fill="#263238"/>
<path d="M214.312 154.988H201.027C200.831 154.988 200.644 154.91 200.505 154.771C200.367 154.633 200.289 154.445 200.289 154.249C200.289 154.054 200.367 153.866 200.505 153.728C200.644 153.589 200.831 153.511 201.027 153.511H214.312C214.507 153.511 214.695 153.589 214.833 153.728C214.972 153.866 215.05 154.054 215.05 154.249C215.05 154.445 214.972 154.633 214.833 154.771C214.695 154.91 214.507 154.988 214.312 154.988Z" fill="#263238"/>
<path d="M217.898 163.844H201.019C200.824 163.844 200.636 163.767 200.497 163.628C200.359 163.49 200.281 163.302 200.281 163.106C200.281 162.911 200.359 162.723 200.497 162.585C200.636 162.446 200.824 162.368 201.019 162.368H217.898C218.094 162.368 218.281 162.446 218.42 162.585C218.558 162.723 218.636 162.911 218.636 163.106C218.636 163.302 218.558 163.49 218.42 163.628C218.281 163.767 218.094 163.844 217.898 163.844Z" fill="#263238"/>
<path d="M116.868 145.087C118.442 133.915 110.662 123.582 99.4896 122.008C88.3176 120.434 77.9848 128.215 76.4107 139.387C74.8366 150.559 82.6173 160.892 93.7893 162.466C104.961 164.04 115.294 156.259 116.868 145.087Z" fill="#999999" stroke="#263238" stroke-width="0.209222" stroke-linecap="round" stroke-linejoin="round"/>
<path d="M108.841 141.755C108.836 141.643 108.853 141.531 108.892 141.426C108.93 141.321 108.989 141.224 109.066 141.142C109.142 141.059 109.233 140.993 109.335 140.946C109.437 140.899 109.548 140.873 109.66 140.87L113.63 140.715C113.743 140.71 113.854 140.727 113.96 140.766C114.065 140.804 114.162 140.863 114.244 140.94C114.327 141.016 114.393 141.107 114.44 141.209C114.486 141.312 114.512 141.422 114.516 141.534C114.521 141.646 114.504 141.758 114.465 141.863C114.427 141.969 114.367 142.065 114.291 142.148C114.215 142.23 114.123 142.296 114.021 142.343C113.919 142.39 113.809 142.416 113.697 142.42L109.726 142.575C109.614 142.579 109.502 142.562 109.397 142.524C109.292 142.485 109.195 142.426 109.113 142.35C109.03 142.273 108.964 142.182 108.917 142.08C108.87 141.978 108.844 141.867 108.841 141.755Z" fill="#ACCAF6" stroke="#263238" stroke-width="0.209222" stroke-linecap="round" stroke-linejoin="round"/>
<g opacity="0.4">
<path d="M96.6355 166.059C109.797 166.059 120.466 155.389 120.466 142.228C120.466 129.067 109.797 118.397 96.6355 118.397C83.4741 118.397 72.8047 129.067 72.8047 142.228C72.8047 155.389 83.4741 166.059 96.6355 166.059Z" stroke="#263238" stroke-width="0.627666" stroke-miterlimit="10" stroke-dasharray="0.2 3.06"/>
</g>
<path d="M174.96 182.819L172.598 181.904L170.244 182.819" stroke="#263238" stroke-width="0.209222" stroke-linecap="round" stroke-linejoin="round"/>
<path d="M174.96 184.613L172.598 183.698L170.244 184.613" stroke="#263238" stroke-width="0.209222" stroke-linecap="round" stroke-linejoin="round"/>
<path d="M270.185 43.5684H75.0149C73.7921 43.5684 72.8008 44.5596 72.8008 45.7824V54.2697C72.8008 55.4925 73.7921 56.4838 75.0149 56.4838H270.185C271.408 56.4838 272.399 55.4925 272.399 54.2697V45.7824C272.399 44.5596 271.408 43.5684 270.185 43.5684Z" fill="#ACCAF6" stroke="#263238" stroke-width="0.209222" stroke-linecap="round" stroke-linejoin="round"/>
<path d="M162.023 50.7576V49.2815L160.923 49.1856C160.858 48.9566 160.766 48.7361 160.65 48.5288L161.388 47.6874L160.355 46.6542L159.513 47.3922C159.306 47.2743 159.086 47.1826 158.856 47.1191L158.76 46.0269H157.284L157.196 47.1191C156.966 47.1812 156.745 47.273 156.539 47.3922L155.698 46.6542L154.664 47.6874L155.402 48.5288C155.291 48.7379 155.202 48.958 155.137 49.1856L154.037 49.2815V50.7576L155.137 50.8535C155.202 51.0811 155.291 51.3013 155.402 51.5104L154.664 52.3443L155.698 53.385L156.539 52.6469C156.745 52.7637 156.966 52.853 157.196 52.9126L157.284 54.0123H158.76L158.856 52.9126C159.086 52.8517 159.306 52.7625 159.513 52.6469L160.355 53.385L161.388 52.3443L160.65 51.5104C160.766 51.303 160.858 51.0825 160.923 50.8535L162.023 50.7576ZM158 51.7244C157.663 51.7244 157.333 51.6242 157.052 51.4366C156.772 51.2489 156.553 50.9822 156.425 50.6703C156.296 50.3583 156.262 50.0152 156.329 49.6842C156.395 49.3533 156.558 49.0496 156.797 48.8115C157.037 48.5733 157.341 48.4115 157.672 48.3466C158.003 48.2816 158.346 48.3165 158.658 48.4466C158.969 48.5768 159.235 48.7965 159.421 49.0778C159.608 49.3591 159.707 49.6895 159.705 50.0269C159.705 50.2505 159.661 50.4718 159.575 50.6782C159.489 50.8847 159.364 51.0721 159.205 51.2298C159.047 51.3876 158.859 51.5124 158.652 51.5973C158.445 51.6822 158.224 51.7254 158 51.7244Z" fill="#263238"/>
<path d="M165.55 46.4988C166.598 46.4988 167.129 47.1261 167.129 48.2184V48.4398H166.118V48.152C166.118 47.6649 165.919 47.4804 165.579 47.4804C165.24 47.4804 165.041 47.6649 165.041 48.152C165.041 48.639 165.255 49.0228 165.956 49.628C166.856 50.4177 167.144 50.986 167.144 51.7683C167.183 51.9931 167.169 52.2239 167.104 52.4426C167.038 52.6612 166.923 52.8617 166.767 53.0284C166.612 53.195 166.419 53.3232 166.205 53.403C165.991 53.4827 165.762 53.5118 165.535 53.4879C164.48 53.4879 163.934 52.8605 163.934 51.7683V51.3476H164.952V51.8347C164.952 52.3292 165.166 52.4989 165.506 52.4989C165.845 52.4989 166.066 52.3292 166.066 51.8347C166.066 51.3402 165.852 50.9638 165.144 50.3586C164.244 49.5616 163.963 49.0007 163.963 48.211C163.963 47.1482 164.502 46.4988 165.55 46.4988Z" fill="#263238"/>
<path d="M168.834 49.4882H170.311V50.4624H168.834V52.4698H170.694V53.4514H167.742V46.6025H170.694V47.5767H168.834V49.4882Z" fill="#263238"/>
<path d="M171.041 46.6025H174.37V47.5767H173.248V53.4809H172.17V47.5767H171.041V46.6025Z" fill="#263238"/>
<path d="M174.525 46.6025H177.854V47.5767H176.725V53.4809H175.655V47.5767H174.525V46.6025Z" fill="#263238"/>
<path d="M178.318 46.6025H179.396V53.4514H178.318V46.6025Z" fill="#263238"/>
<path d="M181.158 48.4919V53.4514H180.191V46.6025H181.542L182.627 50.6986V46.6025H183.586V53.4514H182.487L181.158 48.4919Z" fill="#263238"/>
<path d="M185.973 49.6345H187.449V51.8043C187.488 52.0292 187.474 52.26 187.408 52.4786C187.343 52.6973 187.228 52.8978 187.072 53.0644C186.916 53.2311 186.724 53.3593 186.51 53.439C186.296 53.5187 186.067 53.5478 185.84 53.5239C184.784 53.5239 184.238 52.8966 184.238 51.8043V48.2397C184.238 47.1474 184.784 46.5201 185.84 46.5201C186.067 46.4962 186.296 46.5253 186.51 46.605C186.724 46.6847 186.916 46.8129 187.072 46.9796C187.228 47.1462 187.343 47.3467 187.408 47.5654C187.474 47.784 187.488 48.0148 187.449 48.2397V48.9113H186.497V48.1732C186.497 47.6861 186.283 47.5016 185.936 47.5016C185.589 47.5016 185.382 47.6861 185.382 48.1732V51.8634C185.382 52.3578 185.596 52.5276 185.936 52.5276C186.275 52.5276 186.497 52.3578 186.497 51.8634V50.6013H186.01L185.973 49.6345Z" fill="#263238"/>
<path d="M189.618 46.4988C190.666 46.4988 191.205 47.1261 191.205 48.2184V48.4398H190.187V48.152C190.187 47.6649 189.987 47.4804 189.648 47.4804C189.308 47.4804 189.109 47.6649 189.109 48.152C189.109 48.639 189.323 49.0228 190.032 49.628C190.386 49.8633 190.679 50.1807 190.884 50.5534C191.09 50.926 191.203 51.3428 191.212 51.7683C191.212 52.8605 190.666 53.4879 189.611 53.4879C189.384 53.5118 189.155 53.4827 188.941 53.403C188.727 53.3232 188.535 53.195 188.379 53.0284C188.223 52.8617 188.108 52.6612 188.042 52.4426C187.977 52.2239 187.963 51.9931 188.002 51.7683V51.3476H189.021V51.8347C189.021 52.3292 189.235 52.4989 189.581 52.4989C189.928 52.4989 190.135 52.3292 190.135 51.8347C190.135 51.3402 189.921 50.9638 189.22 50.3586C188.319 49.5616 188.032 49.0007 188.032 48.211C188.032 47.1482 188.57 46.4988 189.618 46.4988Z" fill="#263238"/>
<g opacity="0.4">
<path d="M158.773 36.8516L66.4531 129.156V43.324C66.4531 41.6074 67.135 39.9611 68.3489 38.7473C69.5627 37.5335 71.209 36.8516 72.9256 36.8516H158.773Z" fill="white"/>
<path d="M189.29 36.8516L66.4531 159.688V154.751L184.353 36.8516H189.29Z" fill="white"/>
<path d="M239.336 36.8516L89.4429 186.744H87.9004L237.786 36.8516H239.336Z" fill="white"/>
</g>
<path opacity="0.3" d="M254.77 69.667C249.604 69.3349 248.231 78.2059 248.231 87.0696C248.231 95.9333 251.183 101.66 252.135 104.782C253.087 107.904 253.043 118.273 251.515 122.436C249.987 126.598 243.515 139.698 239.301 147.344C235.087 154.99 240.998 178.23 244.327 184.142C247.655 190.054 265.301 195.618 269.183 202.593C273.065 209.567 271.302 211.574 274.859 216.763C278.416 221.951 295.258 240.128 304.542 272.698L312.594 162.164L282.084 129.336L254.77 69.667Z" fill="black" fill-opacity="0.7"/>
<path d="M303.384 277.553L303.251 277.715L303.871 277.457C303.687 277.501 303.517 277.538 303.384 277.553ZM348.013 222.445C347.444 221.507 346.906 220.6 346.389 219.721C335.85 201.758 333.975 194.053 332.721 188.872C332.25 186.515 331.487 184.227 330.448 182.06L329.835 180.879C328.091 177.803 326.754 174.513 325.857 171.093C325.222 168.37 326.115 161.735 326.979 155.321C327.599 150.694 328.189 146.332 328.13 143.852V142.974C327.983 136.48 327.673 122.974 326.322 119.188C325.023 115.549 323.717 114.973 321.34 113.94L320.602 113.601C319.709 113.202 318.204 112.368 316.462 111.387C312.551 109.224 307.672 106.516 305.17 106.102C302.827 105.766 300.445 105.808 298.115 106.228C295.074 103.763 289.901 100.545 288.329 100.442C286.757 100.338 282.823 101.453 282.166 101.637C281.289 100.91 280.345 100.268 279.347 99.7185C277.096 98.7 273.302 98.8329 272.616 98.8698C270.026 94.6335 267.45 90.3973 266.38 88.5375C264.409 85.2163 258.999 73.1349 257.405 69.5259C257.125 68.8912 256.963 68.5148 256.948 68.4927C256.928 68.4484 256.895 68.412 256.852 68.3894C256.8 68.3894 252.077 66.7067 250.099 71.0906C248.121 75.4744 250.497 85.5854 253.014 89.2607C254.232 91.0394 257.479 98.2351 260.771 105.674C260.535 105.888 259.863 106.471 258.94 107.246C256.291 109.46 251.56 113.21 248.948 114.058C246.062 114.988 246.32 129.66 246.519 141.454C246.593 145.793 246.66 149.572 246.519 151.786C246.409 153.89 248.173 156.428 250.874 159.166H250.911C254.282 162.4 257.825 165.45 261.524 168.303C268.306 173.742 275.317 179.374 276.04 183.322C276.676 187.279 278.457 190.963 281.162 193.92C284.786 197.654 297.768 254.394 301.827 272.232C302.565 275.545 303.03 277.509 303.052 277.568L303.414 277.494C306.004 274.283 348.005 222.636 347.976 222.629C347.998 222.604 348.013 222.574 348.019 222.542C348.026 222.509 348.024 222.476 348.013 222.445ZM260.055 122.125C260.571 121.623 264.055 118.147 264.719 114.693C267.081 120.022 268.542 123.225 268.904 123.549C269.265 123.874 269.199 125.572 269.14 127.195C269.036 128.618 269.036 130.046 269.14 131.468C268.52 131.985 264.549 135.402 263.686 138.221L260.505 134.258L260.055 122.125Z" fill="white"/>
<path opacity="0.4" d="M271.581 127.358C272.673 122.716 267.153 118.081 260.717 105.683C260.481 105.897 259.809 106.48 258.887 107.255C259.861 109.889 260.569 112.937 259.226 114.03C256.673 116.111 255.676 116.177 255.794 118.458C255.913 120.738 258.872 136.849 257.625 140.599C256.378 144.348 265.005 145.381 266.348 146.126C267.691 146.872 266.289 140.289 269.566 137.521C272.843 134.753 270.363 132.532 271.581 127.358ZM263.713 138.244L260.533 134.281L260.053 122.126C260.57 121.624 264.053 118.148 264.717 114.694C267.079 120.022 268.54 123.225 268.902 123.55C269.263 123.875 269.197 125.572 269.138 127.196C269.034 128.619 269.034 130.047 269.138 131.469C268.548 132.008 264.577 135.425 263.713 138.244Z" fill="#ACCAF6"/>
<path opacity="0.4" d="M301.797 272.29C297.738 254.452 284.756 197.713 281.132 193.978C278.427 191.022 276.646 187.338 276.011 183.38C275.273 179.425 268.276 173.786 261.494 168.362C257.795 165.508 254.252 162.458 250.881 159.225C257.523 164.767 273.9 176.199 276.874 176.295C279.959 176.384 280.217 188.775 285.214 192.023C289.996 195.115 309.332 249.67 301.797 272.29Z" fill="#ACCAF6"/>
<path opacity="0.4" d="M346.388 219.714C337.339 217.256 329.221 198.813 328.764 194.311C328.225 189.027 328.321 184.982 322.04 177.912C315.76 170.842 319.516 167.011 319.516 167.011C320.018 169.38 324.269 173.093 324.269 173.093C322.557 167.771 324.513 148.443 325.317 144.834C326.055 141.66 326.335 122.08 322.365 115.601C317.723 112.7 318.158 117.615 314.52 117.364C312.549 117.224 309.272 115.003 306.224 114.944C303.405 114.907 303.383 118.745 295.442 115.054C291.449 113.195 289.538 118.885 284.94 116.53C278.01 112.922 273.353 99.829 268.814 95.9469C266.688 94.1093 261.862 85.9762 260.924 80.9724C260.186 77.0978 255.072 80.6994 252.644 76.5443C250.651 73.1125 251.736 68.1677 257.36 69.5921C258.969 73.201 264.364 85.2825 266.334 88.6036C267.434 90.4634 269.98 94.6997 272.57 98.9359C273.257 98.899 277.05 98.7662 279.301 99.7847C280.299 100.334 281.243 100.977 282.12 101.704C282.777 101.519 286.696 100.39 288.283 100.508C289.87 100.626 295.028 103.829 298.069 106.294C300.399 105.875 302.781 105.832 305.125 106.169C307.627 106.582 312.505 109.29 316.416 111.453C318.158 112.427 319.664 113.261 320.557 113.667L321.295 114.006C323.671 115.04 324.985 115.615 326.276 119.254C327.627 123.04 327.937 136.546 328.085 143.04V143.919C328.144 146.398 327.553 150.76 326.933 155.387C326.07 161.801 325.177 168.436 325.811 171.159C326.708 174.58 328.045 177.869 329.789 180.945L330.402 182.126C331.441 184.293 332.205 186.581 332.675 188.938C333.974 194.045 335.849 201.75 346.388 219.714Z" fill="#ACCAF6"/>
<path d="M284.61 113.749C282.423 112.991 280.523 111.576 279.17 109.697C277.001 106.612 268.528 92.5898 266.181 88.634C263.834 84.6782 256.742 68.5597 256.742 68.5597C256.742 68.5597 252.144 66.877 250.218 71.165C248.291 75.4529 250.476 85.3129 253.118 89.1654C255.76 93.0179 268.019 122.472 269.03 123.439C270.041 124.406 268.292 132.118 270.285 134.052" stroke="#263238" stroke-width="0.209222" stroke-linecap="round" stroke-linejoin="round"/>
<path d="M269.36 131.564C269.36 131.564 264.445 135.601 263.795 138.627L260.364 134.346L259.869 122.051C259.869 122.051 264.297 117.881 264.629 114.058" stroke="#263238" stroke-width="0.209222" stroke-linecap="round" stroke-linejoin="round"/>
<path d="M260.947 105.719C260.947 105.719 252.777 113.003 248.954 114.235C245.131 115.468 247.087 143.668 246.666 151.808C246.246 159.949 274.652 174.96 276.187 183.351C276.817 187.275 278.585 190.927 281.272 193.853C285.634 198.348 303.192 277.553 303.192 277.553" stroke="#263238" stroke-width="0.209222" stroke-linecap="round" stroke-linejoin="round"/>
<path d="M272.475 99.0539C272.475 99.0539 276.814 98.7882 279.228 99.8731C281.641 100.958 291.294 109.755 293.641 111.445C295.988 113.135 299.545 113.851 300.202 115.623" stroke="#263238" stroke-width="0.209222" stroke-linecap="round" stroke-linejoin="round"/>
<path d="M282.084 101.851C282.084 101.851 286.586 100.507 288.269 100.633C289.951 100.758 296.247 104.714 299.044 107.275C301.182 109.289 303.668 110.899 306.38 112.028" stroke="#263238" stroke-width="0.209222" stroke-linecap="round" stroke-linejoin="round"/>
<path d="M298.025 106.42C300.359 105.988 302.747 105.94 305.096 106.28C308.697 106.871 317.642 112.472 320.483 113.756C323.325 115.04 324.72 115.306 326.129 119.247C327.539 123.188 327.812 138 327.952 143.853C328.093 149.705 324.565 166.377 325.687 171.16C326.808 175.942 328.978 179.61 330.284 182.171C334.13 189.714 330.572 193.788 347.857 222.578" stroke="#263238" stroke-width="0.209222" stroke-linecap="round" stroke-linejoin="round"/>
<path d="M303.531 117.306C306.764 120.944 305.347 126.996 304.616 128.745C303.886 130.494 305.258 138 305.487 141.978" stroke="#263238" stroke-width="0.209222" stroke-linecap="round" stroke-linejoin="round"/>
<path d="M280.18 117.587C286.711 118.524 288.261 123.233 288.298 126.2" stroke="#263238" stroke-width="0.209222" stroke-linecap="round" stroke-linejoin="round"/>
<path d="M308.822 114.398C310.785 114.494 315.428 118.162 315.797 123.291" stroke="#263238" stroke-width="0.209222" stroke-linecap="round" stroke-linejoin="round"/>
<path d="M259.869 122.051C259.869 122.051 259.234 119.15 258.297 118.752" stroke="#263238" stroke-width="0.209222" stroke-linecap="round" stroke-linejoin="round"/>
<path d="M260.365 134.325C260.649 136.019 261.051 137.691 261.568 139.329C262.225 141.1 261.052 143.602 261.052 143.602" stroke="#263238" stroke-width="0.209222" stroke-linecap="round" stroke-linejoin="round"/>
<path d="M263.796 138.628C263.596 141.432 266.298 144.79 266.991 144.347" stroke="#263238" stroke-width="0.209222" stroke-linecap="round" stroke-linejoin="round"/>
<path opacity="0.3" d="M109.955 129.291C113.859 131.247 110.095 151.771 103.755 157.203L97.7847 180.576L103.755 206.141L118.597 196.835C118.597 196.835 120.073 187.728 125.483 184.613C130.893 181.499 130.907 186.429 130.907 186.429C130.907 186.429 125.121 200.805 125.483 206.141C125.844 211.477 115.822 221.359 111.099 228.489C106.375 235.618 94.6112 233.087 82.7807 240.769C70.9502 248.452 36.2852 285.051 36.2852 285.051L58.4997 194.289L109.955 129.291Z" fill="black" fill-opacity="0.7"/>
<path d="M116.641 188.871C115.549 190.231 114.563 191.672 113.689 193.181C113.202 193.978 112.744 194.812 112.294 195.668C112.088 196.045 111.888 196.406 111.697 196.812L111.623 196.96C111.401 197.395 111.187 197.831 110.966 198.273C110.942 198.334 110.915 198.393 110.885 198.45C110.693 198.834 110.516 199.189 110.339 199.602C110.161 200.015 109.925 200.495 109.733 200.938L109.209 202.126C108.7 203.277 108.22 204.428 107.733 205.535C107.246 206.643 106.885 207.631 106.493 208.606C106.449 208.702 106.412 208.798 106.375 208.894C106.272 209.137 106.176 209.381 106.088 209.632C105.623 210.805 105.195 211.883 104.803 212.82C104.778 212.896 104.746 212.97 104.707 213.041C104.707 213.1 104.648 213.167 104.611 213.226C103.79 214.52 102.694 215.619 101.401 216.444C101.143 216.628 100.877 216.813 100.597 216.99C99.8586 217.499 98.9803 218.001 98.0799 218.51L97.3936 218.879C96.8401 219.182 96.2792 219.477 95.6961 219.765C89.0539 223.145 80.8618 226.185 78.7732 228.444C76.0056 231.455 75.5259 233.913 72.131 237.455C71.1582 238.471 70.1177 239.421 69.0165 240.296C64.7286 243.773 54.7653 262.312 48.6175 274.246C45.5547 280.187 43.4514 284.497 43.4514 284.497L1.03711 264.57C1.03711 264.57 23.3033 233.662 24.4251 228.407C25.5469 223.152 28.7721 217.801 28.7721 217.801C28.7721 217.801 28.2186 205.949 29.023 197.624C29.8274 189.299 31.8275 175.299 32.7722 169.704C33.7168 164.11 39.2004 155.357 41.8277 148.693C44.4551 142.029 45.968 136.006 48.2928 131.91C50.6176 127.814 52.8759 120.559 54.2413 119.792C55.6066 119.024 57.0532 120.235 58.5366 122.353C60.02 124.471 56.4406 136.781 56.4406 136.781C59.0385 132.501 60.6695 123.659 61.6068 121.364C62.5441 119.069 64.3522 108.411 64.3522 108.411C65.3081 107.793 66.3572 107.332 67.4593 107.046C68.4293 106.774 69.4595 106.805 70.4114 107.135C73.0831 108.183 74.5001 114.043 73.7842 120.825C73.0683 127.608 69.2527 142.169 69.2527 142.169L80.3231 125.357C82.4633 122.094 86.1535 109.275 86.8103 108.448C87.29 107.843 90.2864 106.352 92.6259 107.806C93.6658 108.508 94.4259 109.553 94.7736 110.758C96.7146 116.419 91.0835 129.143 90.3455 131.637C89.7181 133.674 84.8324 142.073 83.0759 145.077L82.515 146.043C83.0169 145.305 86.5372 140.368 89.1572 139.578C91.9912 138.73 97.6076 135.091 101.209 132.899C104.811 130.707 104.973 123.076 109.962 129.209C112.073 131.807 110.848 136.427 108.995 140.626C107.143 144.826 98.2792 152.376 98.2792 152.376C97.9397 153.328 97.1058 155.534 96.0651 158.221C96.0282 158.331 95.984 158.435 95.9397 158.546C95.7626 159.033 95.5707 159.534 95.3714 160.022C95.1131 160.701 94.84 161.402 94.567 162.103C94.4193 162.472 94.2791 162.841 94.1389 163.217C93.9987 163.594 93.7994 164.081 93.6297 164.509C93.5485 164.73 93.4599 164.944 93.3787 165.158C93.3787 165.217 93.3344 165.284 93.3049 165.335C93.1647 165.704 93.0171 166.073 92.8769 166.428L92.6333 167.048C92.3381 167.786 92.0429 168.524 91.7698 169.225C91.7359 169.294 91.7063 169.366 91.6813 169.439C91.6075 169.608 91.5337 169.793 91.4673 169.963C91.3196 170.324 91.1794 170.701 91.0392 171.003C90.899 171.306 90.7735 171.645 90.6554 171.948C90.0945 173.276 89.6591 174.251 89.4377 174.627C88.3011 176.546 92.006 196.701 94.9581 194.185C97.9102 191.668 105.63 179.188 105.63 179.188C106.715 171.978 110.796 166.258 116.272 163.881C116.735 163.679 117.208 163.502 117.689 163.35C123.911 161.394 124.575 166.184 124.575 166.184C116.951 184.029 121.844 182.598 116.641 188.871Z" fill="white"/>
<path opacity="0.4" d="M69.2764 142.191L58.7227 158.317C59.6157 152.413 64.8556 139.793 64.8556 139.793C65.5937 134.959 71.9628 112.405 69.8299 108.855C69.1487 108.128 68.3473 107.524 67.4609 107.069C68.4309 106.796 69.461 106.827 70.413 107.157C73.0846 108.205 74.5016 114.065 73.7857 120.848C73.0698 127.63 69.2764 142.191 69.2764 142.191Z" fill="#ACCAF6"/>
<path opacity="0.4" d="M58.5 122.374C58.5517 122.441 58.6845 122.618 58.8764 122.898C58.8054 122.576 58.7167 122.259 58.6107 121.946L58.5 122.374Z" fill="#ACCAF6"/>
<path opacity="0.4" d="M47.0078 158.126C47.0078 158.126 54.6095 145.188 57.7903 133.955C58.9712 129.8 59.5395 125.874 58.9048 122.937C58.8338 122.615 58.7451 122.297 58.6391 121.984L58.5062 122.383C57.9969 121.611 57.3863 120.911 56.6907 120.302C57.2811 122.221 57.6058 125.748 54.7718 130.546C50.3363 138.059 49.4802 148.509 47.0078 158.126Z" fill="#ACCAF6"/>
<path opacity="0.4" d="M95.4235 197.564C99.6081 194.177 103.003 184.553 107.424 179.66C107.424 179.66 107.284 170.922 116.28 163.984C110.782 166.361 106.723 172.103 105.638 179.291C105.638 179.291 97.9106 191.771 94.9659 194.288C92.0212 196.804 88.3237 176.649 89.4455 174.73C89.6669 174.354 90.1023 173.379 90.6632 172.044C90.7887 171.748 90.9142 171.431 91.0544 171.106C91.1946 170.782 91.3275 170.42 91.4751 170.066C91.5489 169.896 91.6153 169.711 91.6891 169.542C91.7141 169.469 91.7437 169.397 91.7777 169.328C92.0507 168.634 92.3385 167.903 92.6411 167.151C92.7223 166.944 92.8035 166.737 92.8921 166.531C93.0249 166.169 93.1725 165.793 93.3201 165.438C93.3201 165.379 93.3201 165.32 93.3865 165.254C93.4677 165.047 93.5563 164.833 93.6375 164.612C93.8072 164.184 93.9696 163.756 94.1467 163.32L94.5748 162.206C94.8478 161.505 95.1209 160.803 95.3792 160.125C95.5711 159.615 95.763 159.113 95.9549 158.648C95.9918 158.538 96.036 158.427 96.0729 158.324C95.6744 159.099 88.3016 173.35 85.5044 176.376C82.7073 179.402 85.2461 200.79 91.0027 199.004C90.9953 198.989 92.309 200.081 95.4235 197.564Z" fill="#ACCAF6"/>
<path opacity="0.4" d="M28.9857 197.647C28.1813 205.972 28.7348 217.825 28.7348 217.825C28.7348 217.825 25.5023 223.168 24.3878 228.43C24.0852 229.847 22.2476 233.124 19.7383 237.153C20.3804 236.29 27.2514 227.042 28.1813 223.411C29.1555 219.596 30.5282 218.85 33.9305 214.776C37.3328 210.703 40.4177 212.112 40.4177 212.112C40.4177 212.112 38.4398 224.076 43.4731 217.278C48.5065 210.481 51.5398 201.721 52.7354 168.827C52.7354 168.827 50.5213 172.392 48.3072 184.141C46.0931 195.89 42.3366 198.614 42.3366 198.614C40.2035 190.264 39.0469 181.695 38.89 173.078C38.89 173.078 36.1224 186.754 35.2737 193.101C34.425 199.448 34.2257 185.189 33.7976 176.289C33.3844 167.941 34.1002 165.011 36.5726 159.831C34.794 163.469 33.2441 166.975 32.7718 169.727C31.7902 175.322 29.7902 189.322 28.9857 197.647Z" fill="#ACCAF6"/>
<path opacity="0.4" d="M72.1013 237.455C71.1286 238.471 70.088 239.421 68.9869 240.296C64.699 243.773 54.7356 262.312 48.5879 274.246C49.8204 269.013 52.0345 261.648 55.7541 255.101C62.4111 243.389 68.9795 240.304 72.1013 237.455Z" fill="#ACCAF6"/>
<path opacity="0.4" d="M90.3531 131.682C89.7258 133.719 84.84 142.118 83.0835 145.122C80.8695 147.69 74.8103 160.281 73.3269 162.096C71.8434 163.912 69.002 164.067 70.2641 161.277C72.3231 156.723 78.5668 141.129 81.792 138.103C85.0172 135.077 89.9767 122.28 92.486 115.084C93.748 111.445 93.3642 109.18 92.6631 107.755C93.7029 108.457 94.4631 109.502 94.8108 110.707C96.7296 116.464 91.128 129.158 90.3531 131.682Z" fill="#ACCAF6"/>
<path opacity="0.4" d="M101.202 132.965C97.6153 135.18 92.0211 138.774 89.1797 139.608C89.5635 139.534 94.6189 138.597 96.4418 141.696C98.3312 144.936 98.2722 152.435 98.2722 152.435C98.2722 152.435 107.128 144.885 108.988 140.685C110.848 136.486 112.066 131.866 109.955 129.261C104.966 123.142 104.811 130.781 101.202 132.965Z" fill="#ACCAF6"/>
<path d="M43.4143 284.518C43.4143 284.518 62.6029 245.499 68.9942 240.296C75.3855 235.093 75.3043 232.178 78.7583 228.443C82.2122 224.709 102.316 218.849 104.796 212.812C107.276 206.775 111.438 195.158 116.648 188.878C121.859 182.597 116.951 184.029 124.582 166.287C124.582 166.287 123.903 161.497 117.689 163.453C111.475 165.409 106.788 171.475 105.63 179.298C105.63 179.298 97.9026 191.771 94.9505 194.288C91.9984 196.804 88.3083 176.649 89.4375 174.73C90.5666 172.811 97.1203 155.615 98.2938 152.464C98.2938 152.464 107.15 144.906 109.002 140.714C110.855 136.522 112.087 131.858 109.977 129.29C104.988 123.142 104.811 130.766 101.224 132.98C97.6369 135.194 92.0132 138.81 89.1718 139.659C86.3304 140.508 82.4336 146.205 82.4336 146.205C82.4336 146.205 89.5777 134.175 90.3526 131.681C91.1275 129.186 96.7218 116.463 94.7808 110.802C92.8398 105.142 87.4817 107.629 86.8249 108.455C86.168 109.282 82.4779 122.094 80.3302 125.356L69.2599 142.19C69.2599 142.19 73.0755 127.644 73.7914 120.854C74.5072 114.064 73.0533 108.204 70.4186 107.149C67.7838 106.094 64.3446 108.433 64.3446 108.433C64.3446 108.433 62.566 119.083 61.5918 121.378C60.6176 123.673 58.9866 132.522 56.4256 136.803C56.4256 136.803 60.0051 124.485 58.5216 122.367C57.0382 120.249 55.5695 119.046 54.2337 119.813C52.8979 120.581 50.5952 127.828 48.2778 131.932C45.9604 136.035 44.4327 142.05 41.8127 148.715C39.1928 155.379 33.724 164.124 32.7424 169.748C31.7609 175.372 29.7903 189.35 28.9859 197.675C28.1814 206 28.735 217.853 28.735 217.853C28.735 217.853 25.5024 223.196 24.388 228.458C23.2736 233.72 1 264.621 1 264.621" stroke="#263238" stroke-width="0.209222" stroke-linecap="round" stroke-linejoin="round"/>
<path d="M69.2754 142.19C67.1351 144.877 60.3675 156.855 58.7217 158.316C57.8696 159.145 56.7999 159.716 55.6367 159.962" stroke="#263238" stroke-width="0.209222" stroke-linecap="round" stroke-linejoin="round"/>
<path d="M56.4052 136.803C56.4052 136.803 55.9476 139.49 52.1763 147.527C48.405 155.564 46.7297 158.922 45.416 160.575" stroke="#263238" stroke-width="0.209222" stroke-linecap="round" stroke-linejoin="round"/>
<path d="M82.4357 146.206C79.277 150.841 76.0297 158.752 74.3618 160.915C72.6938 163.077 71.668 163.365 71.668 163.365" stroke="#263238" stroke-width="0.209222" stroke-linecap="round" stroke-linejoin="round"/>
<path d="M76.2219 157.712C74.9561 158.214 73.8387 159.029 72.9746 160.081" stroke="#263238" stroke-width="0.209222" stroke-linecap="round" stroke-linejoin="round"/>
<path d="M94.9804 194.288C94.9804 194.288 92.1464 200.812 88.043 199.1" stroke="#263238" stroke-width="0.209222" stroke-linecap="round" stroke-linejoin="round"/>
<path d="M89.4367 174.729C89.4367 174.729 86.0935 182.501 86.9569 186.427" stroke="#263238" stroke-width="0.209222" stroke-linecap="round" stroke-linejoin="round"/>
<path d="M55.4172 165.38C55.4172 165.38 52.0739 166.332 52.561 172.022C53.0481 177.712 50.6348 199.329 50.6348 199.329" stroke="#263238" stroke-width="0.209222" stroke-linecap="round" stroke-linejoin="round"/>
<path d="M41.4579 167.343C38.9781 171.653 38.8379 171.771 39.1995 177.986C39.5612 184.2 38.8379 199.049 38.8379 199.049" stroke="#263238" stroke-width="0.209222" stroke-linecap="round" stroke-linejoin="round"/>
<path d="M28.7363 217.823C28.7363 217.823 31.6515 214.561 30.9504 211.033" stroke="#263238" stroke-width="0.209222" stroke-linecap="round" stroke-linejoin="round"/>
<path d="M68.9932 240.297C68.9932 240.297 62.4248 245.625 58.3066 252.489" stroke="#263238" stroke-width="0.209222" stroke-linecap="round" stroke-linejoin="round"/>
</svg>
