<svg width="255" height="276" viewBox="0 0 255 276" fill="none" xmlns="http://www.w3.org/2000/svg">
<path d="M114.873 16.4505C115.717 19.7964 115.305 13.6362 116.962 6.0938C118.619 -1.44859 121.452 1.6159 121.452 1.6159" stroke="#263238" stroke-linecap="round" stroke-linejoin="round"/>
<path d="M114.355 8.74552L119.553 6.61914" stroke="#263238" stroke-linecap="round" stroke-linejoin="round"/>
<path d="M123.848 4.06738C123.848 4.06738 120.721 10.484 125.418 13.2171" stroke="#263238" stroke-linecap="round" stroke-linejoin="round"/>
<path d="M128.252 2.24121C128.252 2.24121 133.374 5.08681 130.166 11.2533" stroke="#263238" stroke-linecap="round" stroke-linejoin="round"/>
<path d="M124.736 6.2373L128.407 8.92029" stroke="#263238" stroke-linecap="round" stroke-linejoin="round"/>
<path d="M127.619 5.06152L124.742 9.63324" stroke="#263238" stroke-linecap="round" stroke-linejoin="round"/>
<path d="M15.7596 167.611C15.7596 167.611 7.04768 167.486 7.00391 175.004" stroke="#263238" stroke-linecap="round" stroke-linejoin="round"/>
<path d="M15.0342 172.352C14.8528 171.245 11.0628 169.85 10.4062 172.74C9.74948 175.629 14.4588 173.897 15.916 172.546C15.916 172.546 13.2142 175.172 14.0398 175.91" stroke="#263238" stroke-linecap="round" stroke-linejoin="round"/>
<path d="M15.5664 176.729C15.5664 176.729 14.4219 178.162 13.1836 177.48" stroke="#263238" stroke-linecap="round" stroke-linejoin="round"/>
<path d="M23.1898 171.727L16.6543 178.362C16.6543 178.362 19.9439 175.029 21.8514 176.104C24.228 177.405 21.1447 180.97 18.6056 178.418" stroke="#263238" stroke-linecap="round" stroke-linejoin="round"/>
<path d="M26.4922 173.515C26.4922 173.515 28.2245 181.451 19.2812 181.732" stroke="#263238" stroke-linecap="round" stroke-linejoin="round"/>
<path d="M143.168 38.596L146.32 39.115L146.364 46.2759L153.268 33.6865L164.163 35.4752" stroke="#263238" stroke-linecap="round" stroke-linejoin="round"/>
<path d="M154.463 39.2031L159.253 47.6586" stroke="#263238" stroke-linecap="round" stroke-linejoin="round"/>
<path d="M160.484 40.1904L151.91 46.4507" stroke="#263238" stroke-linecap="round" stroke-linejoin="round"/>
<path d="M100.096 51.342C99.2894 50.3163 94.6426 51.048 95.587 54.3376C96.5313 57.6273 100.371 53.2432 101.103 51.048C101.103 51.048 99.821 55.2445 101.103 55.5259" stroke="#263238" stroke-linecap="round" stroke-linejoin="round"/>
<path d="M103.653 47.958L102.615 51.6479C102.615 51.6479 103.134 49.7717 104.047 49.7717C105.167 49.7717 104.76 51.6479 103.328 51.2601" stroke="#263238" stroke-linecap="round" stroke-linejoin="round"/>
<path d="M191.261 93.4375L189.072 101.349L193.857 106.59" stroke="#263238" stroke-linecap="round" stroke-linejoin="round"/>
<path d="M194 96.6523L199.479 101.237" stroke="#263238" stroke-linecap="round" stroke-linejoin="round"/>
<path d="M197.771 95.5264L195.4 101.349" stroke="#263238" stroke-linecap="round" stroke-linejoin="round"/>
<path d="M201.624 100.599C201.624 100.599 201.674 102.25 200.961 102.475" stroke="#263238" stroke-linecap="round" stroke-linejoin="round"/>
<path d="M202.318 94.833L205.627 97.2908" stroke="#263238" stroke-linecap="round" stroke-linejoin="round"/>
<path d="M206.852 92.8125L203.588 104.57" stroke="#263238" stroke-linecap="round" stroke-linejoin="round"/>
<path d="M207.016 88.7285L212.319 94.7324L210.061 101.299" stroke="#263238" stroke-linecap="round" stroke-linejoin="round"/>
<path d="M60.957 243.654L68.6308 220.814L77.9368 231.202L60.957 243.654Z" stroke="#263238" stroke-linecap="round" stroke-linejoin="round"/>
<path d="M75.6552 232.872L73.6914 230.627L75.7865 228.813" stroke="#263238" stroke-linecap="round" stroke-linejoin="round"/>
<path d="M15.5995 115.332C19.5852 113.681 21.4779 109.112 19.827 105.126C18.1761 101.14 13.6067 99.2475 9.62101 100.898C5.63533 102.549 3.74263 107.119 5.39356 111.104C7.04448 115.09 11.6138 116.983 15.5995 115.332Z" stroke="#263238" stroke-linecap="round" stroke-linejoin="round"/>
<path d="M21.2755 109.943C26.0628 109.943 29.9437 106.062 29.9437 101.275C29.9437 96.4873 26.0628 92.6064 21.2755 92.6064C16.4883 92.6064 12.6074 96.4873 12.6074 101.275C12.6074 106.062 16.4883 109.943 21.2755 109.943Z" stroke="#263238" stroke-linecap="round" stroke-linejoin="round"/>
<path d="M14.1468 100.455L13.0898 104.126" stroke="#263238" stroke-linecap="round" stroke-linejoin="round"/>
<path d="M15.6412 100.911L14.1465 106.202" stroke="#263238" stroke-linecap="round" stroke-linejoin="round"/>
<path d="M17.2104 101.8L15.6406 107.785" stroke="#263238" stroke-linecap="round" stroke-linejoin="round"/>
<path d="M18.9554 103.557L17.8359 109.235" stroke="#263238" stroke-linecap="round" stroke-linejoin="round"/>
<path d="M19.937 105.408L18.9551 109.63" stroke="#263238" stroke-linecap="round" stroke-linejoin="round"/>
<path d="M5.14047 98.1032C4.45878 97.8968 2.58881 99.673 4.03975 100.868C5.49069 102.062 5.85968 98.8787 5.5032 97.6592C5.5032 97.6592 6.23493 99.9544 6.89786 99.6792" stroke="#263238" stroke-linecap="round" stroke-linejoin="round"/>
<path d="M15.2227 88.0781L17.7243 92.6311C17.7243 92.6311 16.4735 90.3546 17.3553 89.504C18.431 88.4534 19.8569 90.6736 18.0557 91.6054" stroke="#263238" stroke-linecap="round" stroke-linejoin="round"/>
<path d="M60.9316 87.5342L64.4652 90.8801" stroke="#263238" stroke-linecap="round" stroke-linejoin="round"/>
<path d="M64.466 86.665L61.5078 91.0804" stroke="#263238" stroke-linecap="round" stroke-linejoin="round"/>
<path d="M67.9434 87.9348L71.4769 86.6152" stroke="#263238" stroke-linecap="round" stroke-linejoin="round"/>
<path d="M73.1719 82.9307L75.3233 84.8319" stroke="#263238" stroke-linecap="round" stroke-linejoin="round"/>
<path d="M76.9686 80.6426L74.248 89.9861" stroke="#263238" stroke-linecap="round" stroke-linejoin="round"/>
<path d="M231.418 78.7662L231.268 71.624H236.665C236.665 71.624 233.675 73.2751 235.051 77.1151C236.427 80.9551 238.641 78.7662 238.641 78.7662" stroke="#263238" stroke-linecap="round" stroke-linejoin="round"/>
<path d="M222.275 200.601L228.417 196.373L236.547 196.942L237.054 207.249L231.087 211.52L223.72 210.983L222.275 200.601Z" stroke="#263238" stroke-linecap="round" stroke-linejoin="round"/>
<path d="M223.719 210.983L229.66 206.705L237.052 207.249" stroke="#263238" stroke-linecap="round" stroke-linejoin="round"/>
<path d="M229.667 206.705L228.416 196.373" stroke="#263238" stroke-linecap="round" stroke-linejoin="round"/>
<path d="M222.275 200.601L230.387 201.539L236.547 196.942" stroke="#263238" stroke-linecap="round" stroke-linejoin="round"/>
<path d="M230.387 201.539L231.087 211.521" stroke="#263238" stroke-linecap="round" stroke-linejoin="round"/>
<path d="M223.394 123.188L223.131 136.929L235.17 131.463L223.394 123.188Z" stroke="#263238" stroke-linecap="round" stroke-linejoin="round"/>
<path d="M223.395 123.188L229.13 134.127" stroke="#263238" stroke-linecap="round" stroke-linejoin="round"/>
<path d="M228.209 132.37L229.604 131.694L230.542 133.564" stroke="#263238" stroke-linecap="round" stroke-linejoin="round"/>
<path d="M118.426 121.888L123.404 127.222" stroke="#263238" stroke-linecap="round" stroke-linejoin="round"/>
<path d="M123.442 121.168L119.258 126.897" stroke="#263238" stroke-linecap="round" stroke-linejoin="round"/>
<path d="M125.481 118.373C125.72 118.262 125.993 118.25 126.241 118.341C126.488 118.431 126.69 118.616 126.801 118.854C126.84 118.94 126.868 119.03 126.882 119.123C127.126 120.324 125.156 121.887 125.156 121.887H127.964" stroke="#263238" stroke-linecap="round" stroke-linejoin="round"/>
<path d="M40.9199 41.9542C41.1582 38.9238 42.1565 36.0025 43.8223 33.4599C45.4882 30.9174 47.768 28.8357 50.4511 27.4072" stroke="#263238" stroke-linecap="round" stroke-linejoin="round"/>
<path d="M54.7474 61.0291C50.1861 59.9352 46.2282 57.112 43.709 53.1553" stroke="#263238" stroke-linecap="round" stroke-linejoin="round"/>
<path d="M77.0435 44.8379C76.6574 49.6275 74.3865 54.0682 70.7292 57.1849C67.0719 60.3016 62.3273 61.8396 57.5371 61.4612" stroke="#263238" stroke-linecap="round" stroke-linejoin="round"/>
<path d="M60.4199 25.3379C64.5378 25.668 68.4195 27.394 71.423 30.2303C74.4265 33.0666 76.3717 36.8433 76.9369 40.9355" stroke="#263238" stroke-linecap="round" stroke-linejoin="round"/>
<path d="M66.7988 57.3454C64.2708 58.7638 61.4047 59.4683 58.5072 59.3837C55.6097 59.2991 52.7896 58.4285 50.3487 56.865C47.9077 55.3015 45.9376 53.1039 44.6491 50.5073C43.3606 47.9106 42.8021 45.0126 43.0334 42.123" stroke="#263238" stroke-linecap="round" stroke-linejoin="round"/>
<path d="M44.0586 37.6459C44.9001 35.4582 46.2123 33.4822 47.9022 31.8579C49.5921 30.2335 51.6185 29.0006 53.8378 28.2462C56.0571 27.4919 58.415 27.2347 60.7448 27.4927C63.0745 27.7508 65.3191 28.5179 67.3194 29.7397C69.3198 30.9614 71.0272 32.608 72.3206 34.5628C73.6141 36.5176 74.462 38.7329 74.8043 41.0518C75.1466 43.3706 74.9749 45.7364 74.3015 47.9816C73.6281 50.2267 72.4693 52.2964 70.9073 54.0441" stroke="#263238" stroke-linecap="round" stroke-linejoin="round"/>
<path d="M57.4121 31.8916L58.9819 43.3991L67.8251 40.6473" stroke="#263238" stroke-linecap="round" stroke-linejoin="round"/>
<path d="M196.87 65.7642C194.328 65.7887 191.838 65.0403 189.731 63.6182C187.623 62.196 185.998 60.1672 185.07 57.8004C184.141 55.4337 183.954 52.8408 184.532 50.3651C185.11 47.8895 186.427 45.648 188.308 43.9375" stroke="#263238" stroke-linecap="round" stroke-linejoin="round"/>
<path d="M208.623 57.2773C208.014 59.0747 207.003 60.7098 205.668 62.0588C204.333 63.4078 202.709 64.4354 200.918 65.0636" stroke="#263238" stroke-linecap="round" stroke-linejoin="round"/>
<path d="M192.586 41.3852C195.724 40.2808 199.173 40.4682 202.173 41.9061C205.173 43.344 207.479 45.9146 208.584 49.0526" stroke="#263238" stroke-linecap="round" stroke-linejoin="round"/>
<path d="M202.943 44.043C204.239 44.9191 205.335 46.06 206.158 47.3906C206.982 48.7211 207.513 50.2111 207.719 51.7622C207.924 53.3133 207.798 54.8903 207.349 56.3892C206.901 57.8881 206.139 59.2748 205.115 60.458C204.092 61.6411 202.829 62.5938 201.41 63.2532C199.991 63.9126 198.448 64.2637 196.884 64.2834C195.319 64.3031 193.768 63.9909 192.333 63.3674C190.898 62.7439 189.612 61.8233 188.559 60.6662" stroke="#263238" stroke-linecap="round" stroke-linejoin="round"/>
<path d="M186.302 56.8895C185.636 54.9955 185.498 52.9562 185.903 50.9898C186.307 49.0234 187.238 47.2039 188.597 45.7262C189.956 44.2485 191.691 43.1681 193.617 42.6007C195.543 42.0333 197.586 42.0003 199.529 42.5052" stroke="#263238" stroke-linecap="round" stroke-linejoin="round"/>
<path d="M192.523 46.3828L196.751 53.2185L192.899 58.2155" stroke="#263238" stroke-linecap="round" stroke-linejoin="round"/>
<path d="M108.125 240.164C108.119 238.524 108.515 236.907 109.278 235.455C110.041 234.003 111.148 232.759 112.503 231.834" stroke="#263238" stroke-linecap="round" stroke-linejoin="round"/>
<path d="M125.456 247.094C124.263 248.349 122.767 249.274 121.111 249.781C119.456 250.288 117.698 250.36 116.007 249.989C114.317 249.618 112.75 248.817 111.459 247.663C110.168 246.51 109.197 245.043 108.639 243.404" stroke="#263238" stroke-linecap="round" stroke-linejoin="round"/>
<path d="M118.164 230.102C120.833 230.102 123.392 231.162 125.28 233.049C127.167 234.936 128.227 237.496 128.227 240.164" stroke="#263238" stroke-linecap="round" stroke-linejoin="round"/>
<path d="M118.164 249.039C115.81 249.039 113.553 248.104 111.888 246.439C110.224 244.775 109.289 242.518 109.289 240.164V240.164" stroke="#263238" stroke-linecap="round" stroke-linejoin="round"/>
<path d="M111.252 234.592C112.075 233.576 113.112 232.754 114.289 232.184C115.466 231.615 116.754 231.313 118.062 231.299C119.369 231.286 120.664 231.561 121.853 232.105C123.041 232.65 124.095 233.45 124.939 234.449C125.783 235.448 126.396 236.621 126.734 237.884C127.072 239.147 127.126 240.469 126.894 241.756C126.662 243.043 126.149 244.263 125.391 245.328C124.633 246.393 123.649 247.278 122.509 247.919" stroke="#263238" stroke-linecap="round" stroke-linejoin="round"/>
<path d="M116.788 246.193L118.164 240.165L116.244 235.236" stroke="#263238" stroke-linecap="round" stroke-linejoin="round"/>
<path d="M1 270.509H254.027" stroke="#263238" stroke-linecap="round" stroke-linejoin="round"/>
<path d="M129.383 138.629L125.262 217.099L73.0469 214.36L73.4847 206.042L77.1683 135.884L110.046 137.61L129.383 138.629Z" fill="white"/>
<path opacity="0.2" d="M113.085 184.603L101.321 185.572L104.755 200.388L73.4844 206.042L77.168 135.884L110.046 137.61L113.085 184.603Z" fill="black" fill-opacity="0.7"/>
<path d="M129.383 138.629L125.262 217.099L73.0469 214.36L73.4847 206.042L77.1683 135.884L110.046 137.61L129.383 138.629Z" stroke="#263238" stroke-linecap="round" stroke-linejoin="round"/>
<path d="M80.8535 141.25L94.4436 141.963" stroke="#263238" stroke-width="2" stroke-linecap="round" stroke-linejoin="round"/>
<path d="M80.7148 143.857L89.9583 144.345" stroke="#263238" stroke-width="2" stroke-linecap="round" stroke-linejoin="round"/>
<path d="M83.7051 150.193L122.793 152.245" stroke="#263238" stroke-width="2" stroke-linecap="round" stroke-linejoin="round"/>
<path d="M83.5664 152.801L122.654 154.852" stroke="#263238" stroke-width="2" stroke-linecap="round" stroke-linejoin="round"/>
<path d="M83.4102 155.847L116.744 157.592" stroke="#263238" stroke-width="2" stroke-linecap="round" stroke-linejoin="round"/>
<path d="M83.425 158.625L83.2578 161.804L86.4367 161.971L86.6039 158.792L83.425 158.625Z" stroke="#263238" stroke-linecap="round" stroke-linejoin="round"/>
<path d="M89.1867 158.93L89.0195 162.109L92.1985 162.277L92.3656 159.098L89.1867 158.93Z" stroke="#263238" stroke-linecap="round" stroke-linejoin="round"/>
<path d="M94.9406 159.236L94.7734 162.415L97.9524 162.582L98.1195 159.403L94.9406 159.236Z" stroke="#263238" stroke-linecap="round" stroke-linejoin="round"/>
<path d="M100.704 159.541L100.537 162.72L103.716 162.887L103.883 159.708L100.704 159.541Z" stroke="#263238" stroke-linecap="round" stroke-linejoin="round"/>
<path d="M81.6228 150.081C81.6187 150.184 81.5943 150.286 81.551 150.38C81.5076 150.474 81.4461 150.559 81.37 150.629C81.2939 150.699 81.2047 150.754 81.1075 150.79C81.0103 150.826 80.907 150.842 80.8035 150.838C80.5928 150.827 80.3951 150.733 80.2538 150.576C80.1124 150.42 80.0391 150.213 80.0499 150.003C80.0607 149.792 80.1547 149.594 80.3112 149.453C80.4678 149.312 80.6741 149.238 80.8848 149.249C80.9883 149.254 81.0899 149.279 81.1836 149.323C81.2774 149.367 81.3616 149.429 81.4313 149.506C81.501 149.583 81.5549 149.673 81.5899 149.77C81.6249 149.868 81.6403 149.971 81.6353 150.075L81.6228 150.081Z" fill="#263238"/>
<path d="M82.9043 165.409L121.992 167.461" stroke="#263238" stroke-width="2" stroke-linecap="round" stroke-linejoin="round"/>
<path d="M82.7656 168.018L121.853 170.069" stroke="#263238" stroke-width="2" stroke-linecap="round" stroke-linejoin="round"/>
<path d="M82.6094 171.062L115.943 172.807" stroke="#263238" stroke-width="2" stroke-linecap="round" stroke-linejoin="round"/>
<path d="M82.6164 173.851L82.4492 177.03L85.6281 177.197L85.7953 174.019L82.6164 173.851Z" stroke="#263238" stroke-linecap="round" stroke-linejoin="round"/>
<path d="M88.384 174.15L88.2168 177.329L91.3957 177.496L91.5629 174.317L88.384 174.15Z" stroke="#263238" stroke-linecap="round" stroke-linejoin="round"/>
<path d="M94.1398 174.449L93.9727 177.628L97.1516 177.795L97.3187 174.616L94.1398 174.449Z" stroke="#263238" stroke-linecap="round" stroke-linejoin="round"/>
<path d="M99.8957 174.755L99.7285 177.934L102.907 178.101L103.075 174.922L99.8957 174.755Z" stroke="#263238" stroke-linecap="round" stroke-linejoin="round"/>
<path d="M80.8283 165.297C80.8235 165.401 80.7982 165.503 80.7537 165.598C80.7093 165.692 80.6467 165.777 80.5694 165.847C80.4921 165.918 80.4018 165.972 80.3035 166.007C80.2052 166.043 80.1009 166.058 79.9965 166.053C79.8385 166.046 79.6862 165.991 79.5589 165.897C79.4317 165.803 79.3352 165.674 79.2816 165.525C79.2281 165.376 79.2198 165.214 79.258 165.061C79.2961 164.907 79.379 164.768 79.496 164.662C79.613 164.555 79.759 164.486 79.9154 164.462C80.0719 164.438 80.2319 164.462 80.3751 164.529C80.5184 164.596 80.6385 164.705 80.7203 164.84C80.802 164.975 80.8418 165.132 80.8346 165.29L80.8283 165.297Z" fill="#263238"/>
<path d="M82.1094 180.625L121.191 182.676" stroke="#263238" stroke-width="2" stroke-linecap="round" stroke-linejoin="round"/>
<path d="M81.9727 183.233L121.054 185.285" stroke="#263238" stroke-width="2" stroke-linecap="round" stroke-linejoin="round"/>
<path d="M81.8086 186.272L115.143 188.024" stroke="#263238" stroke-width="2" stroke-linecap="round" stroke-linejoin="round"/>
<path d="M81.8215 189.058L81.6543 192.237L84.8332 192.404L85.0004 189.226L81.8215 189.058Z" stroke="#263238" stroke-linecap="round" stroke-linejoin="round"/>
<path d="M88.2588 189.344L88.0996 192.529L91.2852 192.688L91.4444 189.503L88.2588 189.344Z" stroke="#263238" stroke-width="1.00125" stroke-linecap="round" stroke-linejoin="round"/>
<path d="M93.339 189.669L93.1719 192.848L96.3508 193.015L96.518 189.836L93.339 189.669Z" stroke="#263238" stroke-linecap="round" stroke-linejoin="round"/>
<path d="M99.1086 189.968L98.9414 193.146L102.12 193.314L102.287 190.135L99.1086 189.968Z" stroke="#263238" stroke-linecap="round" stroke-linejoin="round"/>
<path d="M80.0268 180.513C80.022 180.618 79.9967 180.72 79.9522 180.814C79.9078 180.909 79.8452 180.994 79.7679 181.064C79.6906 181.134 79.6003 181.189 79.502 181.224C79.4037 181.259 79.2994 181.275 79.195 181.27C78.9827 181.27 78.7791 181.186 78.629 181.036C78.4789 180.885 78.3945 180.682 78.3945 180.469C78.3945 180.257 78.4789 180.054 78.629 179.903C78.7791 179.753 78.9827 179.669 79.195 179.669H79.3076C79.412 179.674 79.5143 179.699 79.6089 179.744C79.7034 179.788 79.7882 179.851 79.8585 179.928C79.9288 180.005 79.9832 180.095 80.0185 180.194C80.0538 180.292 80.0694 180.396 80.0644 180.501L80.0268 180.513Z" fill="#263238"/>
<path d="M81.2832 196.273L120.365 198.331" stroke="#263238" stroke-width="2" stroke-linecap="round" stroke-linejoin="round"/>
<path d="M81.1465 198.881L120.234 200.938" stroke="#263238" stroke-width="2" stroke-linecap="round" stroke-linejoin="round"/>
<path d="M80.9902 201.927L114.324 203.678" stroke="#263238" stroke-width="2" stroke-linecap="round" stroke-linejoin="round"/>
<path d="M80.9933 204.714L80.8262 207.893L84.0051 208.06L84.1722 204.881L80.9933 204.714Z" stroke="#263238" stroke-linecap="round" stroke-linejoin="round"/>
<path d="M86.7629 205.012L86.5957 208.191L89.7746 208.359L89.9418 205.18L86.7629 205.012Z" stroke="#263238" stroke-linecap="round" stroke-linejoin="round"/>
<path d="M92.5304 205.311L92.3633 208.49L95.5422 208.657L95.7094 205.478L92.5304 205.311Z" stroke="#263238" stroke-linecap="round" stroke-linejoin="round"/>
<path d="M98.2863 205.623L98.1191 208.802L101.298 208.969L101.465 205.79L98.2863 205.623Z" stroke="#263238" stroke-linecap="round" stroke-linejoin="round"/>
<path d="M79.2005 196.166C79.1917 196.323 79.1365 196.474 79.0421 196.599C78.9477 196.725 78.8182 196.819 78.6701 196.871C78.5219 196.923 78.3617 196.93 78.2097 196.891C78.0576 196.852 77.9206 196.768 77.8159 196.651C77.7111 196.534 77.6434 196.389 77.6212 196.234C77.5991 196.078 77.6235 195.92 77.6913 195.778C77.7592 195.637 77.8675 195.518 78.0025 195.438C78.1376 195.358 78.2933 195.32 78.4501 195.328C78.5544 195.334 78.6566 195.36 78.7509 195.405C78.8451 195.45 78.9295 195.514 78.9992 195.592C79.0689 195.669 79.1226 195.76 79.1572 195.859C79.1917 195.958 79.2064 196.062 79.2005 196.166Z" fill="#263238"/>
<path d="M84.5059 159.95L84.9186 160.663L86.6135 158.793" stroke="#263238" stroke-width="2" stroke-linecap="round" stroke-linejoin="round"/>
<path d="M95.2363 175.578L95.6491 176.291L97.3439 174.421" stroke="#263238" stroke-width="2" stroke-linecap="round" stroke-linejoin="round"/>
<path d="M100.621 191.639L101.034 192.352L102.729 190.476" stroke="#263238" stroke-width="2" stroke-linecap="round" stroke-linejoin="round"/>
<path d="M87.8633 205.973L88.276 206.68L89.9709 204.81" stroke="#263238" stroke-width="2" stroke-linecap="round" stroke-linejoin="round"/>
<path d="M94.6865 194.891L44.3101 208.894L23.2715 133.176L44.1288 127.379L73.6479 119.18L92.7353 187.874L94.6865 194.891Z" fill="white"/>
<path opacity="0.2" d="M92.7354 187.874L53.7852 190.395L44.1289 127.379L73.648 119.18L92.7354 187.874Z" fill="black" fill-opacity="0.7"/>
<path d="M94.6865 194.891L44.3101 208.894L23.2715 133.176L44.1288 127.379L73.6479 119.18L92.7353 187.874L94.6865 194.891Z" stroke="#263238" stroke-linecap="round" stroke-linejoin="round"/>
<path d="M28.4746 137.091L41.5831 133.451" stroke="#263238" stroke-width="2" stroke-linecap="round" stroke-linejoin="round"/>
<path d="M29.1699 139.611L38.0882 137.135" stroke="#263238" stroke-width="2" stroke-linecap="round" stroke-linejoin="round"/>
<path d="M34.0156 144.665L71.7276 134.189" stroke="#263238" stroke-width="2" stroke-linecap="round" stroke-linejoin="round"/>
<path d="M34.7168 147.179L72.4287 136.703" stroke="#263238" stroke-width="2" stroke-linecap="round" stroke-linejoin="round"/>
<path d="M35.5293 150.118L67.6939 141.181" stroke="#263238" stroke-width="2" stroke-linecap="round" stroke-linejoin="round"/>
<path d="M39.5046 151.897L36.4375 152.749L37.2898 155.816L40.3569 154.964L39.5046 151.897Z" stroke="#263238" stroke-linecap="round" stroke-linejoin="round"/>
<path d="M45.0651 150.346L41.998 151.198L42.8504 154.265L45.9175 153.413L45.0651 150.346Z" stroke="#263238" stroke-linecap="round" stroke-linejoin="round"/>
<path d="M50.6276 148.8L47.5605 149.652L48.4129 152.719L51.4799 151.867L50.6276 148.8Z" stroke="#263238" stroke-linecap="round" stroke-linejoin="round"/>
<path d="M56.1784 147.258L53.1113 148.11L53.9636 151.177L57.0307 150.325L56.1784 147.258Z" stroke="#263238" stroke-linecap="round" stroke-linejoin="round"/>
<path d="M32.0085 145.221C32.0649 145.424 32.0382 145.642 31.9344 145.825C31.8306 146.009 31.6582 146.143 31.455 146.2C31.2518 146.256 31.0345 146.23 30.851 146.126C30.6674 146.022 30.5326 145.85 30.4762 145.646C30.4198 145.443 30.4465 145.226 30.5503 145.042C30.6541 144.859 30.8265 144.724 31.0297 144.668C31.2329 144.611 31.4502 144.638 31.6337 144.742C31.8173 144.845 31.9521 145.018 32.0085 145.221Z" fill="#263238"/>
<path d="M38.0938 159.343L75.8057 148.867" stroke="#263238" stroke-width="2" stroke-linecap="round" stroke-linejoin="round"/>
<path d="M38.7949 161.864L76.5069 151.382" stroke="#263238" stroke-width="2" stroke-linecap="round" stroke-linejoin="round"/>
<path d="M39.6133 164.796L71.7716 155.859" stroke="#263238" stroke-width="2" stroke-linecap="round" stroke-linejoin="round"/>
<path d="M43.5847 166.572L40.5176 167.425L41.3699 170.492L44.437 169.64L43.5847 166.572Z" stroke="#263238" stroke-linecap="round" stroke-linejoin="round"/>
<path d="M49.1413 165.03L46.0742 165.882L46.9265 168.949L49.9936 168.097L49.1413 165.03Z" stroke="#263238" stroke-linecap="round" stroke-linejoin="round"/>
<path d="M54.7038 163.485L51.6367 164.337L52.489 167.404L55.5561 166.552L54.7038 163.485Z" stroke="#263238" stroke-linecap="round" stroke-linejoin="round"/>
<path d="M60.2702 161.932L57.2031 162.784L58.0554 165.851L61.1225 164.999L60.2702 161.932Z" stroke="#263238" stroke-linecap="round" stroke-linejoin="round"/>
<path d="M36.0914 159.906C36.1337 160.059 36.1299 160.22 36.0804 160.37C36.031 160.521 35.9381 160.653 35.8135 160.75C35.689 160.848 35.5383 160.906 35.3805 160.918C35.2228 160.93 35.065 160.895 34.9272 160.818C34.7893 160.74 34.6776 160.623 34.606 160.482C34.5345 160.341 34.5064 160.182 34.5252 160.025C34.5441 159.868 34.609 159.72 34.7119 159.6C34.8148 159.479 34.951 159.392 35.1033 159.35C35.2039 159.321 35.3092 159.313 35.413 159.325C35.5169 159.337 35.6173 159.37 35.7086 159.421C35.7998 159.472 35.88 159.541 35.9447 159.623C36.0093 159.705 36.057 159.799 36.0852 159.9L36.0914 159.906Z" fill="#263238"/>
<path d="M42.1777 174.028L79.8834 163.546" stroke="#263238" stroke-width="2" stroke-linecap="round" stroke-linejoin="round"/>
<path d="M42.8789 176.542L80.5846 166.066" stroke="#263238" stroke-width="2" stroke-linecap="round" stroke-linejoin="round"/>
<path d="M43.6914 179.481L75.856 170.544" stroke="#263238" stroke-width="2" stroke-linecap="round" stroke-linejoin="round"/>
<path d="M47.6608 181.25L44.5938 182.103L45.4461 185.17L48.5131 184.317L47.6608 181.25Z" stroke="#263238" stroke-linecap="round" stroke-linejoin="round"/>
<path d="M53.2292 179.704L50.1621 180.557L51.0144 183.624L54.0815 182.771L53.2292 179.704Z" stroke="#263238" stroke-linecap="round" stroke-linejoin="round"/>
<path d="M58.778 178.161L55.7109 179.014L56.5632 182.081L59.6303 181.228L58.778 178.161Z" stroke="#263238" stroke-linecap="round" stroke-linejoin="round"/>
<path d="M64.3405 176.616L61.2734 177.469L62.1257 180.536L65.1928 179.684L64.3405 176.616Z" stroke="#263238" stroke-linecap="round" stroke-linejoin="round"/>
<path d="M40.1696 174.584C40.2118 174.736 40.208 174.898 40.1586 175.048C40.1091 175.198 40.0162 175.331 39.8916 175.428C39.7671 175.526 39.6164 175.584 39.4586 175.596C39.3009 175.608 39.1431 175.573 39.0053 175.495C38.8674 175.418 38.7557 175.301 38.6842 175.16C38.6126 175.019 38.5845 174.86 38.6034 174.703C38.6222 174.545 38.6872 174.397 38.79 174.277C38.8929 174.157 39.0291 174.07 39.1814 174.027C39.282 173.999 39.3873 173.99 39.4912 174.003C39.595 174.015 39.6954 174.047 39.7867 174.098C39.8779 174.15 39.9581 174.218 40.0228 174.3C40.0874 174.383 40.1352 174.477 40.1633 174.578L40.1696 174.584Z" fill="#263238"/>
<path d="M46.373 189.125L84.0787 178.649" stroke="#263238" stroke-width="2" stroke-linecap="round" stroke-linejoin="round"/>
<path d="M47.0684 191.645L84.7803 181.163" stroke="#263238" stroke-width="2" stroke-linecap="round" stroke-linejoin="round"/>
<path d="M47.8867 194.579L80.0513 185.642" stroke="#263238" stroke-width="2" stroke-linecap="round" stroke-linejoin="round"/>
<path d="M51.8581 196.355L48.791 197.207L49.6433 200.274L52.7104 199.422L51.8581 196.355Z" stroke="#263238" stroke-linecap="round" stroke-linejoin="round"/>
<path d="M57.4187 194.809L54.3516 195.661L55.2039 198.728L58.271 197.876L57.4187 194.809Z" stroke="#263238" stroke-linecap="round" stroke-linejoin="round"/>
<path d="M62.9812 193.264L59.9141 194.116L60.7664 197.183L63.8335 196.331L62.9812 193.264Z" stroke="#263238" stroke-linecap="round" stroke-linejoin="round"/>
<path d="M68.5378 191.721L65.4707 192.573L66.323 195.64L69.3901 194.788L68.5378 191.721Z" stroke="#263238" stroke-linecap="round" stroke-linejoin="round"/>
<path d="M44.3659 189.681C44.4248 189.885 44.4002 190.104 44.2976 190.29C44.195 190.476 44.0227 190.614 43.8187 190.672C43.6147 190.731 43.3956 190.707 43.2097 190.604C43.0238 190.501 42.8863 190.329 42.8274 190.125C42.7694 189.92 42.7947 189.701 42.8978 189.515C43.0009 189.328 43.1734 189.19 43.3778 189.131C43.5801 189.075 43.7964 189.1 43.9801 189.202C44.1637 189.304 44.3001 189.474 44.3597 189.675L44.3659 189.681Z" fill="#263238"/>
<path d="M43.1094 152.201L43.7285 152.745L44.7417 150.431" stroke="#263238" stroke-width="2" stroke-linecap="round" stroke-linejoin="round"/>
<path d="M41.6016 168.58L42.2207 169.125L43.2276 166.811" stroke="#263238" stroke-width="2" stroke-linecap="round" stroke-linejoin="round"/>
<path d="M45.6797 183.108L46.2988 183.652L47.3057 181.338" stroke="#263238" stroke-width="2" stroke-linecap="round" stroke-linejoin="round"/>
<path d="M60.9844 195.01L61.6035 195.554L62.6167 193.24" stroke="#263238" stroke-width="2" stroke-linecap="round" stroke-linejoin="round"/>
<path d="M99.6066 101.688L47.5625 106.69L55.0806 184.912L107.125 179.91L99.6066 101.688Z" fill="white" stroke="#263238" stroke-linecap="round" stroke-linejoin="round"/>
<path d="M51.9961 111.462L65.5424 110.161" stroke="#263238" stroke-width="2" stroke-linecap="round" stroke-linejoin="round"/>
<path d="M52.2461 114.064L61.4583 113.176" stroke="#263238" stroke-width="2" stroke-linecap="round" stroke-linejoin="round"/>
<path d="M56.1367 119.886L95.0932 116.14" stroke="#263238" stroke-width="2" stroke-linecap="round" stroke-linejoin="round"/>
<path d="M56.3867 122.481L95.3432 118.741" stroke="#263238" stroke-width="2" stroke-linecap="round" stroke-linejoin="round"/>
<path d="M56.6797 125.515L89.9075 122.325" stroke="#263238" stroke-width="2" stroke-linecap="round" stroke-linejoin="round"/>
<path d="M60.2878 127.954L57.1191 128.259L57.4237 131.427L60.5924 131.123L60.2878 127.954Z" stroke="#263238" stroke-linecap="round" stroke-linejoin="round"/>
<path d="M66.03 127.401L62.8613 127.705L63.1659 130.874L66.3346 130.569L66.03 127.401Z" stroke="#263238" stroke-linecap="round" stroke-linejoin="round"/>
<path d="M71.7742 126.854L68.6055 127.158L68.91 130.327L72.0787 130.022L71.7742 126.854Z" stroke="#263238" stroke-linecap="round" stroke-linejoin="round"/>
<path d="M77.5164 126.294L74.3477 126.599L74.6522 129.767L77.8209 129.463L77.5164 126.294Z" stroke="#263238" stroke-linecap="round" stroke-linejoin="round"/>
<path d="M54.066 120.086C54.0813 120.244 54.0496 120.402 53.9748 120.542C53.9001 120.681 53.7857 120.796 53.646 120.87C53.5064 120.945 53.3478 120.976 53.1903 120.96C53.0328 120.945 52.8834 120.883 52.7611 120.782C52.6388 120.682 52.5491 120.547 52.5032 120.396C52.4573 120.245 52.4573 120.083 52.5032 119.931C52.5492 119.78 52.639 119.646 52.7613 119.545C52.8836 119.445 53.033 119.383 53.1905 119.367C53.2944 119.357 53.3993 119.367 53.4993 119.397C53.5992 119.428 53.6922 119.477 53.773 119.543C53.8537 119.61 53.9206 119.691 53.9698 119.783C54.019 119.875 54.0496 119.976 54.0598 120.08L54.066 120.086Z" fill="#263238"/>
<path d="M57.5938 135.052L96.5503 131.312" stroke="#263238" stroke-width="2" stroke-linecap="round" stroke-linejoin="round"/>
<path d="M57.8438 137.653L96.8003 133.907" stroke="#263238" stroke-width="2" stroke-linecap="round" stroke-linejoin="round"/>
<path d="M58.1387 140.687L91.3665 137.491" stroke="#263238" stroke-width="2" stroke-linecap="round" stroke-linejoin="round"/>
<path d="M61.7449 143.117L58.5762 143.422L58.8807 146.591L62.0494 146.286L61.7449 143.117Z" stroke="#263238" stroke-linecap="round" stroke-linejoin="round"/>
<path d="M67.4871 142.57L64.3184 142.875L64.6229 146.044L67.7916 145.739L67.4871 142.57Z" stroke="#263238" stroke-linecap="round" stroke-linejoin="round"/>
<path d="M73.2312 142.017L70.0625 142.321L70.3671 145.49L73.5358 145.185L73.2312 142.017Z" stroke="#263238" stroke-linecap="round" stroke-linejoin="round"/>
<path d="M78.9753 141.477L75.8066 141.781L76.1112 144.95L79.2799 144.645L78.9753 141.477Z" stroke="#263238" stroke-linecap="round" stroke-linejoin="round"/>
<path d="M55.5231 135.252C55.5384 135.41 55.5066 135.568 55.4319 135.708C55.3571 135.847 55.2427 135.962 55.103 136.036C54.9634 136.111 54.8048 136.142 54.6473 136.126C54.4898 136.111 54.3405 136.049 54.2182 135.948C54.0959 135.848 54.0061 135.713 53.9602 135.562C53.9143 135.411 53.9143 135.249 53.9602 135.097C54.0062 134.946 54.096 134.812 54.2183 134.711C54.3407 134.611 54.49 134.549 54.6475 134.533C54.7522 134.523 54.858 134.533 54.9587 134.564C55.0594 134.594 55.1531 134.644 55.2344 134.711C55.3157 134.778 55.3831 134.86 55.4326 134.953C55.4822 135.046 55.5129 135.148 55.5231 135.252Z" fill="#263238"/>
<path d="M59.0508 150.218L98.0073 146.479" stroke="#263238" stroke-width="2" stroke-linecap="round" stroke-linejoin="round"/>
<path d="M59.3008 152.819L98.2573 149.073" stroke="#263238" stroke-width="2" stroke-linecap="round" stroke-linejoin="round"/>
<path d="M59.5957 155.853L92.8235 152.657" stroke="#263238" stroke-width="2" stroke-linecap="round" stroke-linejoin="round"/>
<path d="M63.2019 158.287L60.0332 158.592L60.3378 161.761L63.5065 161.456L63.2019 158.287Z" stroke="#263238" stroke-linecap="round" stroke-linejoin="round"/>
<path d="M68.9441 157.735L65.7754 158.039L66.0799 161.208L69.2487 160.903L68.9441 157.735Z" stroke="#263238" stroke-linecap="round" stroke-linejoin="round"/>
<path d="M74.6882 157.187L71.5195 157.491L71.8241 160.66L74.9928 160.355L74.6882 157.187Z" stroke="#263238" stroke-linecap="round" stroke-linejoin="round"/>
<path d="M80.4324 156.634L77.2637 156.938L77.5682 160.107L80.7369 159.803L80.4324 156.634Z" stroke="#263238" stroke-linecap="round" stroke-linejoin="round"/>
<path d="M56.974 150.418C56.9882 150.574 56.9556 150.731 56.8805 150.869C56.8054 151.007 56.6911 151.12 56.552 151.193C56.4129 151.266 56.2553 151.296 56.0991 151.279C55.9429 151.263 55.7951 151.2 55.6745 151.1C55.5538 150.999 55.4656 150.865 55.4212 150.714C55.3767 150.564 55.3779 150.403 55.4246 150.253C55.4713 150.103 55.5615 149.971 55.6836 149.872C55.8058 149.773 55.9545 149.713 56.1109 149.699C56.2148 149.689 56.3195 149.7 56.4191 149.731C56.5187 149.762 56.6113 149.813 56.6914 149.879C56.7716 149.946 56.8378 150.028 56.8862 150.12C56.9347 150.213 56.9645 150.314 56.974 150.418Z" fill="#263238"/>
<path d="M60.5527 165.822L99.5093 162.076" stroke="#263238" stroke-width="2" stroke-linecap="round" stroke-linejoin="round"/>
<path d="M60.8027 168.418L99.7592 164.678" stroke="#263238" stroke-width="2" stroke-linecap="round" stroke-linejoin="round"/>
<path d="M61.0898 171.45L94.3176 168.261" stroke="#263238" stroke-width="2" stroke-linecap="round" stroke-linejoin="round"/>
<path d="M64.7 173.889L61.5312 174.193L61.8358 177.362L65.0045 177.058L64.7 173.889Z" stroke="#263238" stroke-linecap="round" stroke-linejoin="round"/>
<path d="M70.45 173.341L67.2812 173.646L67.5858 176.814L70.7545 176.51L70.45 173.341Z" stroke="#263238" stroke-linecap="round" stroke-linejoin="round"/>
<path d="M76.1863 172.782L73.0176 173.087L73.3221 176.256L76.4908 175.951L76.1863 172.782Z" stroke="#263238" stroke-linecap="round" stroke-linejoin="round"/>
<path d="M81.9285 172.229L78.7598 172.533L79.0643 175.702L82.233 175.397L81.9285 172.229Z" stroke="#263238" stroke-linecap="round" stroke-linejoin="round"/>
<path d="M58.4755 166.016C58.4922 166.174 58.4616 166.333 58.3875 166.473C58.3134 166.614 58.1992 166.729 58.0594 166.804C57.9197 166.88 57.7606 166.912 57.6026 166.897C57.4445 166.881 57.2946 166.82 57.1718 166.719C57.049 166.618 56.9589 166.483 56.913 166.331C56.8672 166.179 56.8675 166.017 56.9141 165.865C56.9607 165.713 57.0513 165.579 57.1746 165.479C57.2978 165.379 57.4481 165.317 57.6062 165.303C57.7101 165.292 57.815 165.303 57.915 165.333C58.0149 165.363 58.108 165.413 58.1887 165.479C58.2694 165.545 58.3363 165.627 58.3856 165.719C58.4348 165.811 58.4653 165.912 58.4755 166.016Z" fill="#263238"/>
<path d="M58.3691 129.417L58.882 130.061L60.2829 127.96" stroke="#263238" stroke-width="2" stroke-linecap="round" stroke-linejoin="round"/>
<path d="M71.2969 143.288L71.8097 143.932L73.2044 141.831" stroke="#263238" stroke-width="2" stroke-linecap="round" stroke-linejoin="round"/>
<path d="M67.0371 159.324L67.5499 159.969L68.9508 157.867" stroke="#263238" stroke-width="2" stroke-linecap="round" stroke-linejoin="round"/>
<path d="M79.9395 173.702L80.4523 174.346L81.8532 172.245" stroke="#263238" stroke-width="2" stroke-linecap="round" stroke-linejoin="round"/>
<path d="M163.256 70.8545H130.941C129.8 70.8545 128.706 71.3078 127.899 72.1148C127.092 72.9217 126.639 74.0161 126.639 75.1573V102.932C126.639 104.073 127.092 105.167 127.899 105.974C128.706 106.781 129.8 107.234 130.941 107.234H145.263L153.469 117.122L151.411 107.234H163.256C164.394 107.229 165.484 106.774 166.287 105.967C167.089 105.161 167.54 104.069 167.54 102.932V75.1573C167.54 74.0193 167.089 72.9278 166.287 72.1214C165.484 71.315 164.394 70.8595 163.256 70.8545Z" fill="white" stroke="#263238" stroke-linecap="round" stroke-linejoin="round"/>
<path d="M149.684 86.0892V83.1498L147.483 82.9622C147.351 82.5033 147.169 82.0607 146.939 81.6426L148.358 79.954L146.276 77.8776L144.587 79.2973C144.171 79.0634 143.728 78.8807 143.268 78.7532L143.08 76.5518H140.141L139.953 78.7532C139.493 78.8807 139.05 79.0634 138.633 79.2973L136.945 77.8776L134.862 79.954L136.269 81.6676C136.036 82.085 135.851 82.5277 135.719 82.9872L133.518 83.1748V86.1142L135.719 86.3081C135.851 86.7675 136.036 87.2103 136.269 87.6277L134.843 89.3163L136.926 91.3926L138.615 89.973C139.031 90.2068 139.474 90.3895 139.934 90.5171L140.122 92.7185H143.061L143.249 90.5171C143.709 90.3895 144.152 90.2068 144.568 89.973L146.257 91.3926L148.34 89.3163L146.92 87.6277C147.15 87.2096 147.333 86.7669 147.464 86.3081L149.684 86.0892ZM141.61 88.0405C140.934 88.0417 140.272 87.8423 139.709 87.4674C139.145 87.0925 138.706 86.559 138.446 85.9344C138.186 85.3098 138.117 84.6221 138.248 83.9582C138.378 83.2944 138.703 82.6842 139.181 82.2049C139.658 81.7256 140.267 81.3987 140.931 81.2655C141.594 81.1323 142.282 81.1988 142.907 81.4565C143.533 81.7143 144.068 82.1518 144.445 82.7137C144.822 83.2756 145.024 83.9366 145.025 84.6132C145.027 85.0619 144.94 85.5065 144.769 85.9214C144.599 86.3364 144.348 86.7136 144.031 87.0315C143.714 87.3493 143.338 87.6015 142.924 87.7736C142.509 87.9456 142.065 88.0342 141.617 88.0342L141.61 88.0405Z" fill="#ACCAF6"/>
<path d="M159.411 92.6499V90.561L157.841 90.4235C157.75 90.0964 157.619 89.7814 157.453 89.4854L158.466 88.2846L156.99 86.8086L155.783 87.8155C155.486 87.6518 155.171 87.5217 154.845 87.4278L154.714 85.8643H152.619L152.487 87.4278C152.159 87.5217 151.842 87.6517 151.543 87.8155L150.342 86.8086L148.866 88.2846L149.873 89.4854C149.709 89.7816 149.581 90.0966 149.492 90.4235L147.922 90.561V92.6499L149.492 92.7875C149.581 93.1144 149.709 93.4293 149.873 93.7256L148.866 94.9264L150.342 96.4086L151.543 95.3954C151.84 95.5645 152.157 95.6948 152.487 95.7832L152.619 97.353H154.714L154.845 95.7832C155.173 95.6947 155.488 95.5644 155.783 95.3954L156.99 96.4086L158.466 94.9264L157.453 93.7256C157.622 93.4308 157.752 93.1155 157.841 92.7875L159.411 92.6499ZM153.663 94.0383C153.182 94.0383 152.712 93.8956 152.311 93.6283C151.911 93.361 151.6 92.981 151.415 92.5365C151.231 92.0919 151.183 91.6028 151.277 91.1309C151.371 90.6589 151.603 90.2254 151.943 89.8852C152.283 89.545 152.717 89.3133 153.188 89.2194C153.66 89.1255 154.15 89.1737 154.594 89.3578C155.039 89.542 155.419 89.8538 155.686 90.2539C155.953 90.6539 156.096 91.1243 156.096 91.6055C156.096 92.2507 155.84 92.8695 155.383 93.3257C154.927 93.782 154.308 94.0383 153.663 94.0383Z" fill="#ACCAF6"/>
<path d="M149.178 97.5217V96.052L148.058 95.9519C147.994 95.7184 147.902 95.4937 147.783 95.2827L148.503 94.4322L147.452 93.3752L146.595 94.0945C146.384 93.981 146.162 93.8888 145.932 93.8193L145.832 92.7061H144.344L144.25 93.8193C144.017 93.886 143.793 93.9783 143.581 94.0945L142.724 93.3752L141.673 94.4322L142.392 95.2827C142.276 95.495 142.184 95.7194 142.117 95.9519L141.004 96.052V97.5342L142.117 97.6343C142.184 97.8668 142.276 98.0912 142.392 98.3034L141.673 99.179L142.724 100.236L143.581 99.5167C143.794 99.6303 144.018 99.7224 144.25 99.7919L144.344 100.905H145.832L145.932 99.7919C146.162 99.7224 146.384 99.6302 146.595 99.5167L147.452 100.236L148.503 99.179L147.783 98.3285C147.902 98.1175 147.994 97.8928 148.058 97.6593L149.178 97.5217ZM145.088 98.5098C144.745 98.5098 144.41 98.4082 144.125 98.2179C143.84 98.0275 143.618 97.7569 143.487 97.4404C143.356 97.1238 143.322 96.7755 143.389 96.4395C143.456 96.1034 143.621 95.7947 143.863 95.5525C144.105 95.3102 144.414 95.1452 144.75 95.0784C145.086 95.0115 145.434 95.0458 145.751 95.1769C146.067 95.3081 146.338 95.5301 146.528 95.815C146.719 96.0999 146.82 96.4348 146.82 96.7775C146.819 97.2358 146.635 97.6749 146.311 97.9984C145.986 98.3219 145.546 98.5036 145.088 98.5036V98.5098Z" fill="#ACCAF6"/>
<path d="M146.232 177.586L171.424 270.509H175.189L150.004 177.586H146.232Z" fill="#757575" stroke="#263238" stroke-linecap="round" stroke-linejoin="round"/>
<path d="M202.968 244.167H155.219V248.057H202.968V244.167Z" fill="#999999" stroke="#263238" stroke-linecap="round" stroke-linejoin="round"/>
<path d="M228.441 156.716L197.59 270.54H193.837L224.682 156.716C225.821 152.52 223.213 149.105 218.866 149.105H192.286C187.946 149.105 183.481 152.52 182.342 156.716L151.485 270.54H147.732L178.584 156.716C180.266 150.506 186.845 145.459 193.274 145.459H219.86C226.271 145.459 230.123 150.5 228.441 156.716Z" fill="#757575" stroke="#263238" stroke-linecap="round" stroke-linejoin="round"/>
<path d="M228.93 156.747L221.275 185.003C220.906 186.193 220.177 187.238 219.189 187.997C218.202 188.755 217.003 189.188 215.759 189.237H172.08C171.554 189.279 171.025 189.187 170.542 188.972C170.06 188.757 169.639 188.424 169.318 188.004C168.998 187.585 168.787 187.091 168.706 186.569C168.624 186.047 168.675 185.513 168.853 185.016L176.514 156.76C176.886 155.573 177.616 154.531 178.603 153.775C179.591 153.019 180.788 152.587 182.03 152.538H225.703C226.119 152.509 226.537 152.561 226.933 152.693C227.329 152.825 227.696 153.034 228.011 153.307C228.326 153.581 228.585 153.914 228.771 154.287C228.958 154.661 229.069 155.068 229.098 155.484C229.127 155.912 229.069 156.342 228.93 156.747Z" fill="#ACCAF6"/>
<path opacity="0.2" d="M228.93 156.748L221.275 185.004C220.906 186.193 220.177 187.239 219.189 187.997C218.202 188.755 217.003 189.189 215.759 189.238H172.08C171.554 189.279 171.025 189.188 170.542 188.972C170.06 188.757 169.639 188.424 169.318 188.005C168.998 187.585 168.787 187.092 168.706 186.57C168.624 186.048 168.675 185.514 168.853 185.016L176.514 156.76C176.886 155.574 177.616 154.531 178.603 153.775C179.591 153.02 180.788 152.588 182.03 152.539H204.614C214.376 162.545 213.132 180.988 212.494 186.555C213.513 186.309 214.451 185.805 215.218 185.09C215.985 184.376 216.554 183.476 216.872 182.477L224.514 154.215C224.67 153.668 224.702 153.093 224.608 152.533H225.703C226.228 152.495 226.754 152.588 227.234 152.804C227.714 153.02 228.132 153.352 228.452 153.77C228.772 154.188 228.984 154.679 229.067 155.199C229.15 155.719 229.103 156.251 228.93 156.748Z" fill="black" fill-opacity="0.7"/>
<path d="M228.93 156.747L221.275 185.003C220.906 186.193 220.177 187.238 219.189 187.997C218.202 188.755 217.003 189.188 215.759 189.237H172.08C171.554 189.279 171.025 189.187 170.542 188.972C170.06 188.757 169.639 188.424 169.318 188.004C168.998 187.585 168.787 187.091 168.706 186.569C168.624 186.047 168.675 185.513 168.853 185.016L176.514 156.76C176.886 155.573 177.616 154.531 178.603 153.775C179.591 153.019 180.788 152.587 182.03 152.538H225.703C226.119 152.509 226.537 152.561 226.933 152.693C227.329 152.825 227.696 153.034 228.011 153.307C228.326 153.581 228.585 153.914 228.771 154.287C228.958 154.661 229.069 155.068 229.098 155.484C229.127 155.912 229.069 156.342 228.93 156.747V156.747Z" stroke="#263238" stroke-linecap="round" stroke-linejoin="round"/>
<path d="M203.25 217.825L217.534 270.509H221.299L207.021 217.825H203.25Z" fill="#757575" stroke="#263238" stroke-linecap="round" stroke-linejoin="round"/>
<path d="M207.033 211.752V216.905H150.797V211.752C150.797 210.747 151.196 209.783 151.907 209.072C152.618 208.361 153.582 207.962 154.587 207.962H203.237C203.736 207.96 204.229 208.057 204.69 208.247C205.151 208.437 205.57 208.716 205.923 209.068C206.276 209.42 206.555 209.839 206.746 210.299C206.936 210.76 207.034 211.253 207.033 211.752Z" fill="#ACCAF6"/>
<path opacity="0.2" d="M206.902 210.782C205.082 212.921 201.817 215.098 196.201 216.93H150.797V211.752C150.797 210.747 151.196 209.783 151.907 209.072C152.618 208.361 153.582 207.962 154.587 207.962H203.237C204.073 207.963 204.886 208.24 205.549 208.75C206.211 209.26 206.687 209.974 206.902 210.782Z" fill="black" fill-opacity="0.7"/>
<path d="M207.033 211.752V216.905H150.797V211.752C150.797 210.747 151.196 209.783 151.907 209.072C152.618 208.361 153.582 207.962 154.587 207.962H203.237C203.736 207.96 204.229 208.057 204.69 208.247C205.151 208.437 205.57 208.716 205.923 209.068C206.276 209.42 206.555 209.839 206.746 210.299C206.936 210.76 207.034 211.253 207.033 211.752V211.752Z" stroke="#263238" stroke-linecap="round" stroke-linejoin="round"/>
<path d="M208.942 215.349H149.378C148.787 215.349 148.309 215.827 148.309 216.418V219.114C148.309 219.704 148.787 220.183 149.378 220.183H208.942C209.532 220.183 210.011 219.704 210.011 219.114V216.418C210.011 215.827 209.532 215.349 208.942 215.349Z" fill="#999999" stroke="#263238" stroke-linecap="round" stroke-linejoin="round"/>
<path d="M148.971 215.505C146.276 218.251 159.34 261.391 159.34 261.391C157.914 262.642 155.813 263.217 153.824 263.48C151.996 263.707 150.148 263.734 148.314 263.561C148.314 263.561 129.59 218.144 134.743 206.874C139.896 195.605 171.873 190.489 171.873 190.489L173.237 187.112L189.779 184.785L192.512 205.042C192.512 205.042 189.797 205.305 185.714 205.83C174.763 207.218 153.924 210.502 148.971 215.505Z" fill="#263238"/>
<path opacity="0.3" d="M159.341 261.416C157.915 262.667 155.814 263.242 153.825 263.505C150.191 249.996 140.942 213.948 144.444 209.538C148.765 204.097 170.154 199.15 170.154 199.15C170.242 196.374 177.74 193.872 177.74 193.872L185.708 205.811C174.757 207.218 153.919 210.502 148.966 215.505C146.276 218.275 159.341 261.416 159.341 261.416Z" fill="black"/>
<path d="M148.971 215.505C146.276 218.251 159.34 261.391 159.34 261.391C157.914 262.642 155.813 263.217 153.824 263.48C151.996 263.707 150.148 263.734 148.314 263.561C148.314 263.561 129.59 218.144 134.743 206.874C139.896 195.605 171.873 190.489 171.873 190.489L173.237 187.112L189.779 184.785L192.512 205.042C192.512 205.042 189.797 205.305 185.714 205.83C174.763 207.218 153.924 210.502 148.971 215.505Z" stroke="#263238" stroke-linecap="round" stroke-linejoin="round"/>
<path d="M139.716 174.672C136.97 174.203 156.514 157.066 156.514 157.066L165.939 163.408C165.939 163.408 149.903 174.703 147.383 175.009C144.863 175.316 139.716 174.672 139.716 174.672Z" fill="white"/>
<path opacity="0.2" d="M139.716 174.672C136.97 174.203 156.514 157.066 156.514 157.066L165.939 163.408C165.939 163.408 149.903 174.703 147.383 175.009C144.863 175.316 139.716 174.672 139.716 174.672Z" fill="black" fill-opacity="0.7"/>
<path d="M139.716 174.672C136.97 174.203 156.514 157.066 156.514 157.066L165.939 163.408C165.939 163.408 149.903 174.703 147.383 175.009C144.863 175.316 139.716 174.672 139.716 174.672Z" stroke="#263238" stroke-linecap="round" stroke-linejoin="round"/>
<path d="M143.148 167.468C143.148 167.468 147.245 168.487 148.502 169.344C149.759 170.201 149.396 173.297 149.396 173.297C149.396 173.297 143.936 171.758 143.148 167.468Z" fill="white" stroke="#263238" stroke-linecap="round" stroke-linejoin="round"/>
<path d="M140.535 159.619L148.153 174.228H149.053L141.817 158.899L140.535 159.619Z" fill="#263238"/>
<path d="M147.402 170.181C147.402 170.181 142.599 166.767 141.423 166.767C140.248 166.767 136.727 170.926 136.727 173.021C136.727 175.116 144.407 176.26 145.908 174.49C146.658 173.609 145.17 171.482 145.17 171.482C146.064 172.434 147.023 173.322 148.04 174.14C148.666 174.49 149.86 174.034 149.86 174.034C149.86 174.034 148.259 171.47 147.402 170.181Z" fill="white" stroke="#263238" stroke-linecap="round" stroke-linejoin="round"/>
<path d="M145.169 174.972C144.062 173.566 142.702 172.378 141.16 171.47" stroke="#263238" stroke-linecap="round" stroke-linejoin="round"/>
<path d="M145.17 171.47C145.17 171.47 143.506 170.019 142.387 169.7" stroke="#263238" stroke-linecap="round" stroke-linejoin="round"/>
<path d="M139.934 173.314C141.097 173.91 142.218 174.583 143.292 175.328" stroke="#263238" stroke-linecap="round" stroke-linejoin="round"/>
<path d="M162.637 149.574C160.179 151.288 149.141 162.639 149.141 162.639C149.141 162.639 154.313 168.524 158.847 169.375L171.136 163.408L162.637 149.574Z" fill="#ACCAF6" stroke="#263238" stroke-linecap="round" stroke-linejoin="round"/>
<path opacity="0.4" d="M162.637 149.574C160.179 151.288 149.141 162.639 149.141 162.639C149.141 162.639 154.313 168.524 158.847 169.375L171.136 163.408L162.637 149.574Z" fill="white" stroke="#263238" stroke-linecap="round" stroke-linejoin="round"/>
<path d="M156.701 256.838L161.911 270.541C161.911 270.541 162.774 274.062 147.064 272.948L138.408 272.21L156.701 256.838Z" fill="#ACCAF6"/>
<path opacity="0.3" d="M156.701 256.838L161.911 270.541C161.911 270.541 162.774 274.062 147.064 272.948L138.408 272.21L156.701 256.838Z" fill="black"/>
<path d="M156.701 256.838L161.911 270.541C161.911 270.541 162.774 274.062 147.064 272.948L138.408 272.21L156.701 256.838Z" stroke="#263238" stroke-linecap="round" stroke-linejoin="round"/>
<path d="M154.726 263.392C154.726 263.392 155.839 268.714 154.726 272.673C154.726 272.673 138.147 275.268 134.438 274.28C130.729 273.292 128.478 271.441 128.365 270.528C128.365 270.528 128.497 267.989 132.211 267.244C135.926 266.5 143.312 265.994 146.233 261.803C149.154 257.613 154.726 263.392 154.726 263.392Z" fill="#ACCAF6" stroke="#263238" stroke-linecap="round" stroke-linejoin="round"/>
<path d="M176.602 186.561C181.899 179.006 206.253 188.1 206.253 188.1C206.253 188.1 208.573 206.286 198.873 211.14C189.173 215.993 175.189 215.73 171.411 219.664L156.039 265.056C156.039 265.056 150.517 267.363 142.486 263.73C142.486 263.73 152.249 229.451 155.113 217.281C157.946 205.236 176.289 197.062 176.289 197.062C175.344 195.945 174.628 194.653 174.182 193.259" fill="#263238"/>
<path d="M176.602 186.561C181.899 179.006 206.253 188.1 206.253 188.1C206.253 188.1 208.573 206.286 198.873 211.14C189.173 215.993 175.189 215.73 171.411 219.664L156.039 265.056C156.039 265.056 150.517 267.363 142.486 263.73C142.486 263.73 152.249 229.451 155.113 217.281C157.946 205.236 176.289 197.062 176.289 197.062C175.344 195.945 174.628 194.653 174.182 193.259" stroke="#263238" stroke-linecap="round" stroke-linejoin="round"/>
<path d="M201.256 203.947C200.479 204.636 199.662 205.279 198.811 205.874" stroke="white" stroke-linecap="round" stroke-linejoin="round"/>
<path d="M203.25 188.544C205.239 192.859 205.396 198.338 202.625 202.334" stroke="white" stroke-linecap="round" stroke-linejoin="round"/>
<path d="M197.703 189.237C197.703 189.237 197.196 192.564 198.678 193.884C200.16 195.204 204.707 195.873 204.707 195.873" stroke="white" stroke-linecap="round" stroke-linejoin="round"/>
<path d="M177.741 189.388C177.741 189.388 177.947 192.702 176.603 192.546C175.258 192.39 175.189 193.872 175.189 193.872" stroke="white" stroke-linecap="round" stroke-linejoin="round"/>
<path d="M162.962 152.126C162.757 151.29 162.648 150.434 162.637 149.574C162.637 149.574 170.142 143.245 179.804 143.282C191.312 143.32 198.347 146.941 201.162 151.969C205.627 159.924 206.252 188.099 206.252 188.099C206.252 188.099 177.378 192.552 173.237 187.092C172.518 186.141 173.068 179.431 173.068 179.431C173.068 179.431 169.835 170.95 169.153 164.371C168.203 163.062 167.32 161.705 166.508 160.306C165.48 158.584 164.589 156.783 163.844 154.921" fill="#ACCAF6"/>
<path d="M162.962 152.126C162.757 151.29 162.648 150.434 162.637 149.574C162.637 149.574 170.142 143.245 179.804 143.282C191.312 143.32 198.347 146.941 201.162 151.969C205.627 159.924 206.252 188.099 206.252 188.099C206.252 188.099 177.378 192.552 173.237 187.092C172.518 186.141 173.068 179.431 173.068 179.431C173.068 179.431 169.835 170.95 169.153 164.371C168.203 163.062 167.32 161.705 166.508 160.306C165.48 158.584 164.589 156.783 163.844 154.921" stroke="#263238" stroke-linecap="round" stroke-linejoin="round"/>
<g opacity="0.6">
<path d="M162.962 152.126C162.757 151.29 162.648 150.434 162.637 149.574C162.637 149.574 170.142 143.245 179.804 143.282C191.312 143.32 198.347 146.941 201.162 151.969C205.627 159.924 206.252 188.099 206.252 188.099C206.252 188.099 177.378 192.552 173.237 187.092C172.518 186.141 173.068 179.431 173.068 179.431C173.068 179.431 169.835 170.95 169.153 164.371C168.203 163.062 167.32 161.705 166.508 160.306C165.48 158.584 164.589 156.783 163.844 154.921" fill="white"/>
<path d="M162.962 152.126C162.757 151.29 162.648 150.434 162.637 149.574C162.637 149.574 170.142 143.245 179.804 143.282C191.312 143.32 198.347 146.941 201.162 151.969C205.627 159.924 206.252 188.099 206.252 188.099C206.252 188.099 177.378 192.552 173.237 187.092C172.518 186.141 173.068 179.431 173.068 179.431C173.068 179.431 169.835 170.95 169.153 164.371C168.203 163.062 167.32 161.705 166.508 160.306C165.48 158.584 164.589 156.783 163.844 154.921" stroke="#263238" stroke-linecap="round" stroke-linejoin="round"/>
</g>
<path d="M174.02 158.899C174.02 158.899 178.429 176.004 177.772 179.769C177.615 181.068 177.832 182.385 178.397 183.565C177.821 184.171 177.451 184.943 177.338 185.772C177.226 186.601 177.378 187.443 177.772 188.181" stroke="#263238" stroke-linecap="round" stroke-linejoin="round"/>
<path d="M185.714 173.052C184.927 173.022 184.162 172.78 183.5 172.352L182.193 166.623C184.787 166.859 187.401 166.675 189.936 166.079L191.337 172.333C190.549 172.553 189.749 172.726 188.941 172.852" stroke="#263238" stroke-linecap="round" stroke-linejoin="round"/>
<path d="M170.886 161.126C170.886 161.126 167.133 145.14 176.602 143.283C186.071 141.426 188.016 145.847 187.459 148.843C186.715 152.839 178.866 162.639 178.866 162.639L174.019 158.887L170.886 161.126Z" fill="#ACCAF6" stroke="#263238" stroke-linecap="round" stroke-linejoin="round"/>
<path opacity="0.4" d="M170.886 161.126C170.886 161.126 167.133 145.14 176.602 143.283C186.071 141.426 188.016 145.847 187.459 148.843C186.715 152.839 178.866 162.639 178.866 162.639L174.019 158.887L170.886 161.126Z" fill="white" stroke="#263238" stroke-linecap="round" stroke-linejoin="round"/>
<path d="M158.465 210.502C158.465 210.502 164.581 203.441 178.39 198.106C178.39 198.106 174.813 197.012 174.012 195.523" stroke="white" stroke-linecap="round" stroke-linejoin="round"/>
<path d="M151.273 232.109L145.682 252.41" stroke="white" stroke-linecap="round" stroke-linejoin="round"/>
<path d="M194.477 173.603C194.477 173.603 196.978 177.824 207.279 177.437C205.362 175.384 202.937 173.874 200.249 173.059C196.04 171.933 194.477 173.603 194.477 173.603Z" fill="#ACCAF6" stroke="#263238" stroke-linecap="round" stroke-linejoin="round"/>
<path d="M154.512 175.297C154.512 175.297 156.901 171.595 159.09 170.851C161.279 170.106 167.708 170.044 168.702 170.019C169.697 169.994 187.364 174.484 195.657 177.248L194.932 163.408L206.076 164.29C206.076 164.29 205.626 181.176 203.894 185.648C202.161 190.119 199.678 189.031 195.444 187.205C178.79 180.031 169.034 175.034 168.127 175.322C167.22 175.61 154.512 175.297 154.512 175.297Z" fill="white" stroke="#263238" stroke-linecap="round" stroke-linejoin="round"/>
<path d="M192.149 155.366C191.858 156.513 191.765 157.702 191.874 158.881C192.368 163.208 194.476 173.603 194.476 173.603C194.476 173.603 204.864 175.085 207.278 177.436C207.278 177.436 208.992 163.677 205.502 156.692C202.012 149.706 198.404 148.937 198.404 148.937C196.121 148.374 194.026 150.5 192.869 153.233" fill="#ACCAF6"/>
<path d="M192.149 155.366C191.858 156.513 191.765 157.702 191.874 158.881C192.368 163.208 194.476 173.603 194.476 173.603C194.476 173.603 204.864 175.085 207.278 177.436C207.278 177.436 208.992 163.677 205.502 156.692C202.012 149.706 198.404 148.937 198.404 148.937C196.121 148.374 194.026 150.5 192.869 153.233" stroke="#263238" stroke-linecap="round" stroke-linejoin="round"/>
<g opacity="0.4">
<path d="M192.149 155.366C191.858 156.513 191.765 157.702 191.874 158.881C192.368 163.208 194.476 173.603 194.476 173.603C194.476 173.603 204.864 175.085 207.278 177.436C207.278 177.436 208.992 163.677 205.502 156.692C202.012 149.706 198.404 148.937 198.404 148.937C196.121 148.374 194.026 150.5 192.869 153.233" fill="white"/>
<path d="M192.149 155.366C191.858 156.513 191.765 157.702 191.874 158.881C192.368 163.208 194.476 173.603 194.476 173.603C194.476 173.603 204.864 175.085 207.278 177.436C207.278 177.436 208.992 163.677 205.502 156.692C202.012 149.706 198.404 148.937 198.404 148.937C196.121 148.374 194.026 150.5 192.869 153.233" stroke="#263238" stroke-linecap="round" stroke-linejoin="round"/>
</g>
<path d="M161.629 160.719C163.184 161.991 164.998 162.909 166.945 163.408" stroke="#263238" stroke-linecap="round" stroke-linejoin="round"/>
<path d="M194.477 160.719C194.477 160.719 198.229 167.811 202.97 169.374" stroke="#263238" stroke-linecap="round" stroke-linejoin="round"/>
<path d="M170.16 215.349C170.16 215.349 170.854 215.874 171.136 217.769" stroke="white" stroke-linecap="round" stroke-linejoin="round"/>
<path d="M167.59 217.769C168.194 217.834 168.778 218.025 169.305 218.328C169.831 218.632 170.289 219.042 170.648 219.532" stroke="white" stroke-linecap="round" stroke-linejoin="round"/>
<path d="M146.902 210.501C146.902 210.501 148.904 211.514 148.472 214.385" stroke="white" stroke-linecap="round" stroke-linejoin="round"/>
<path d="M144.793 212.94C144.793 212.94 147.526 214.56 147.72 216.011" stroke="white" stroke-linecap="round" stroke-linejoin="round"/>
<path d="M176.471 195.441C176.471 195.441 182.556 196.292 183.919 195.441" stroke="white" stroke-linecap="round" stroke-linejoin="round"/>
<path d="M174.019 158.211C173.494 156.722 173.281 155.14 173.394 153.564C173.419 153.03 173.475 152.497 173.563 151.97L172.506 150.294L171.148 148.136L172.718 141.882C172.718 141.882 182.725 143.808 183.475 146.597C184.226 149.387 174.019 158.211 174.019 158.211Z" fill="white"/>
<path opacity="0.2" d="M173.38 153.589C173.405 153.055 173.462 152.522 173.549 151.994L172.492 150.318C174.397 150.024 176.132 149.051 177.377 147.579C177.429 148.874 177.071 150.153 176.353 151.232C175.636 152.312 174.595 153.137 173.38 153.589Z" fill="black" fill-opacity="0.7"/>
<path d="M174.019 158.211C173.494 156.722 173.281 155.14 173.394 153.564C173.419 153.03 173.475 152.497 173.563 151.97L172.506 150.294L171.148 148.136L172.718 141.882C172.718 141.882 182.725 143.808 183.475 146.597C184.226 149.387 174.019 158.211 174.019 158.211Z" stroke="#263238" stroke-linecap="round" stroke-linejoin="round"/>
<path d="M180.298 142.407C183.425 134.277 181.348 120.437 166.339 123.088C157.533 124.652 156.47 135.296 159.409 140.024C162.349 144.752 159.228 144.902 163.649 148.405C165.444 149.824 166.889 152.232 169.028 152.388C171.573 152.564 174.832 150.156 177.264 147.554" fill="white"/>
<path d="M180.298 142.407C183.425 134.277 181.348 120.437 166.339 123.088C157.533 124.652 156.47 135.296 159.409 140.024C162.349 144.752 159.228 144.902 163.649 148.405C165.444 149.824 166.889 152.232 169.028 152.388C171.573 152.564 174.832 150.156 177.264 147.554" stroke="#263238" stroke-linecap="round" stroke-linejoin="round"/>
<path d="M165.508 140.024C165.508 140.024 167.722 138.01 170.355 138.842" stroke="#263238" stroke-linecap="round" stroke-linejoin="round"/>
<path d="M161.361 140.025C161.064 139.502 160.65 139.056 160.152 138.719C159.655 138.383 159.086 138.166 158.49 138.086" stroke="#263238" stroke-linecap="round" stroke-linejoin="round"/>
<path d="M162.824 142.958C162.824 142.958 162.506 144.578 162.086 146.216C161.667 147.855 164.713 146.961 164.588 146.71" fill="white"/>
<path d="M162.824 142.958C162.824 142.958 162.506 144.578 162.086 146.216C161.667 147.855 164.713 146.961 164.588 146.71" stroke="#263238" stroke-linecap="round" stroke-linejoin="round"/>
<path d="M166.158 148.755C167.45 148.386 168.599 147.633 169.454 146.598" stroke="#263238" stroke-linecap="round" stroke-linejoin="round"/>
<path d="M168.59 142.082C168.634 142.161 168.663 142.248 168.674 142.338C168.685 142.427 168.678 142.519 168.653 142.606C168.629 142.693 168.588 142.774 168.532 142.845C168.476 142.917 168.406 142.976 168.327 143.02C168.167 143.108 167.979 143.129 167.803 143.078C167.627 143.028 167.479 142.911 167.389 142.751C167.332 142.655 167.302 142.545 167.302 142.432C167.257 142.354 167.229 142.267 167.218 142.177C167.207 142.087 167.214 141.996 167.238 141.909C167.263 141.822 167.304 141.74 167.36 141.669C167.416 141.598 167.485 141.539 167.564 141.494C167.725 141.407 167.913 141.386 168.089 141.436C168.264 141.486 168.413 141.604 168.502 141.763C168.56 141.86 168.59 141.97 168.59 142.082Z" fill="#263238"/>
<path d="M161.912 141.944C162.037 142.394 161.95 142.82 161.712 142.882C161.474 142.945 161.18 142.632 161.087 142.176C160.993 141.719 161.055 141.3 161.293 141.237C161.531 141.175 161.775 141.488 161.912 141.944Z" fill="#263238"/>
<path d="M171.041 131.65C171.041 131.65 168.715 137.736 162.961 137.598C162.961 137.598 164.956 136.078 165.506 134.627C165.506 134.627 161.078 139.005 156.657 136.779C152.235 134.552 154.405 124.195 161.191 120.105C167.977 116.015 174.919 117.11 177.27 121.018C177.27 121.018 182.023 120.581 184.118 127.566C185.995 133.82 182.993 143.302 180.059 143.408C175.513 143.577 174.6 138.642 174.6 138.642C172.723 136.733 171.48 134.292 171.041 131.65Z" fill="#263238" stroke="#263238" stroke-linecap="round" stroke-linejoin="round"/>
<path d="M176.026 142.438C176.026 142.438 175.882 136.697 179.153 137.391C182.424 138.085 180.054 144.721 177.596 144.652" fill="white"/>
<path d="M176.026 142.438C176.026 142.438 175.882 136.697 179.153 137.391C182.424 138.085 180.054 144.721 177.596 144.652" stroke="#263238" stroke-linecap="round" stroke-linejoin="round"/>
<path d="M165.926 174.672H115.5C114.937 174.672 114.48 175.128 114.48 175.691V177.449C114.48 178.012 114.937 178.468 115.5 178.468H165.926C166.489 178.468 166.946 178.012 166.946 177.449V175.691C166.946 175.128 166.489 174.672 165.926 174.672Z" fill="#ACCAF6" stroke="#263238" stroke-linecap="round" stroke-linejoin="round"/>
<path d="M41.0767 251.065H19.8066L22.0331 270.509H38.8502L41.0767 251.065Z" fill="#263238" stroke="#263238" stroke-linecap="round" stroke-linejoin="round"/>
<path d="M43.5969 237.531C43.5969 237.531 34.3096 238.263 33.9219 245.117C33.9219 245.117 43.328 249.445 43.5969 237.531Z" fill="#ACCAF6" stroke="#263238" stroke-linecap="round" stroke-linejoin="round"/>
<path d="M25.2221 239.233C25.2221 239.233 20.0312 232.215 11.6445 235.812C11.6445 235.812 16.7666 244.273 25.2221 239.233Z" fill="#ACCAF6" stroke="#263238" stroke-linecap="round" stroke-linejoin="round"/>
<path d="M12.358 217.081C12.358 217.081 10.8633 230.577 23.1525 226.862C23.1525 226.862 19.25 216.937 12.358 217.081Z" fill="#ACCAF6" stroke="#263238" stroke-linecap="round" stroke-linejoin="round"/>
<path d="M27.449 209.563C27.449 209.563 17.7302 214.804 24.8786 222.76C24.8723 222.76 31.683 217.075 27.449 209.563Z" fill="#ACCAF6" stroke="#263238" stroke-linecap="round" stroke-linejoin="round"/>
<path d="M39.3994 221.627C39.3994 221.627 28.8301 220.558 28.8301 230.339C28.8301 230.339 39.3994 230.758 39.3994 221.627Z" fill="#ACCAF6" stroke="#263238" stroke-linecap="round" stroke-linejoin="round"/>
<path d="M29.4364 259.077C29.4364 259.077 34.252 248.971 29.6303 238.676C25.0085 228.382 23.4388 219.708 25.8778 213.598" stroke="#263238" stroke-linecap="round" stroke-linejoin="round"/>
<path d="M35.9297 224.261C35.9297 224.261 29.5944 226.762 27.4492 233.298" stroke="#263238" stroke-linecap="round" stroke-linejoin="round"/>
<path d="M15.6973 222.479C15.6973 222.479 19.3559 227.482 25.5537 226.925" stroke="#263238" stroke-linecap="round" stroke-linejoin="round"/>
<path d="M15.6973 237.25C15.6973 237.25 25.8288 240.164 29.8564 239.214" stroke="#263238" stroke-linecap="round" stroke-linejoin="round"/>
<path d="M40.5813 240.615C40.5813 240.615 36.0471 245.618 31.4941 245.512" stroke="#263238" stroke-linecap="round" stroke-linejoin="round"/>
<path d="M41.9888 250.634H18.8926V253.379H41.9888V250.634Z" fill="#263238" stroke="#263238" stroke-linecap="round" stroke-linejoin="round"/>
<path d="M209.591 233.017C204.191 236.544 199.661 241.248 196.338 246.776C190.829 255.969 186.463 268.902 193.243 270.541L199.691 270.297L212.099 266.038L210.798 263.536C210.798 263.536 199.934 269.29 198.077 269.29C196.22 269.29 193.799 269.753 192.78 269.009C191.76 268.264 196.351 251.547 206.176 245.975C216.001 240.403 209.591 233.017 209.591 233.017Z" fill="#ACCAF6"/>
<path opacity="0.5" d="M209.591 233.017C204.191 236.544 199.661 241.248 196.338 246.776C190.829 255.969 186.463 268.902 193.243 270.541L199.691 270.297L212.099 266.038L210.798 263.536C210.798 263.536 199.934 269.29 198.077 269.29C196.22 269.29 193.799 269.753 192.78 269.009C191.76 268.264 196.351 251.547 206.176 245.975C216.001 240.403 209.591 233.017 209.591 233.017Z" fill="black" fill-opacity="0.7"/>
<path d="M209.591 233.017C204.191 236.544 199.661 241.248 196.338 246.776C190.829 255.969 186.463 268.902 193.243 270.541L199.691 270.297L212.099 266.038L210.798 263.536C210.798 263.536 199.934 269.29 198.077 269.29C196.22 269.29 193.799 269.753 192.78 269.009C191.76 268.264 196.351 251.547 206.176 245.975C216.001 240.403 209.591 233.017 209.591 233.017Z" stroke="#263238" stroke-linecap="round" stroke-linejoin="round"/>
<path d="M216.652 226.987C216.652 226.987 216.652 224.292 220.736 223.923C224.82 223.554 225.402 227.488 225.402 227.488H223.995C223.995 227.488 224.026 225.13 221.024 224.949C218.022 224.767 218.135 227.488 218.135 227.488L216.652 226.987Z" fill="#ACCAF6" stroke="#263238" stroke-linecap="round" stroke-linejoin="round"/>
<path d="M210.61 270.541C201.973 270.541 203.612 231.81 204.606 229.89C205.601 227.97 230.661 227.013 233.131 227.826C235.601 228.639 245.508 267.226 240.042 270.31L210.61 270.541Z" fill="#ACCAF6"/>
<path opacity="0.2" d="M210.61 270.541C201.973 270.541 203.612 231.81 204.606 229.89C205.601 227.97 230.661 227.013 233.131 227.826C235.601 228.639 245.508 267.226 240.042 270.31L210.61 270.541Z" fill="black" fill-opacity="0.7"/>
<path d="M210.61 270.541C201.973 270.541 203.612 231.81 204.606 229.89C205.601 227.97 230.661 227.013 233.131 227.826C235.601 228.639 245.508 267.226 240.042 270.31L210.61 270.541Z" stroke="#263238" stroke-linecap="round" stroke-linejoin="round"/>
<path d="M204.605 229.846C207.732 230.515 209.534 243.192 213.743 246.419C217.952 249.646 237.796 248.952 240.041 246.419C242.286 243.886 237.896 229.664 234.706 227.488C231.517 225.311 229.246 227.425 220.272 226.431C206.97 224.949 204.605 229.846 204.605 229.846Z" fill="#ACCAF6" stroke="#263238" stroke-linecap="round" stroke-linejoin="round"/>
<path d="M227.384 237.132L231.062 240.134C231.112 240.176 231.153 240.228 231.183 240.287C231.213 240.346 231.231 240.41 231.237 240.475C231.242 240.541 231.234 240.607 231.214 240.67C231.193 240.732 231.161 240.79 231.118 240.84L228.254 243.93C228.162 244.021 228.038 244.072 227.91 244.072C227.781 244.072 227.657 244.021 227.566 243.93L223.907 240.521C223.818 240.429 223.768 240.306 223.768 240.177C223.768 240.049 223.818 239.926 223.907 239.833L226.74 237.201C226.82 237.112 226.93 237.056 227.049 237.044C227.168 237.031 227.287 237.062 227.384 237.132Z" fill="#ACCAF6"/>
<path opacity="0.2" d="M227.384 237.132L231.062 240.134C231.112 240.176 231.153 240.228 231.183 240.287C231.213 240.346 231.231 240.41 231.237 240.475C231.242 240.541 231.234 240.607 231.214 240.67C231.193 240.732 231.161 240.79 231.118 240.84L228.254 243.93C228.162 244.021 228.038 244.072 227.91 244.072C227.781 244.072 227.657 244.021 227.566 243.93L223.907 240.521C223.818 240.429 223.768 240.306 223.768 240.177C223.768 240.049 223.818 239.926 223.907 239.833L226.74 237.201C226.82 237.112 226.93 237.056 227.049 237.044C227.168 237.031 227.287 237.062 227.384 237.132Z" fill="black" fill-opacity="0.7"/>
<path d="M227.384 237.132L231.062 240.134C231.112 240.176 231.153 240.228 231.183 240.287C231.213 240.346 231.231 240.41 231.237 240.475C231.242 240.541 231.234 240.607 231.214 240.67C231.193 240.732 231.161 240.79 231.118 240.84V240.84L228.254 243.93C228.162 244.021 228.038 244.072 227.91 244.072C227.781 244.072 227.657 244.021 227.566 243.93V243.93L223.907 240.521C223.818 240.429 223.768 240.306 223.768 240.177C223.768 240.049 223.818 239.926 223.907 239.833V239.833L226.74 237.201C226.82 237.112 226.93 237.056 227.049 237.044C227.168 237.031 227.287 237.062 227.384 237.132V237.132Z" stroke="#263238" stroke-linecap="round" stroke-linejoin="round"/>
<path d="M215.257 252.898C215.257 252.898 231.88 254.267 240.042 252.153C241.134 253.013 241.946 254.177 242.375 255.499C243.119 257.726 244.67 265.343 240.042 267.294C235.414 269.246 218.778 268.87 216.558 266.669C214.338 264.468 215.257 252.898 215.257 252.898Z" fill="#ACCAF6"/>
<path opacity="0.4" d="M215.257 252.898C215.257 252.898 231.88 254.267 240.042 252.153C241.134 253.013 241.946 254.177 242.375 255.499C243.119 257.726 244.67 265.343 240.042 267.294C235.414 269.246 218.778 268.87 216.558 266.669C214.338 264.468 215.257 252.898 215.257 252.898Z" fill="black" fill-opacity="0.7"/>
<path d="M215.257 252.898C215.257 252.898 231.88 254.267 240.042 252.153C241.134 253.013 241.946 254.177 242.375 255.499C243.119 257.726 244.67 265.343 240.042 267.294C235.414 269.246 218.778 268.87 216.558 266.669C214.338 264.468 215.257 252.898 215.257 252.898Z" stroke="#263238" stroke-linecap="round" stroke-linejoin="round"/>
<path d="M215.258 252.898C215.258 252.898 217.209 258.157 218.228 258.964C219.248 259.771 240.843 259.771 243.245 257.819C245.646 255.868 242.357 252.341 240.049 252.153C240.043 252.153 224.914 253.917 215.258 252.898Z" fill="#ACCAF6" stroke="#263238" stroke-linecap="round" stroke-linejoin="round"/>
<path d="M208.291 251.778C208.291 251.778 208.847 262.829 209.961 265.337C209.134 265.768 208.216 265.994 207.284 265.994C206.352 265.994 205.433 265.768 204.607 265.337C201.793 263.849 202.256 254.33 202.812 254.355C203.369 254.38 208.291 251.778 208.291 251.778Z" fill="#ACCAF6"/>
<path opacity="0.4" d="M208.291 251.778C208.291 251.778 208.847 262.829 209.961 265.337C209.134 265.768 208.216 265.994 207.284 265.994C206.352 265.994 205.433 265.768 204.607 265.337C201.793 263.849 202.256 254.33 202.812 254.355C203.369 254.38 208.291 251.778 208.291 251.778Z" fill="black" fill-opacity="0.7"/>
<path d="M208.291 251.778C208.291 251.778 208.847 262.829 209.961 265.337C209.134 265.768 208.216 265.994 207.284 265.994C206.352 265.994 205.433 265.768 204.607 265.337C201.793 263.849 202.256 254.33 202.812 254.355C203.369 254.38 208.291 251.778 208.291 251.778Z" stroke="#263238" stroke-linecap="round" stroke-linejoin="round"/>
<path d="M208.29 251.778L204.106 252.616C204.106 252.616 200.116 255.681 201.88 256.7C203.643 257.72 208.19 255.218 208.29 251.778Z" fill="#ACCAF6" stroke="#263238" stroke-linecap="round" stroke-linejoin="round"/>
</svg>
